<svg viewBox="0 0 32 32" enable-background="new 0 0 32 32" xmlns="http://www.w3.org/2000/svg"><title>paper-plane</title><path d="M30.419 1c-.195 0-.41.059-.645.176l-27.949 11.836c-.508.234-.781.527-.82.879-.039.352.176.664.645.938l7.91 4.922c1.133.703 2.051 1.621 2.754 2.754l4.746 7.793c.234.43.527.645.879.645.391 0 .703-.254.938-.762l11.953-27.949c.352-.82.215-1.23-.41-1.23zm-19.863 17.109l-6.445-3.984 21.504-9.141-13.828 14.063c-.43-.391-.84-.703-1.23-.938zm7.207 9.727l-3.809-6.27c-.195-.352-.469-.742-.82-1.172l13.887-14.121-9.258 21.563z"/></svg>