<svg viewBox="0 0 32 32" enable-background="new 0 0 32 32" xmlns="http://www.w3.org/2000/svg"><title>home</title><path d="M30.846 16.059l-14.063-14.766c-.195-.195-.42-.293-.674-.293-.254 0-.479.098-.674.293l-14.121 14.766c-.43.43-.42.859.029 1.289.449.43.889.43 1.318 0l1.23-1.348v14.063c0 .234.098.449.293.645.195.195.41.293.645.293h6.562c.273 0 .498-.098.674-.293.176-.195.264-.41.264-.645l.059-9.375h7.441v9.375c0 .234.088.449.264.645.176.195.4.293.674.293h6.563c.234 0 .449-.098.645-.293.195-.195.293-.41.293-.645v-14.063l1.23 1.348c.195.195.43.293.703.293.234 0 .449-.098.645-.293.43-.43.43-.859 0-1.289zm-4.453-1.758v14.824h-4.688v-9.375c0-.273-.088-.498-.264-.674-.176-.176-.4-.264-.674-.264h-9.316c-.273 0-.498.088-.674.264-.176.176-.264.4-.264.674l-.059 9.375h-4.687v-15l10.371-10.84 10.254 10.781v.234z"/></svg>