<svg viewBox="0 0 32 32" enable-background="new 0 0 32 32" xmlns="http://www.w3.org/2000/svg"><title>desktop</title><path d="M29.125 4h-26.25c-.508 0-.947.186-1.318.557-.371.371-.557.811-.557 1.318v15.938c0 .508.186.947.557 1.318.371.371.811.557 1.318.557h12.188v2.813h-4.688c-.273 0-.498.088-.674.264-.176.176-.264.4-.264.674 0 .273.088.498.264.674.176.176.4.264.674.264h11.25c.273 0 .498-.088.674-.264.176-.176.264-.4.264-.674 0-.273-.088-.498-.264-.674-.176-.176-.4-.264-.674-.264h-4.688v-2.813h12.188c.508 0 .947-.186 1.318-.557.371-.371.557-.811.557-1.318v-15.938c0-.508-.186-.947-.557-1.318-.371-.371-.811-.557-1.318-.557zm0 17.813h-26.25v-15.938h26.25v15.938z"/></svg>