<svg viewBox="0 0 32 32" enable-background="new 0 0 32 32" xmlns="http://www.w3.org/2000/svg"><title>mouse</title><path d="M16.467 1c-2.324 0-4.316.82-5.977 2.461-1.66 1.641-2.49 3.613-2.49 5.918v13.242c0 2.305.83 4.277 2.49 5.918 1.66 1.641 3.652 2.461 5.977 2.461 2.324 0 4.307-.82 5.947-2.461 1.641-1.641 2.461-3.613 2.461-5.918v-13.242c0-2.305-.82-4.277-2.461-5.918s-3.623-2.461-5.947-2.461zm6.533 21.621c0 1.797-.635 3.33-1.904 4.6-1.27 1.27-2.803 1.904-4.6 1.904-1.797 0-3.35-.635-4.658-1.904-1.309-1.27-1.963-2.803-1.963-4.6v-13.242c0-1.797.654-3.33 1.963-4.6 1.309-1.27 2.861-1.904 4.658-1.904 1.797 0 3.33.635 4.6 1.904 1.27 1.27 1.904 2.803 1.904 4.6v13.242zm-6.533-15.996c-.254 0-.479.088-.674.264-.195.176-.293.4-.293.674v4.688c0 .273.098.498.293.674.195.176.42.264.674.264.254 0 .469-.088.645-.264.176-.176.264-.4.264-.674v-4.688c0-.273-.088-.498-.264-.674-.176-.176-.391-.264-.645-.264z"/></svg>