<svg viewBox="0 0 32 32" enable-background="new 0 0 32 32" xmlns="http://www.w3.org/2000/svg"><title>game-controller</title><path d="M22.807 3.227c-1.016-.469-1.719-.801-2.109-.996-1.641-.82-3.184-1.23-4.629-1.23-2.109 0-4.141.957-6.094 2.871l-1.055 1.055-.703.703-.996.996-1.582 1.582-1.699 1.758c-1.641 1.602-2.598 3.262-2.871 4.98-.273 1.719.117 3.633 1.172 5.742.234.43.566 1.133.996 2.109l1.172 2.432c.273.566.674 1.289 1.201 2.168.527.879.996 1.533 1.406 1.963.41.43.908.811 1.494 1.143.586.332 1.191.498 1.816.498h.234c.547-.039 1.035-.176 1.465-.41.43-.234.811-.586 1.143-1.055.332-.469.615-.908.85-1.318.234-.41.469-.996.703-1.758.234-.762.4-1.357.498-1.787l.439-1.934c.195-.82.312-1.387.352-1.699.195-.664.82-1.543 1.875-2.637l.176-.176.117-.059.117-.117.117-.176c1.094-1.055 1.973-1.68 2.637-1.875.352-.078.918-.195 1.699-.352.859-.195 1.504-.352 1.934-.469.43-.117 1.025-.283 1.787-.498.762-.215 1.348-.439 1.758-.674.41-.234.85-.518 1.318-.85.469-.332.82-.713 1.055-1.143.234-.43.371-.918.41-1.465.039-.664-.098-1.299-.41-1.904-.313-.605-.684-1.123-1.113-1.553-.43-.43-1.084-.908-1.963-1.436-.879-.527-1.611-.937-2.197-1.23-.586-.293-1.426-.693-2.52-1.201zm6.27 7.148c-.039.469-.234.879-.586 1.23-.352.352-.898.664-1.641.938-.742.273-1.387.488-1.934.645-.547.156-1.328.342-2.344.557-1.016.215-1.68.361-1.992.439-1.016.273-2.187 1.055-3.516 2.344 0 .039-.039.088-.117.146-.078.059-.117.107-.117.146l-.146.088-.146.146c-1.289 1.328-2.07 2.5-2.344 3.516-.078.313-.225.977-.439 1.992-.215 1.016-.4 1.797-.557 2.344-.156.547-.371 1.191-.645 1.934-.273.742-.586 1.289-.938 1.641-.352.352-.762.547-1.23.586h-.117c-.469 0-.937-.176-1.406-.527-.469-.352-.937-.918-1.406-1.699-.469-.781-.869-1.484-1.201-2.109-.332-.625-.752-1.494-1.26-2.607-.508-1.113-.879-1.885-1.113-2.314-.859-1.953-1.172-3.555-.938-4.805.234-1.25.996-2.5 2.285-3.75.117-.156.684-.742 1.699-1.758l2.578-2.578.85-.85.908-.908c1.563-1.563 3.164-2.344 4.805-2.344 1.133 0 2.383.352 3.75 1.055.43.195 1.211.557 2.344 1.084 1.133.527 2.012.957 2.637 1.289.625.332 1.328.742 2.109 1.23.781.488 1.348.977 1.699 1.465.352.488.508.967.469 1.436zm-14.063.938h1.875v-1.875h-1.875v1.875zm0-2.813h1.875v-1.875h-1.875v1.875zm2.813 0h1.875v-1.875h-1.875v1.875zm0 2.813h1.875v-1.875h-1.875v1.875zm-7.148 5.625l.703-.703c.43-.43.43-.859 0-1.289-.43-.43-.859-.43-1.289 0l-.703.703-.703-.703c-.43-.43-.859-.43-1.289 0-.43.43-.43.859 0 1.289l.703.703-.703.703c-.43.43-.43.85 0 1.26.43.41.859.42 1.289.029l.703-.762.762.762c.43.43.85.43 1.26 0 .41-.43.4-.859-.029-1.289l-.703-.703z"/></svg>