<svg viewBox="0 0 32 32" enable-background="new 0 0 32 32" xmlns="http://www.w3.org/2000/svg"><title>bulb</title><path d="M16 1c-2.891 0-5.342 1.025-7.354 3.076-2.012 2.051-3.018 4.541-3.018 7.471 0 1.328.234 2.549.703 3.662s.928 1.934 1.377 2.461c.449.527 1.045 1.143 1.787 1.846.078.039.176.117.293.234 1.016.898 1.523 1.582 1.523 2.051v4.394c0 1.445.43 2.607 1.289 3.486s2.012 1.318 3.457 1.318c1.367 0 2.48-.439 3.34-1.318.859-.879 1.289-2.041 1.289-3.486v-4.394c0-.352.098-.703.293-1.055.195-.352.4-.625.615-.82.215-.195.596-.527 1.143-.996.742-.625 1.328-1.182 1.758-1.67.43-.488.85-1.25 1.26-2.285.41-1.035.615-2.178.615-3.428 0-2.93-1.006-5.42-3.018-7.471-2.012-2.051-4.463-3.076-7.354-3.076zm-.059 28.125c-.859 0-1.533-.254-2.021-.762s-.732-1.23-.732-2.168v-1.23c.781.273 1.719.41 2.813.41 1.055 0 1.992-.137 2.813-.41v1.23c0 .938-.244 1.66-.732 2.168-.488.508-1.201.762-2.139.762zm5.566-11.602c-.625.547-1.074.947-1.348 1.201-.273.254-.566.674-.879 1.26-.313.586-.469 1.191-.469 1.816v1.172c-.664.352-1.602.527-2.813.527-1.289 0-2.227-.156-2.813-.469v-1.23c0-.508-.146-1.006-.439-1.494-.293-.488-.547-.84-.762-1.055-.215-.215-.635-.596-1.26-1.143-.664-.625-1.191-1.162-1.582-1.611-.391-.449-.762-1.113-1.113-1.992-.352-.879-.527-1.865-.527-2.959 0-2.422.82-4.473 2.461-6.152 1.641-1.68 3.652-2.52 6.035-2.52s4.395.84 6.035 2.52c1.641 1.68 2.461 3.73 2.461 6.152 0 1.016-.156 1.924-.469 2.725-.313.801-.654 1.406-1.025 1.816-.371.41-.869.889-1.494 1.436z"/></svg>