<svg viewBox="0 0 32 32" enable-background="new 0 0 32 32" xmlns="http://www.w3.org/2000/svg"><title>users</title><path d="M22.855 25.492l-5.918-3.281c.977-.781 1.689-1.846 2.139-3.193.449-1.348.674-2.627.674-3.838v-3.984c0-1.328-.732-2.578-2.197-3.75-1.465-1.172-3.066-1.758-4.805-1.758-1.738 0-3.35.596-4.834 1.787-1.484 1.191-2.227 2.432-2.227 3.721v3.984c0 1.094.244 2.334.732 3.721s1.221 2.49 2.197 3.311l-6.035 3.281c-1.055.469-1.582.996-1.582 1.582v2.344c0 .43.156.801.469 1.113.313.313.684.469 1.113.469h20.273c.43 0 .801-.156 1.113-.469.313-.313.469-.684.469-1.113v-2.344c0-.195-.059-.381-.176-.557-.117-.176-.244-.322-.381-.439-.137-.117-.283-.225-.439-.322-.156-.098-.293-.166-.41-.205l-.176-.059zm-.293 3.633h-19.688v-1.641c.156-.117.312-.215.469-.293l.117-.059 6.094-3.281c.586-.313.908-.811.967-1.494.059-.684-.186-1.221-.732-1.611-.703-.586-1.25-1.436-1.641-2.549s-.586-2.119-.586-3.018v-3.984c0-.703.557-1.484 1.67-2.344 1.113-.859 2.295-1.289 3.545-1.289s2.412.42 3.486 1.26c1.074.84 1.611 1.631 1.611 2.373v3.984c0 .938-.166 1.953-.498 3.047-.332 1.094-.869 1.934-1.611 2.52-.508.391-.732.928-.674 1.611.059.684.381 1.182.967 1.494l5.918 3.281.176.059c.117.078.254.156.41.234v1.699zm6.855-8.32l-5.977-3.281c.977-.781 1.699-1.846 2.168-3.193.469-1.348.703-2.627.703-3.838v-3.926c0-1.328-.742-2.588-2.227-3.779-1.484-1.191-3.105-1.787-4.863-1.787-1.094 0-2.178.264-3.252.791-1.074.527-1.963 1.201-2.666 2.021 1.211.078 1.992.176 2.344.293 1.055-.82 2.246-1.23 3.574-1.23 1.289 0 2.48.43 3.574 1.289 1.094.859 1.641 1.66 1.641 2.402v3.926c0 .938-.176 1.953-.527 3.047-.352 1.094-.898 1.934-1.641 2.52-.547.43-.791.977-.732 1.641.059.664.381 1.152.967 1.465l6.035 3.281c.039.039.098.059.176.059l.41.293v1.641h-3.809c.391.313.723.937.996 1.875h3.105c.43 0 .801-.156 1.113-.469.313-.313.469-.684.469-1.113v-2.344c0-.273-.137-.547-.41-.82-.273-.273-.527-.469-.762-.586l-.41-.176z"/></svg>