<svg viewBox="0 0 32 32" enable-background="new 0 0 32 32" xmlns="http://www.w3.org/2000/svg"><title>microphone</title><path d="M15.941 21.625h.234c1.328 0 2.412-.43 3.252-1.289.84-.859 1.26-1.953 1.26-3.281v-11.191c0-1.367-.43-2.52-1.289-3.457-.859-.938-1.934-1.406-3.223-1.406h-.234c-1.25 0-2.334.479-3.252 1.436-.918.957-1.377 2.1-1.377 3.428v11.191c0 1.289.439 2.373 1.318 3.252.879.879 1.982 1.318 3.311 1.318zm-2.754-15.762c0-.82.273-1.523.82-2.109.547-.586 1.191-.879 1.934-.879h.234c.742 0 1.367.283 1.875.85.508.566.762 1.279.762 2.139v11.191c0 .82-.244 1.475-.732 1.963s-1.123.732-1.904.732h-.234c-.82 0-1.484-.254-1.992-.762s-.762-1.152-.762-1.934v-11.191zm11.25 5.449c-.273 0-.498.088-.674.264-.176.176-.264.4-.264.674v3.926c0 5.508-2.031 8.262-6.094 8.262h-2.754c-1.289 0-2.363-.244-3.223-.732-.859-.488-1.484-1.172-1.875-2.051-.391-.879-.664-1.738-.82-2.578-.156-.84-.234-1.807-.234-2.9v-3.926c0-.273-.088-.498-.264-.674-.176-.176-.4-.264-.674-.264-.273 0-.498.088-.674.264-.176.176-.264.4-.264.674v3.926c0 3.242.674 5.742 2.021 7.5 1.348 1.758 3.35 2.637 6.006 2.637h.41v2.813h-4.688c-.273 0-.498.088-.674.264-.176.176-.264.4-.264.674 0 .273.088.498.264.674.176.176.4.264.674.264h11.25c.273 0 .498-.088.674-.264.176-.176.264-.4.264-.674 0-.273-.088-.498-.264-.674-.176-.176-.4-.264-.674-.264h-4.688v-2.813h.469c1.016 0 1.953-.146 2.813-.439.859-.293 1.699-.781 2.52-1.465.82-.684 1.465-1.729 1.934-3.135.469-1.406.703-3.105.703-5.098v-3.926c0-.273-.088-.498-.264-.674-.176-.176-.4-.264-.674-.264z"/></svg>