<svg viewBox="0 0 32 32" enable-background="new 0 0 32 32" xmlns="http://www.w3.org/2000/svg"><title>pointer</title><path d="M16.367 1c-3.086 0-5.752 1.133-7.998 3.398-2.246 2.266-3.369 4.941-3.369 8.027 0 .898.137 1.855.41 2.871.273 1.016.547 1.895.82 2.637.273.742.781 1.689 1.523 2.842.742 1.152 1.27 1.973 1.582 2.461.313.488.996 1.367 2.051 2.637 1.055 1.27 1.66 2.002 1.816 2.197.156.195.781.918 1.875 2.168.43.508.937.762 1.523.762h.059c.547 0 1.035-.254 1.465-.762 6.25-7.188 9.375-13.125 9.375-17.813 0-3.242-1.006-5.957-3.018-8.145-2.012-2.188-4.717-3.281-8.115-3.281zm.352 28.008l-.117.059-.117-.059-.469-.586c-1.367-1.523-2.422-2.754-3.164-3.691-.742-.938-1.66-2.187-2.754-3.75-1.094-1.563-1.904-3.057-2.432-4.482-.527-1.426-.791-2.783-.791-4.072 0-2.578.937-4.814 2.813-6.709 1.875-1.895 4.102-2.842 6.68-2.842 3.008 0 5.303.937 6.885 2.813 1.582 1.875 2.373 4.121 2.373 6.738 0 4.219-2.969 9.746-8.906 16.582zm-.439-22.324c-1.543 0-2.861.547-3.955 1.641-1.094 1.094-1.641 2.412-1.641 3.955 0 1.543.547 2.871 1.641 3.984 1.094 1.113 2.412 1.67 3.955 1.67 1.543 0 2.871-.557 3.984-1.67s1.67-2.441 1.67-3.984c0-1.543-.557-2.861-1.67-3.955-1.113-1.094-2.441-1.641-3.984-1.641zm0 9.375c-1.035 0-1.924-.381-2.666-1.143s-1.113-1.65-1.113-2.666.361-1.895 1.084-2.637c.723-.742 1.602-1.113 2.637-1.113s1.924.371 2.666 1.113 1.113 1.631 1.113 2.666-.361 1.924-1.084 2.666c-.723.742-1.602 1.113-2.637 1.113z"/></svg>