<svg viewBox="0 0 32 32" enable-background="new 0 0 32 32" xmlns="http://www.w3.org/2000/svg"><title>earphones</title><path d="M31 18.695c0-1.328-.059-2.52-.176-3.574-.43-3.828-2.031-6.982-4.805-9.463-2.773-2.48-6.094-3.721-9.961-3.721-3.984 0-7.412 1.367-10.283 4.102-2.871 2.734-4.404 6.152-4.6 10.254-.078.938-.117 1.66-.117 2.168v.41c-.039.195-.059.371-.059.527v8.203c0 .664.244 1.24.732 1.729.488.488 1.084.732 1.787.732h2.52c.664 0 1.24-.244 1.729-.732.488-.488.732-1.064.732-1.729v-8.145c0-.703-.244-1.299-.732-1.787s-1.064-.732-1.729-.732h-2.52c-.195 0-.371.02-.527.059v-.645c.195-3.555 1.553-6.533 4.072-8.936 2.52-2.402 5.518-3.604 8.994-3.604 3.359 0 6.26 1.084 8.701 3.252 2.441 2.168 3.838 4.912 4.189 8.232.039.273.078.84.117 1.699-.195-.039-.391-.059-.586-.059h-2.461c-.703 0-1.299.244-1.787.732s-.732 1.084-.732 1.787v8.086c0 .703.244 1.299.732 1.787s1.084.732 1.787.732h2.461c.703 0 1.299-.244 1.787-.732s.732-1.084.732-1.787v-8.086c0-.156-.02-.312-.059-.469.039-.117.059-.215.059-.293zm-27.48.117h2.52c.156 0 .293.059.41.176.117.117.176.273.176.469v8.145c0 .156-.059.293-.176.41-.117.117-.254.176-.41.176h-2.52c-.195 0-.352-.059-.469-.176-.117-.117-.176-.254-.176-.41v-8.145c0-.195.059-.352.176-.469.117-.117.273-.176.469-.176zm25.605 8.73c0 .195-.059.352-.176.469-.117.117-.273.176-.469.176h-2.461c-.195 0-.352-.059-.469-.176-.117-.117-.176-.273-.176-.469v-8.086c0-.195.059-.352.176-.469.117-.117.273-.176.469-.176h2.461c.195 0 .352.059.469.176.117.117.176.273.176.469v8.086z"/></svg>