<svg viewBox="0 0 32 32" enable-background="new 0 0 32 32" xmlns="http://www.w3.org/2000/svg"><title>magic-wand</title><path d="M30.87 13.61l-2.988-4.512 1.465-5.273c.117-.352.049-.654-.205-.908s-.557-.322-.908-.205l-5.273 1.523-4.512-3.047c-.313-.234-.625-.264-.938-.088-.313.176-.488.459-.527.85l-.176 5.449-4.277 3.34c-.273.234-.381.527-.322.879s.264.605.615.762l3.984 1.406-.059.059-15.527 15.586c-.195.156-.293.371-.293.645 0 .273.088.498.264.674.176.176.4.264.674.264.273 0 .488-.098.645-.293l15.586-15.527c.039-.039.078-.117.117-.234l1.582 4.336c.117.352.371.566.762.645h.117c.313 0 .566-.117.762-.352l3.34-4.336 5.391-.176c.352-.039.615-.215.791-.527.176-.313.146-.625-.088-.938zm-6.621-.234c-.273.039-.508.156-.703.352l-2.578 3.34-1.406-3.926c-.117-.273-.312-.469-.586-.586l-3.926-1.406 3.281-2.578c.234-.156.352-.391.352-.703l.117-4.16 3.516 2.285c.234.195.488.254.762.176l4.043-1.172-1.172 3.984c-.078.273-.039.547.117.82l2.344 3.457-4.16.117z"/></svg>