<svg viewBox="0 0 32 32" enable-background="new 0 0 32 32" xmlns="http://www.w3.org/2000/svg"><title>lock</title><path d="M24.438 12.25h-.938v-3.574c0-2.188-.713-4.014-2.139-5.479-1.426-1.465-3.223-2.197-5.391-2.197s-3.955.742-5.361 2.227c-1.406 1.484-2.109 3.301-2.109 5.449v3.574h-.938c-1.016 0-1.895.371-2.637 1.113s-1.113 1.621-1.113 2.637v11.25c0 1.016.371 1.895 1.113 2.637s1.621 1.113 2.637 1.113h16.875c1.016 0 1.895-.371 2.637-1.113s1.113-1.621 1.113-2.637v-11.25c0-1.016-.371-1.895-1.113-2.637s-1.621-1.113-2.637-1.113zm-14.063-3.574c0-1.641.518-3.018 1.553-4.131 1.035-1.113 2.383-1.67 4.043-1.67 1.66 0 3.018.557 4.072 1.67 1.055 1.113 1.582 2.49 1.582 4.131v3.574h-11.25v-3.574zm15.938 18.574c0 .508-.186.947-.557 1.318-.371.371-.811.557-1.318.557h-16.875c-.508 0-.947-.186-1.318-.557-.371-.371-.557-.811-.557-1.318v-11.25c0-.508.186-.947.557-1.318.371-.371.811-.557 1.318-.557h16.875c.508 0 .947.186 1.318.557.371.371.557.811.557 1.318v11.25zm-10.313-9.375c-.508 0-.947.186-1.318.557-.371.371-.557.811-.557 1.318 0 .703.312 1.25.938 1.641v3.047c0 .273.088.498.264.674.176.176.4.264.674.264.273 0 .498-.088.674-.264.176-.176.264-.4.264-.674v-3.047c.625-.391.938-.937.938-1.641 0-.508-.186-.947-.557-1.318-.371-.371-.811-.557-1.318-.557z"/></svg>