<svg viewBox="0 0 32 32" enable-background="new 0 0 32 32" xmlns="http://www.w3.org/2000/svg"><title>star</title><path d="M16.013 2.816l3.398 7.09.645 1.23 1.348.234 7.793 1.172-5.684 5.625-.938.938.234 1.348 1.289 7.91-6.855-3.691-1.23-.645-1.23.645-6.855 3.691 1.289-7.91.234-1.348-.938-.938-5.684-5.625 7.793-1.172 1.348-.234.645-1.23 3.398-7.09zm.029-1.816c-.918 0-1.572.41-1.963 1.23l-3.398 7.031-7.852 1.172c-.859.117-1.426.586-1.699 1.406-.273.82-.117 1.523.469 2.109l5.742 5.742-1.348 7.91c-.117.898.195 1.602.938 2.109.352.234.762.352 1.23.352.352 0 .703-.078 1.055-.234l6.797-3.691 6.797 3.691c.352.156.703.234 1.055.234.469 0 .879-.117 1.23-.352.742-.508 1.055-1.211.938-2.109l-1.348-7.91 5.742-5.742c.586-.586.742-1.289.469-2.109-.273-.82-.84-1.289-1.699-1.406l-7.852-1.172-3.398-7.031c-.352-.82-.986-1.23-1.904-1.23z"/></svg>