<svg viewBox="0 0 32 32" enable-background="new 0 0 32 32" xmlns="http://www.w3.org/2000/svg"><title>crop</title><path d="M30.063 24.438h-3.75v-17.402l3.516-3.516c.43-.43.42-.869-.029-1.318-.449-.449-.889-.439-1.318.029l-3.457 3.457h-17.461v-3.75c0-.273-.088-.498-.264-.674-.176-.176-.4-.264-.674-.264-.273 0-.498.088-.674.264-.176.176-.264.4-.264.674v3.75h-3.75c-.273 0-.498.088-.674.264-.176.176-.264.4-.264.674 0 .273.088.498.264.674.176.176.4.264.674.264h3.75v17.813l.059.234v.118c.117.234.293.41.527.527h.118l.234.059h17.813v3.75c0 .273.088.498.264.674.176.176.4.264.674.264.273 0 .498-.088.674-.264.176-.176.264-.4.264-.674v-3.75h3.75c.273 0 .498-.088.674-.264.176-.176.264-.4.264-.674 0-.273-.088-.498-.264-.674-.176-.176-.4-.264-.674-.264zm-6.914-16.875l-15.586 15.527v-15.527h15.586zm-14.238 16.875l15.527-15.527v15.527h-15.527z"/></svg>