<svg viewBox="0 0 32 32" enable-background="new 0 0 32 32" xmlns="http://www.w3.org/2000/svg"><title>addressbook</title><path d="M25.617 1h-18.691c-.664 0-1.152.195-1.465.586-.313.391-.469.84-.469 1.348v3.75h-1.055c-.234 0-.449.088-.645.264-.195.176-.293.391-.293.645s.098.469.293.645c.195.176.41.264.645.264h1.055v3.75h-.938c-.273 0-.498.098-.674.293-.176.195-.264.42-.264.674 0 .254.088.469.264.645.176.176.4.264.674.264h.938v3.75h-.996c-.234 0-.439.098-.615.293-.176.195-.264.42-.264.674 0 .254.088.469.264.645.176.176.381.264.615.264h.996v3.75h-.996c-.234 0-.439.088-.615.264-.176.176-.264.391-.264.645s.088.469.264.645c.176.176.381.264.615.264h.996v3.809c0 .703.195 1.191.586 1.465.391.273.82.41 1.289.41h18.75c.742 0 1.396-.273 1.963-.82.566-.547.85-1.211.85-1.992v-24.375c0-.781-.283-1.445-.85-1.992-.566-.547-1.221-.82-1.963-.82zm-18.75 28.125v-3.809h.938c.273 0 .498-.088.674-.264.176-.176.264-.391.264-.645s-.088-.469-.264-.645c-.176-.176-.4-.264-.674-.264h-.938v-3.75h.938c.273 0 .498-.088.674-.264.176-.176.264-.391.264-.645s-.088-.479-.264-.674c-.176-.195-.4-.293-.674-.293h-.938v-3.75h.996c.234 0 .439-.088.615-.264.176-.176.264-.391.264-.645s-.088-.479-.264-.674c-.176-.195-.381-.293-.615-.293h-.996v-3.75h.879c.273 0 .498-.088.674-.264.176-.176.264-.391.264-.645s-.088-.469-.264-.645c-.176-.176-.4-.264-.674-.264h-.879v-3.809h15v26.25h-15zm19.688-.938c0 .273-.098.498-.293.674-.195.176-.41.264-.645.264h-1.875v-26.25h1.875c.234 0 .449.088.645.264.195.176.293.4.293.674v24.375z"/></svg>