<svg viewBox="0 0 32 32" enable-background="new 0 0 32 32" xmlns="http://www.w3.org/2000/svg"><title>credit-card</title><path d="M28.188 6.156h-24.375c-.781 0-1.445.273-1.992.82-.547.547-.82 1.211-.82 1.992v14.063c0 .781.273 1.445.82 1.992.547.547 1.211.82 1.992.82h24.375c.781 0 1.445-.273 1.992-.82.547-.547.82-1.211.82-1.992v-14.063c0-.781-.273-1.445-.82-1.992-.547-.547-1.211-.82-1.992-.82zm-24.375 1.875h24.375c.273 0 .498.088.674.264.176.176.264.4.264.674v1.875h-26.25v-1.875c0-.273.088-.498.264-.674.176-.176.4-.264.674-.264zm24.375 15.938h-24.375c-.273 0-.498-.088-.674-.264-.176-.176-.264-.4-.264-.674v-8.438h26.25v8.438c0 .273-.088.498-.264.674-.176.176-.4.264-.674.264z"/></svg>