<svg viewBox="0 0 32 32" enable-background="new 0 0 32 32" xmlns="http://www.w3.org/2000/svg"><title>camera</title><path d="M28.188 7.75h-4.336l-2.227-3.75h-11.25l-2.227 3.75h-4.336c-.586 0-1.201.254-1.846.762s-.967 1.191-.967 2.051v15c0 .742.273 1.396.82 1.963.547.566 1.152.85 1.816.85h24.609c.625 0 1.24-.283 1.846-.85.605-.566.908-1.201.908-1.904v-15.059c0-.586-.254-1.201-.762-1.846s-1.191-.967-2.051-.967zm.938 17.871c0 .156-.107.342-.322.557-.215.215-.4.322-.557.322h-24.609c-.156 0-.322-.098-.498-.293-.176-.195-.264-.41-.264-.645v-15c0-.273.117-.498.352-.674.234-.176.43-.264.586-.264h5.391l.527-.938 1.699-2.813h9.199l1.699 2.813.469.938h5.391c.195 0 .371.078.527.234.156.156.264.303.322.439l.088.264v15.059zm-13.125-15.059c-1.797 0-3.34.645-4.629 1.934-1.289 1.289-1.934 2.832-1.934 4.629 0 1.797.645 3.34 1.934 4.629 1.289 1.289 2.832 1.934 4.629 1.934 1.797 0 3.34-.645 4.629-1.934 1.289-1.289 1.934-2.832 1.934-4.629 0-1.797-.645-3.34-1.934-4.629-1.289-1.289-2.832-1.934-4.629-1.934zm0 11.25c-1.289 0-2.393-.459-3.311-1.377-.918-.918-1.377-2.021-1.377-3.311 0-1.289.459-2.393 1.377-3.311.918-.918 2.021-1.377 3.311-1.377 1.289 0 2.393.459 3.311 1.377.918.918 1.377 2.021 1.377 3.311 0 1.289-.459 2.393-1.377 3.311-.918.918-2.021 1.377-3.311 1.377z"/></svg>