<svg viewBox="0 0 32 32" enable-background="new 0 0 32 32" xmlns="http://www.w3.org/2000/svg"><title>cup</title><path d="M25.375 13.188h-1.875v-1.875c0-.547-.186-.996-.557-1.348-.371-.352-.811-.527-1.318-.527h-18.75c-.508 0-.947.176-1.318.527-.371.352-.557.801-.557 1.348v14.063c0 1.563.547 2.891 1.641 3.984 1.094 1.094 2.422 1.641 3.984 1.641h11.25c1.563 0 2.891-.547 3.984-1.641 1.094-1.094 1.641-2.422 1.641-3.984v-.938h1.875c1.563 0 2.891-.547 3.984-1.641 1.094-1.094 1.641-2.412 1.641-3.955 0-1.543-.547-2.871-1.641-3.984-1.094-1.113-2.422-1.67-3.984-1.67zm-3.75 12.188c0 1.055-.361 1.943-1.084 2.666-.723.723-1.611 1.084-2.666 1.084h-11.25c-1.055 0-1.943-.361-2.666-1.084-.723-.723-1.084-1.611-1.084-2.666v-14.063h18.75v14.063zm3.75-2.813h-1.875v-7.5h1.875c1.094 0 2.002.352 2.725 1.055.723.703 1.084 1.592 1.084 2.666 0 1.074-.361 1.973-1.084 2.695-.723.723-1.631 1.084-2.725 1.084zm-7.5-15c.273 0 .498-.088.674-.264.176-.176.264-.4.264-.674v-4.688c0-.273-.088-.498-.264-.674-.176-.176-.4-.264-.674-.264-.273 0-.498.088-.674.264-.176.176-.264.4-.264.674v4.688c0 .273.088.498.264.674.176.176.4.264.674.264zm-11.25 0c.273 0 .498-.088.674-.264.176-.176.264-.4.264-.674v-4.688c0-.273-.088-.498-.264-.674-.176-.176-.4-.264-.674-.264-.273 0-.498.088-.674.264-.176.176-.264.4-.264.674v4.688c0 .273.088.498.264.674.176.176.4.264.674.264zm5.625 0c.273 0 .498-.088.674-.264.176-.176.264-.4.264-.674v-4.688c0-.273-.088-.498-.264-.674-.176-.176-.4-.264-.674-.264-.273 0-.498.088-.674.264-.176.176-.264.4-.264.674v4.688c0 .273.088.498.264.674.176.176.4.264.674.264z"/></svg>