<svg viewBox="0 0 32 32" enable-background="new 0 0 32 32" xmlns="http://www.w3.org/2000/svg"><title>user-follow</title><path d="M2.875 27.191c0-.469.254-.82.762-1.055l8.262-3.867c.625-.313.977-.811 1.055-1.494.078-.684-.137-1.24-.645-1.67-.898-.742-1.602-1.807-2.109-3.193-.508-1.387-.762-2.607-.762-3.662v-4.688c0-1.016.713-2.051 2.139-3.105 1.426-1.055 2.9-1.582 4.424-1.582 1.563 0 3.047.527 4.453 1.582 1.406 1.055 2.109 2.09 2.109 3.105v4.688c0 1.094-.234 2.324-.703 3.691s-1.152 2.422-2.051 3.164c-.547.43-.781.986-.703 1.67.078.684.43 1.182 1.055 1.494l2.813 1.348.469-1.875-2.461-1.172c1.172-.938 2.041-2.217 2.607-3.838.566-1.621.85-3.115.85-4.482v-4.688c0-1.563-.898-3.047-2.695-4.453-1.797-1.406-3.721-2.109-5.771-2.109-2.051 0-3.965.703-5.742 2.109-1.777 1.406-2.666 2.891-2.666 4.453v4.688c0 1.289.293 2.754.879 4.395.586 1.641 1.484 2.949 2.695 3.926l-8.262 3.867c-.156.039-.332.117-.527.234s-.469.342-.82.674c-.352.332-.527.654-.527.967v2.813c0 .508.186.947.557 1.318.371.371.811.557 1.318.557h20.625v-1.875h-20.625v-1.934zm27.188-1.816h-2.813v-2.813c0-.273-.088-.498-.264-.674-.176-.176-.4-.264-.674-.264-.273 0-.498.088-.674.264-.176.176-.264.4-.264.674v2.813h-2.813c-.273 0-.498.088-.674.264-.176.176-.264.4-.264.674 0 .273.088.498.264.674.176.176.4.264.674.264h2.813v2.813c0 .273.088.498.264.674.176.176.4.264.674.264.273 0 .498-.088.674-.264.176-.176.264-.4.264-.674v-2.813h2.813c.273 0 .498-.088.674-.264.176-.176.264-.4.264-.674 0-.273-.088-.498-.264-.674-.176-.176-.4-.264-.674-.264z"/></svg>