<svg viewBox="0 0 32 32" enable-background="new 0 0 32 32" xmlns="http://www.w3.org/2000/svg"><title>magnifier-add</title><path d="M30.824 29.418l-8.262-8.379c1.875-2.266 2.813-4.883 2.813-7.852 0-3.359-1.182-6.23-3.545-8.613-2.363-2.383-5.234-3.574-8.613-3.574-3.379 0-6.26 1.191-8.643 3.574-2.383 2.383-3.574 5.264-3.574 8.643 0 3.379 1.191 6.26 3.574 8.643 2.383 2.383 5.273 3.574 8.672 3.574 3.047 0 5.703-1.016 7.969-3.047l8.32 8.32c.43.43.869.43 1.318 0 .449-.43.439-.859-.029-1.289zm-17.607-5.918c-2.832 0-5.264-1.006-7.295-3.018-2.031-2.012-3.047-4.443-3.047-7.295 0-2.852 1.016-5.283 3.047-7.295 2.031-2.012 4.463-3.018 7.295-3.018s5.254 1.006 7.266 3.018c2.012 2.012 3.018 4.443 3.018 7.295 0 2.852-1.006 5.283-3.018 7.295-2.012 2.012-4.434 3.018-7.266 3.018zm4.658-11.25h-3.75v-3.75c0-.273-.088-.498-.264-.674-.176-.176-.391-.264-.645-.264s-.479.088-.674.264c-.195.176-.293.4-.293.674v3.75h-3.75c-.234 0-.449.088-.645.264-.195.176-.293.4-.293.674 0 .273.098.498.293.674.195.176.41.264.645.264h3.75v3.75c0 .273.098.498.293.674.195.176.42.264.674.264.254 0 .469-.088.645-.264.176-.176.264-.4.264-.674v-3.75h3.75c.273 0 .498-.088.674-.264.176-.176.264-.4.264-.674 0-.273-.088-.498-.264-.674-.176-.176-.4-.264-.674-.264z"/></svg>