<svg viewBox="0 0 32 32" enable-background="new 0 0 32 32" xmlns="http://www.w3.org/2000/svg"><title>graduation</title><path d="M30.004 21.391v-7.559l.469-.234c.352-.195.527-.479.527-.85s-.156-.635-.469-.791l-14.121-7.559c-.313-.156-.605-.156-.879 0l-14.063 7.559c-.313.156-.469.42-.469.791 0 .371.156.654.469.85l6.211 3.281c-.117.156-.176.312-.176.469v7.91c0 .273.117.508.352.703.195.156.479.342.85.557.371.215 1.23.469 2.578.762 1.348.293 2.9.439 4.658.439 1.758 0 3.32-.137 4.688-.41 1.367-.273 2.236-.508 2.607-.703.371-.195.654-.371.85-.527.234-.195.352-.449.352-.762v-8.145c0-.117-.02-.234-.059-.352l3.75-1.992v6.563c-.586.391-.879.937-.879 1.641 0 .508.176.947.527 1.318.352.371.791.557 1.318.557s.977-.186 1.348-.557c.371-.371.557-.811.557-1.318 0-.742-.332-1.289-.996-1.641zm-7.441 3.398c-1.445.703-3.643 1.055-6.592 1.055s-5.146-.371-6.592-1.113v-6.914l6.094 3.223c.156.078.312.117.469.117.156 0 .293-.039.41-.117l6.211-3.281v7.031zm-6.621-5.625l-12.07-6.387 12.07-6.504 12.129 6.445-12.129 6.445z"/></svg>