<svg viewBox="0 0 32 32" enable-background="new 0 0 32 32" xmlns="http://www.w3.org/2000/svg"><title>direction</title><path d="M29.286 9.73l-5.215-5.625c-.195-.195-.43-.293-.703-.293h-7.793l-.059-1.934c0-.234-.088-.439-.264-.615-.176-.176-.391-.264-.645-.264s-.469.088-.645.264c-.176.176-.264.381-.264.615v1.934h-10.371c-.234 0-.449.088-.645.264-.195.176-.293.4-.293.674v11.25c0 .273.098.498.293.674.195.176.41.264.645.264h10.313v13.184c0 .234.098.439.293.615.195.176.42.264.674.264.254 0 .469-.088.645-.264.176-.176.264-.381.264-.615v-13.184h7.852c.273 0 .508-.098.703-.293l5.215-5.625c.43-.43.43-.859 0-1.289zm-6.328 5.332h-18.691v-9.375h18.691l4.395 4.688-4.395 4.688z"/></svg>