<svg viewBox="0 0 32 32" enable-background="new 0 0 32 32" xmlns="http://www.w3.org/2000/svg"><title>control-pause</title><path d="M13.5 1h-6.563c-.273 0-.498.088-.674.264-.176.176-.264.4-.264.674v28.125c0 .273.088.498.264.674.176.176.4.264.674.264h6.563c.273 0 .498-.088.674-.264.176-.176.264-.4.264-.674v-28.125c0-.273-.088-.498-.264-.674-.176-.176-.4-.264-.674-.264zm-.938 28.125h-4.688v-26.25h4.688v26.25zm13.125-28.125h-6.563c-.234 0-.449.088-.645.264-.195.176-.293.4-.293.674v28.125c0 .273.098.498.293.674.195.176.41.264.645.264h6.563c.273 0 .498-.088.674-.264.176-.176.264-.4.264-.674v-28.125c0-.273-.088-.498-.264-.674-.176-.176-.4-.264-.674-.264zm-.938 28.125h-4.688v-26.25h4.688v26.25z"/></svg>