<svg viewBox="0 0 32 32" enable-background="new 0 0 32 32" xmlns="http://www.w3.org/2000/svg"><title>settings</title><path d="M29.125 13.188l-2.402-.586c-.156-.547-.391-1.113-.703-1.699l1.289-2.168c.703-1.094.703-1.973 0-2.637l-1.289-1.348c-.43-.352-.889-.518-1.377-.498-.488.02-.947.166-1.377.439l-2.109 1.348c-.547-.313-1.113-.566-1.699-.762l-.527-2.402c-.078-.508-.303-.947-.674-1.318-.371-.371-.811-.557-1.318-.557h-1.875c-.977 0-1.602.625-1.875 1.875l-.586 2.402c-.625.195-1.23.449-1.816.762l-2.168-1.348c-.43-.273-.898-.42-1.406-.439-.508-.02-.957.146-1.348.498l-1.289 1.348c-.703.664-.703 1.543 0 2.637l1.348 2.285c-.273.547-.488 1.074-.645 1.582l-2.402.586c-.508.078-.947.303-1.318.674-.371.371-.557.791-.557 1.26v1.875c0 .508.186.918.557 1.23.371.313.811.527 1.318.645l2.461.645c.156.469.352.957.586 1.465l-1.348 2.285c-.703 1.094-.703 1.973 0 2.637l1.289 1.348c.391.352.84.527 1.348.527.508 0 .977-.156 1.406-.469l2.168-1.348c.586.313 1.191.566 1.816.762l.586 2.402c.117.508.342.947.674 1.318.332.371.732.557 1.201.557h1.875c.508 0 .947-.186 1.318-.557.371-.371.596-.811.674-1.318l.527-2.402c.586-.195 1.152-.449 1.699-.762l2.109 1.348c.43.313.889.469 1.377.469s.947-.176 1.377-.527l1.289-1.348c.703-.664.703-1.543 0-2.637l-1.289-2.168c.273-.547.488-1.074.645-1.582l2.461-.645c.508-.117.947-.332 1.318-.645.371-.313.557-.723.557-1.23v-1.875c0-.469-.186-.889-.557-1.26-.371-.371-.811-.596-1.318-.674zm0 3.691c-.117.078-.254.137-.41.176l-3.457.879-.352.996c-.156.43-.352.879-.586 1.348l-.469.879 1.875 3.105c.078.156.137.293.176.41l-1.23 1.23c-.156-.039-.273-.078-.352-.117l-3.047-1.934-.996.469c-.43.234-.898.43-1.406.586l-.996.352-.762 3.457c-.039.195-.117.332-.234.41h-1.699c-.078-.117-.137-.254-.176-.41l-.82-3.457-.996-.293c-.547-.195-1.055-.41-1.523-.645l-.996-.527-3.105 1.934c-.117.117-.234.176-.352.176l-1.23-1.23c.039-.117.098-.254.176-.41l1.934-3.164-.469-.938c-.234-.43-.41-.84-.527-1.23l-.293-.996-3.457-.879c-.195-.039-.352-.098-.469-.176v-1.758h.059c.117-.078.195-.117.234-.117l3.574-.762.293-1.055c.156-.43.352-.879.586-1.348l.469-.938-1.934-3.164c-.078-.156-.137-.293-.176-.41l1.23-1.23c.156.039.254.078.293.117l3.164 1.992.996-.527c.469-.234.957-.43 1.465-.586l.996-.352.879-3.398c.039-.195.098-.352.176-.469h1.758l.059.059.059.234.82 3.574.996.352c.469.156.937.352 1.406.586l.996.469 2.988-1.875c.156-.117.293-.176.41-.176l1.23 1.23c-.039.117-.098.254-.176.41l-1.875 3.105.469.938c.273.469.488.937.645 1.406l.293 1.055 3.457.762c.234.039.371.117.41.234v1.641zm-13.125-6.504c-1.563 0-2.891.547-3.984 1.641-1.094 1.094-1.641 2.422-1.641 3.984 0 1.563.547 2.891 1.641 3.984 1.094 1.094 2.422 1.641 3.984 1.641 1.563 0 2.9-.547 4.014-1.641 1.113-1.094 1.67-2.422 1.67-3.984 0-1.563-.557-2.891-1.67-3.984-1.113-1.094-2.451-1.641-4.014-1.641zm0 9.375c-1.016 0-1.895-.371-2.637-1.113s-1.113-1.621-1.113-2.637.371-1.895 1.113-2.637 1.621-1.113 2.637-1.113 1.895.371 2.637 1.113 1.113 1.621 1.113 2.637-.371 1.895-1.113 2.637-1.621 1.113-2.637 1.113z"/></svg>