<svg viewBox="0 0 32 32" enable-background="new 0 0 32 32" xmlns="http://www.w3.org/2000/svg"><title>pin</title><path d="M30.702 12.137l-10.781-10.84c-.234-.273-.527-.361-.879-.264-.352.098-.566.303-.645.615-.664 2.109-.742 4.023-.234 5.742l-.117.117-5.039 4.98c-1.641-.781-3.34-1.172-5.098-1.172-1.094 0-2.168.176-3.223.527-.313.078-.518.293-.615.645-.098.352-.01.645.264.879l6.387 6.445-8.965 9.141-.762 2.051 1.875-.762 9.199-9.082 6.504 6.563c.156.156.371.234.645.234h.234c.352-.078.566-.293.645-.645.859-2.773.664-5.547-.586-8.32l5.156-5.098v-.059c.82.234 1.621.352 2.402.352 1.133 0 2.227-.176 3.281-.527.313-.078.518-.293.615-.645.098-.352.01-.645-.264-.879zm-12.012 13.008l-11.836-11.895c1.523-.156 3.057.049 4.6.615 1.543.566 2.9 1.455 4.072 2.666 1.172 1.133 2.031 2.471 2.578 4.014.547 1.543.742 3.076.586 4.6zm-.117-7.852c-.508-.781-1.084-1.494-1.729-2.139-.645-.645-1.357-1.221-2.139-1.729l4.219-4.219c.43.742.996 1.465 1.699 2.168.664.703 1.387 1.27 2.168 1.699l-4.219 4.219zm3.34-7.266c-1.758-1.758-2.461-3.828-2.109-6.211l8.379 8.437c-2.344.352-4.434-.391-6.27-2.227z"/></svg>