<svg viewBox="0 0 32 32" enable-background="new 0 0 32 32" xmlns="http://www.w3.org/2000/svg"><title>close</title><path d="M16 1c-4.141 0-7.676 1.465-10.605 4.395-2.93 2.93-4.395 6.465-4.395 10.605 0 4.141 1.465 7.676 4.395 10.605 2.93 2.93 6.465 4.395 10.605 4.395 4.141 0 7.676-1.465 10.605-4.395 2.93-2.93 4.395-6.465 4.395-10.605 0-4.141-1.465-7.676-4.395-10.605-2.93-2.93-6.465-4.395-10.605-4.395zm0 28.184c-3.633 0-6.729-1.289-9.287-3.867-2.559-2.578-3.838-5.684-3.838-9.316 0-3.633 1.279-6.729 3.838-9.287 2.559-2.559 5.654-3.838 9.287-3.838 3.633 0 6.729 1.279 9.287 3.838 2.559 2.559 3.838 5.654 3.838 9.287 0 3.633-1.279 6.738-3.838 9.316-2.559 2.578-5.654 3.867-9.287 3.867zm5.303-18.486c-.449-.449-.889-.459-1.318-.029l-3.984 3.984-3.984-3.984c-.43-.43-.869-.42-1.318.029-.449.449-.459.889-.029 1.318l3.984 3.984-3.984 3.984c-.43.43-.42.869.029 1.318.449.449.889.459 1.318.029l3.984-3.984 3.984 3.984c.43.43.869.42 1.318-.029.449-.449.459-.889.029-1.318l-3.984-3.984 3.984-3.984c.43-.43.42-.869-.029-1.318z"/></svg>