<svg viewBox="0 0 32 32" enable-background="new 0 0 32 32" xmlns="http://www.w3.org/2000/svg"><title>pie-chart</title><path d="M17.875 3.754c-.273 0-.498.088-.674.264-.176.176-.264.391-.264.645s.088.479.264.674c.176.195.4.293.674.293 3.281 0 5.977 1.074 8.086 3.223 2.109 2.148 3.164 4.902 3.164 8.262 0 3.32-1.172 6.152-3.516 8.496-2.344 2.344-5.176 3.516-8.496 3.516-3.32 0-6.064-1.074-8.232-3.223-2.168-2.148-3.252-4.883-3.252-8.203 0-.273-.098-.498-.293-.674-.195-.176-.42-.264-.674-.264-.254 0-.469.088-.645.264-.176.176-.264.4-.264.674 0 3.828 1.26 7.002 3.779 9.521 2.52 2.52 5.703 3.779 9.551 3.779s7.129-1.357 9.844-4.072 4.072-5.986 4.072-9.814c0-3.867-1.23-7.061-3.691-9.58-2.461-2.52-5.605-3.779-9.434-3.779zm-2.813 10.371v-12.188c0-.273-.088-.498-.264-.674-.176-.176-.4-.264-.674-.264-3.633 0-6.729 1.279-9.287 3.838-2.559 2.559-3.838 5.654-3.838 9.287 0 .273.088.498.264.674.176.176.4.264.674.264h12.188c.273 0 .498-.088.674-.264.176-.176.264-.4.264-.674zm-1.875-.938h-10.254c.195-2.773 1.26-5.127 3.193-7.061 1.934-1.934 4.287-2.998 7.061-3.193v10.254z"/></svg>