<svg viewBox="0 0 32 32" enable-background="new 0 0 32 32" xmlns="http://www.w3.org/2000/svg"><title>equalizer</title><path d="M5.688 12.367v-10.43c0-.273-.088-.498-.264-.674-.176-.176-.4-.264-.674-.264-.273 0-.498.088-.674.264-.176.176-.264.4-.264.674v10.43c-.82.195-1.494.635-2.021 1.318-.527.684-.791 1.455-.791 2.314s.264 1.631.791 2.314c.527.684 1.201 1.123 2.021 1.318v10.43c0 .273.088.498.264.674.176.176.4.264.674.264.273 0 .498-.088.674-.264.176-.176.264-.4.264-.674v-10.43c.82-.195 1.494-.635 2.021-1.318.527-.684.791-1.455.791-2.314s-.264-1.631-.791-2.314c-.527-.684-1.201-1.123-2.021-1.318zm-.938 5.508c-.508 0-.947-.186-1.318-.557-.371-.371-.557-.811-.557-1.318 0-.508.186-.947.557-1.318.371-.371.811-.557 1.318-.557.508 0 .947.186 1.318.557.371.371.557.811.557 1.318 0 .508-.186.947-.557 1.318-.371.371-.811.557-1.318.557zm12.188.117v-16.055c0-.273-.088-.498-.264-.674-.176-.176-.4-.264-.674-.264-.273 0-.498.088-.674.264-.176.176-.264.4-.264.674v16.055c-.82.195-1.494.635-2.021 1.318-.527.684-.791 1.455-.791 2.314s.264 1.631.791 2.314c.527.684 1.201 1.123 2.021 1.318v4.805c0 .273.088.498.264.674.176.176.4.264.674.264.273 0 .498-.088.674-.264.176-.176.264-.4.264-.674v-4.805c.82-.195 1.494-.635 2.021-1.318.527-.684.791-1.455.791-2.314s-.264-1.631-.791-2.314c-.527-.684-1.201-1.123-2.021-1.318zm-.938 5.508c-.508 0-.947-.186-1.318-.557-.371-.371-.557-.811-.557-1.318 0-.508.186-.947.557-1.318.371-.371.811-.557 1.318-.557.508 0 .947.186 1.318.557.371.371.557.811.557 1.318 0 .508-.186.947-.557 1.318-.371.371-.811.557-1.318.557zm12.188-16.758v-4.805c0-.273-.088-.498-.264-.674-.176-.176-.4-.264-.674-.264-.273 0-.498.088-.674.264-.176.176-.264.4-.264.674v4.805c-.82.195-1.494.635-2.021 1.318-.527.684-.791 1.455-.791 2.314s.264 1.631.791 2.314c.527.684 1.201 1.123 2.021 1.318v16.055c0 .273.088.498.264.674.176.176.4.264.674.264.273 0 .498-.088.674-.264.176-.176.264-.4.264-.674v-16.055c.82-.195 1.494-.635 2.021-1.318.527-.684.791-1.455.791-2.314s-.264-1.631-.791-2.314c-.527-.684-1.201-1.123-2.021-1.318zm-.938 5.508c-.508 0-.947-.186-1.318-.557-.371-.371-.557-.811-.557-1.318 0-.508.186-.947.557-1.318.371-.371.811-.557 1.318-.557.508 0 .947.186 1.318.557.371.371.557.811.557 1.318 0 .508-.186.947-.557 1.318-.371.371-.811.557-1.318.557z"/></svg>