<svg viewBox="0 0 32 32" enable-background="new 0 0 32 32" xmlns="http://www.w3.org/2000/svg"><title>loop</title><path d="M2.875 4c-.508 0-.947.186-1.318.557-.371.371-.557.811-.557 1.318v16.875c0 .508.186.947.557 1.318.371.371.811.557 1.318.557h4.688c.273 0 .498-.127.674-.381.176-.254.264-.449.264-.586 0-.137-.088-.322-.264-.557-.176-.234-.4-.352-.674-.352h-3.516c-.313 0-.586-.117-.82-.352-.234-.234-.352-.508-.352-.82v-14.531c0-.313.107-.576.322-.791.215-.215.498-.322.85-.322l23.965-.059c.313 0 .576.107.791.322.215.215.322.479.322.791v14.59c0 .313-.107.586-.322.82-.215.234-.479.352-.791.352h-11.836l2.227-2.051c.352-.352.391-.664.117-.938l-.176-.234c-.352-.313-.684-.313-.996 0l-3.809 3.457-.234.234c-.156.156-.234.322-.234.498s.078.342.234.498l.234.234 3.75 3.398c.313.313.645.313.996 0l.176-.234c.273-.313.234-.625-.117-.938l-2.285-2.051h13.066c.508 0 .947-.186 1.318-.557.371-.371.557-.811.557-1.318v-16.875c0-.508-.186-.947-.557-1.318-.371-.371-.811-.557-1.318-.557h-26.25z"/></svg>