<svg viewBox="0 0 32 32" enable-background="new 0 0 32 32" xmlns="http://www.w3.org/2000/svg"><title>flag</title><path d="M21.047 3.813c-1.289 0-2.51-.234-3.662-.703-1.152-.469-2.393-.937-3.721-1.406-1.328-.469-2.832-.703-4.512-.703-1.133 0-2.207.234-3.223.703s-1.758.957-2.227 1.465l-.703.703v26.191c0 .273.088.498.264.674.176.176.4.264.674.264.273 0 .498-.088.674-.264.176-.176.264-.4.264-.674v-11.953c1.25-.781 2.598-1.172 4.043-1.172 1.68 0 3.223.234 4.629.703 1.406.469 2.725.937 3.955 1.406 1.23.469 2.49.703 3.779.703 1.406 0 2.773-.234 4.102-.703 1.328-.469 2.305-.937 2.93-1.406l.938-.703v-15.938c-.273.195-.645.449-1.113.762-.469.313-1.416.732-2.842 1.26-1.426.527-2.842.791-4.248.791zm6.328 12.129c-1.953 1.289-3.984 1.934-6.094 1.934-1.211 0-2.773-.391-4.688-1.172-2.773-1.094-5.332-1.641-7.676-1.641-1.406 0-2.754.312-4.043.938v-11.367c1.289-1.172 2.715-1.758 4.277-1.758 1.836 0 3.828.449 5.977 1.348 2.227.977 4.199 1.465 5.918 1.465 2.109 0 4.219-.488 6.328-1.465v11.719z"/></svg>