<svg viewBox="0 0 32 32" enable-background="new 0 0 32 32" xmlns="http://www.w3.org/2000/svg"><title>graph</title><path d="M26.986 8.674c-.449.449-.674 1.006-.674 1.67 0 .234.039.488.117.762l-5.684 4.922c-.43-.352-.918-.527-1.465-.527-.625 0-1.172.215-1.641.645l-4.453-2.227c-.039-.586-.283-1.094-.732-1.523-.449-.43-.986-.645-1.611-.645-.664 0-1.221.225-1.67.674-.449.449-.674 1.006-.674 1.67 0 .352.078.684.234.996l-4.57 5.273c-.273-.117-.547-.176-.82-.176-.664 0-1.221.225-1.67.674-.449.449-.674 1.006-.674 1.67 0 .664.225 1.221.674 1.67.449.449 1.006.674 1.67.674.664 0 1.221-.225 1.67-.674.449-.449.674-1.006.674-1.67 0-.313-.059-.605-.176-.879l4.629-5.332c.273.078.508.117.703.117.664 0 1.23-.254 1.699-.762l4.395 2.168c0 .664.234 1.221.703 1.67.469.449 1.016.674 1.641.674.664 0 1.221-.225 1.67-.674.449-.449.674-1.006.674-1.67v-.118l6.094-5.215c.313.117.625.176.938.176.664 0 1.221-.225 1.67-.674.449-.449.674-1.006.674-1.67 0-.664-.225-1.221-.674-1.67-.449-.449-1.006-.674-1.67-.674-.664 0-1.221.225-1.67.674z"/></svg>