<svg viewBox="0 0 32 32" enable-background="new 0 0 32 32" xmlns="http://www.w3.org/2000/svg"><title>speedometer</title><path d="M16 2.055c-4.141 0-7.676 1.465-10.605 4.395-2.93 2.93-4.395 6.465-4.395 10.605 0 2.578.625 4.99 1.875 7.236 1.25 2.246 2.969 4.053 5.156 5.42.234.156.479.205.732.146.254-.059.449-.195.586-.41.137-.215.176-.449.117-.703-.059-.254-.205-.459-.439-.615-1.563-.977-2.852-2.227-3.867-3.75l.938-.586c.234-.117.391-.303.469-.557.078-.254.049-.488-.088-.703-.137-.215-.332-.361-.586-.439-.254-.078-.498-.039-.732.117l-.938.527c-.742-1.484-1.172-3.066-1.289-4.746h1.055c.234 0 .449-.098.645-.293.195-.195.293-.42.293-.674 0-.254-.098-.469-.293-.645-.195-.176-.41-.264-.645-.264h-1.055c.117-1.719.547-3.34 1.289-4.863l.938.527c.156.117.312.176.469.176.391 0 .664-.156.82-.469.156-.234.195-.479.117-.732-.078-.254-.234-.439-.469-.557l-.938-.527c.977-1.406 2.148-2.578 3.516-3.516l.527.938c.195.313.469.469.82.469.195 0 .352-.039.469-.117.234-.156.381-.361.439-.615.059-.254.029-.479-.088-.674l-.527-.938c1.484-.703 3.066-1.113 4.746-1.23v1.172c0 .234.088.449.264.645.176.195.391.293.645.293s.479-.098.674-.293c.195-.195.293-.41.293-.645v-1.172c1.68.117 3.281.547 4.805 1.289l-.527.879c-.117.195-.146.42-.088.674.059.254.205.459.439.615.156.078.312.117.469.117.352 0 .625-.156.82-.469l.527-.879c1.367.938 2.52 2.09 3.457 3.457l-.879.527c-.234.117-.381.303-.439.557-.059.254-.029.498.088.732.195.313.469.469.82.469.156 0 .312-.059.469-.176l.879-.469c.742 1.523 1.172 3.125 1.289 4.805h-1.055c-.234 0-.449.088-.645.264-.195.176-.293.4-.293.674 0 .273.098.498.293.674.195.176.41.264.645.264h1.055c-.117 1.68-.527 3.262-1.23 4.746l-.938-.527c-.234-.156-.479-.195-.732-.117-.254.078-.439.225-.557.439-.117.215-.146.449-.088.703.059.254.205.439.439.557l.938.527c-1.055 1.602-2.402 2.891-4.043 3.867-.195.156-.332.361-.41.615-.078.254-.039.479.117.674.195.313.469.469.82.469.156 0 .312-.039.469-.117 2.227-1.406 3.975-3.232 5.244-5.479 1.27-2.246 1.904-4.678 1.904-7.295 0-4.141-1.465-7.676-4.395-10.605-2.93-2.93-6.465-4.395-10.605-4.395zm6.914 12.07c.234-.117.381-.303.439-.557.059-.254.029-.498-.088-.732-.117-.234-.303-.381-.557-.439-.254-.059-.498-.029-.732.088l-5.098 2.93c-.273-.156-.566-.234-.879-.234-.547 0-.996.186-1.348.557-.352.371-.527.811-.527 1.318 0 .508.176.947.527 1.318.352.371.791.557 1.318.557s.967-.186 1.318-.557c.352-.371.527-.811.527-1.318l5.098-2.93z"/></svg>