<svg viewBox="0 0 32 32" enable-background="new 0 0 32 32" xmlns="http://www.w3.org/2000/svg"><title>size-fullscreen</title><path d="M21.098 12.25l8.086-8.027-.059 4.512c0 .195.068.361.205.498.137.137.303.205.498.205h.469c.469 0 .703-.195.703-.586v-7.149c0-.195-.059-.352-.176-.469-.117-.117-.273-.176-.469-.176h-.352l-6.738-.059c-.156 0-.303.068-.439.205-.137.137-.225.303-.264.498v.527c.078.469.352.684.82.645l4.395.059-8.027 7.969c-.43.43-.42.869.029 1.318.449.449.889.459 1.318.029zm-10.137 7.5l-8.086 8.027v-4.512c0-.195-.059-.361-.176-.498-.117-.137-.273-.205-.469-.205h-.527c-.469 0-.703.195-.703.586v7.149c0 .195.039.352.117.469.156.117.332.176.527.176h.352l6.738.059c.195 0 .361-.068.498-.205.137-.137.205-.303.205-.498v-.527c-.039-.469-.293-.684-.762-.645l-4.453-.059 8.027-7.969c.43-.43.43-.869 0-1.318-.43-.449-.859-.459-1.289-.029zm20.039 10.195v-6.797c0-.391-.234-.586-.703-.586h-.469c-.195 0-.361.068-.498.205-.137.137-.205.303-.205.498l.059 4.512-8.086-8.027c-.43-.43-.869-.42-1.318.029-.449.449-.459.889-.029 1.318l8.027 7.969-4.395.059c-.469-.039-.742.176-.82.645v.527c.039.195.127.361.264.498s.283.205.439.205l6.738-.059h.352c.195 0 .371-.059.527-.176.078-.117.117-.273.117-.469v-.352zm-26.777-27.012l4.453-.059c.469.039.723-.176.762-.645v-.527c0-.195-.068-.361-.205-.498-.137-.137-.303-.205-.498-.205l-6.738.059h-.352c-.195 0-.371.059-.527.176-.078.117-.117.273-.117.469v7.149c0 .391.234.586.703.586h.527c.195 0 .352-.068.469-.205.117-.137.176-.303.176-.498v-4.512l8.086 8.027c.43.43.859.42 1.289-.029.43-.449.43-.889 0-1.318l-8.027-7.969z"/></svg>