<svg viewBox="0 0 32 32" enable-background="new 0 0 32 32" xmlns="http://www.w3.org/2000/svg"><title>user-unfollow</title><path d="M24.438 12.25v-4.688c0-1.563-.898-3.047-2.695-4.453-1.797-1.406-3.721-2.109-5.771-2.109-2.051 0-3.965.703-5.742 2.109-1.777 1.406-2.666 2.891-2.666 4.453v4.688c0 1.289.293 2.754.879 4.395.586 1.641 1.465 2.93 2.637 3.867l-8.203 3.926c-.156.039-.332.117-.527.234s-.469.342-.82.674c-.352.332-.527.654-.527.967v2.813c0 .508.176.947.527 1.318.352.371.801.557 1.348.557h17.813v-1.875h-17.813v-1.934c0-.469.254-.82.762-1.055l8.262-3.867c.625-.313.977-.811 1.055-1.494.078-.684-.156-1.24-.703-1.67-.898-.742-1.592-1.807-2.08-3.193-.488-1.387-.732-2.607-.732-3.662v-4.688c0-1.016.703-2.051 2.109-3.105 1.406-1.055 2.891-1.582 4.453-1.582 1.523 0 2.998.527 4.424 1.582 1.426 1.055 2.139 2.09 2.139 3.105v4.688c0 1.094-.234 2.324-.703 3.691s-1.172 2.422-2.109 3.164c-.547.43-.771.986-.674 1.67.098.684.459 1.182 1.084 1.494l.527.234.82-1.523-.586-.41c1.172-.938 2.051-2.217 2.637-3.838.586-1.621.879-3.115.879-4.482zm3.633 14.473l2.695-2.637c.43-.43.42-.869-.029-1.318-.449-.449-.889-.439-1.318.029l-2.637 2.637-2.695-2.637c-.43-.469-.869-.479-1.318-.029-.449.449-.439.889.029 1.318l2.637 2.637-2.637 2.695c-.469.43-.479.869-.029 1.318.449.449.889.439 1.318-.029l2.695-2.637 2.637 2.637c.43.469.869.479 1.318.029.449-.449.459-.889.029-1.318l-2.695-2.695z"/></svg>