<svg viewBox="0 0 32 32" enable-background="new 0 0 32 32" xmlns="http://www.w3.org/2000/svg"><title>shuffle</title><path d="M12.748 13.598l1.172-1.641-3.926-5.332h-8.965v1.875h7.969l3.75 5.098zm15.117-5.098l-2.227 1.992c-.391.352-.43.684-.117.996l.176.234c.313.313.645.313.996 0l3.75-3.398.234-.234c.156-.156.234-.322.234-.498s-.078-.342-.234-.498l-.234-.234-3.809-3.457c-.352-.313-.684-.313-.996 0l-.176.234c-.313.273-.273.586.117.938l2.227 2.051h-6.797l-12.012 16.875h-7.969v1.875h8.965l11.953-16.875h5.918zm2.578 15.234l-3.809-3.457c-.352-.313-.684-.313-.996 0l-.176.234c-.313.273-.273.586.117.938l2.227 2.051h-5.859l-3.34-5.215-1.172 1.641 3.574 5.449h6.855l-2.227 1.992c-.391.352-.43.684-.117.996l.176.234c.313.313.645.313.996 0l3.75-3.398.234-.234c.156-.156.234-.322.234-.498s-.078-.342-.234-.498l-.234-.234z"/></svg>