<svg viewBox="0 0 32 32" enable-background="new 0 0 32 32" xmlns="http://www.w3.org/2000/svg"><title>power</title><path d="M21.755 5.805c-.234-.117-.479-.127-.732-.029-.254.098-.43.264-.527.498-.098.234-.107.469-.029.703.078.234.234.41.469.527 2.383 1.133 4.16 2.861 5.332 5.186 1.172 2.324 1.484 4.775.938 7.354-.625 3.047-2.246 5.439-4.863 7.178-2.617 1.738-5.449 2.275-8.496 1.611-2.969-.586-5.312-2.187-7.031-4.805-1.758-2.617-2.305-5.469-1.641-8.555.352-1.758 1.074-3.33 2.168-4.717 1.094-1.387 2.441-2.471 4.043-3.252.234-.117.4-.293.498-.527.098-.234.088-.469-.029-.703-.117-.234-.293-.4-.527-.498-.234-.098-.469-.088-.703.029-1.914.898-3.506 2.158-4.775 3.779-1.27 1.621-2.119 3.467-2.549 5.537-.742 3.555-.098 6.855 1.934 9.902 2.031 3.086 4.785 4.98 8.262 5.684.859.156 1.738.234 2.637.234 3.086 0 5.85-.977 8.291-2.93 2.441-1.953 3.994-4.492 4.658-7.617.625-2.969.254-5.82-1.113-8.555-1.367-2.734-3.437-4.746-6.211-6.035zm-5.566 7.383c.273 0 .498-.088.674-.264.176-.176.264-.4.264-.674v-10.313c0-.273-.088-.498-.264-.674-.176-.176-.4-.264-.674-.264-.273 0-.498.088-.674.264-.176.176-.264.4-.264.674v10.313c0 .273.088.498.264.674.176.176.4.264.674.264z"/></svg>