<svg viewBox="0 0 32 32" enable-background="new 0 0 32 32" xmlns="http://www.w3.org/2000/svg"><title>diamond</title><path d="M30.824 9.672l-4.102-7.852c-.273-.547-.723-.82-1.348-.82h-18.751c-.625 0-1.094.273-1.406.82l-4.043 7.676c-.313.547-.273 1.074.117 1.582l14.063 19.629c.117.195.283.293.498.293.215 0 .4-.098.557-.293l14.297-19.453c.391-.508.43-1.035.117-1.582zm-2.227-.234h-5.039l2.051-5.742 2.988 5.742zm-10.723-6.563h6.035l-1.875 5.332-4.16-5.332zm2.695 6.563h-8.73l4.16-5.918 4.57 5.918zm-10.371-.879l-1.875-5.684h5.801l-3.926 5.684zm10.723 2.754l-5.039 14.414-4.746-14.414h9.785zm-7.148 14.063l-10.078-14.063h5.449l4.629 14.063zm9.141-14.063h5.449l-10.371 14.063 4.922-14.063zm-16.406-7.91l1.992 6.035h-5.156l3.164-6.035z"/></svg>