<svg viewBox="0 0 32 32" enable-background="new 0 0 32 32" xmlns="http://www.w3.org/2000/svg"><title>envelope-letter</title><path d="M31 14.887c-.039-.352-.156-.664-.352-.938h-.059c-.078-.117-.176-.234-.293-.352l-4.922-4.922v-3.047c0-.234-.088-.449-.264-.645-.176-.195-.4-.293-.674-.293h-2.988l-3.398-2.871c-.547-.547-1.211-.82-1.992-.82-.781 0-1.445.273-1.992.82l-3.398 2.871h-3.105c-.273 0-.498.098-.674.293-.176.195-.264.41-.264.645v3.105l-4.805 4.805c-.547.352-.82.859-.82 1.523v14.063c0 .508.186.947.557 1.318.371.371.811.557 1.318.557h26.25c.508 0 .947-.186 1.318-.557.371-.371.557-.811.557-1.318v-14.238zm-22.148 7.383l-5.977 5.566v-10.898l5.977 5.332zm1.816.879c.156-.078.273-.156.352-.234l.117-.176 4.043-3.75c.234-.195.469-.293.703-.293.313 0 .566.078.762.234l11.25 10.195h-23.672l6.445-5.977zm12.539-.762l5.918-5.273v10.605l-5.918-5.332zm4.102-9.199h-.059l1.641 1.641-3.516 3.105v-6.68l1.934 1.934zm-11.895-10.078c.156-.195.371-.293.645-.293.273 0 .488.098.645.293l1.934 1.582h-5.156l1.934-1.582zm8.086 3.457v13.066l-1.699 1.465-3.984-3.633c-.547-.43-1.182-.645-1.904-.645-.723 0-1.377.234-1.963.703l-3.691 3.457-1.758-1.582v-12.832h15zm-19.453 7.383l2.578-2.578v6.387l-3.398-2.988.762-.82h.059z"/></svg>