<svg viewBox="0 0 32 32" enable-background="new 0 0 32 32" xmlns="http://www.w3.org/2000/svg"><title>share</title><path d="M26.313 21.625c-1.563 0-2.812.625-3.75 1.875l-12.363-6.27c.117-.43.176-.84.176-1.23 0-.508-.078-1.016-.234-1.523l12.363-6.035c.938 1.289 2.207 1.934 3.809 1.934 1.289 0 2.393-.459 3.311-1.377.918-.918 1.377-2.021 1.377-3.311 0-1.289-.459-2.393-1.377-3.311-.918-.918-2.021-1.377-3.311-1.377-1.289 0-2.393.459-3.311 1.377-.918.918-1.377 2.021-1.377 3.311 0 .352.039.703.117 1.055l-12.598 6.094c-.938-1.016-2.09-1.523-3.457-1.523-1.289 0-2.393.459-3.311 1.377-.918.918-1.377 2.021-1.377 3.311 0 1.289.459 2.393 1.377 3.311.918.918 2.021 1.377 3.311 1.377 1.523 0 2.754-.586 3.691-1.758l12.363 6.27c-.078.391-.117.762-.117 1.113 0 1.289.459 2.393 1.377 3.311.918.918 2.021 1.377 3.311 1.377 1.289 0 2.393-.459 3.311-1.377.918-.918 1.377-2.021 1.377-3.311 0-1.289-.459-2.393-1.377-3.311-.918-.918-2.021-1.377-3.311-1.377zm0-18.75c.781 0 1.445.273 1.992.82.547.547.82 1.211.82 1.992 0 .781-.273 1.445-.82 1.992-.547.547-1.211.82-1.992.82-.781 0-1.445-.273-1.992-.82-.547-.547-.82-1.211-.82-1.992 0-.781.273-1.445.82-1.992.547-.547 1.211-.82 1.992-.82zm-20.625 15.938c-.781 0-1.445-.273-1.992-.82-.547-.547-.82-1.211-.82-1.992 0-.781.273-1.445.82-1.992.547-.547 1.211-.82 1.992-.82.781 0 1.445.273 1.992.82.547.547.82 1.211.82 1.992 0 .781-.273 1.445-.82 1.992-.547.547-1.211.82-1.992.82zm20.625 10.313c-.781 0-1.445-.273-1.992-.82-.547-.547-.82-1.211-.82-1.992 0-.781.273-1.445.82-1.992.547-.547 1.211-.82 1.992-.82.781 0 1.445.273 1.992.82.547.547.82 1.211.82 1.992 0 .781-.273 1.445-.82 1.992-.547.547-1.211.82-1.992.82z"/></svg>