<svg viewBox="0 0 30 28" xmlns="http://www.w3.org/2000/svg"><path d="M12.422 18.922c3.438 0 6.299-.898 8.584-2.695 2.285-1.797 3.408-4.102 3.369-6.914 0-2.539-1.182-4.697-3.545-6.475-2.363-1.777-5.225-2.666-8.584-2.666-3.398 0-6.289.889-8.672 2.666-2.383 1.777-3.574 3.936-3.574 6.475 0 1.68.41 3.262 1.23 4.746.82 1.484 2.012 2.637 3.574 3.457h-.059c0 .859-.527 2.207-1.582 4.043-.039.117-.059.215-.059.293 0 .195.068.361.205.498.137.137.303.205.498.205h.176c1.055-.195 2.305-.752 3.75-1.67 1.445-.918 2.363-1.611 2.754-2.08.391.078.84.117 1.348.117h.587zm14.121-7.969c-.018.275-1.699 5.15-5.391 7.404-4.18 2.552-10.43 2.499-10.43 2.499 1.992 2.5 4.883 3.75 8.672 3.75h.586c.43 0 .82-.039 1.172-.117.391.508 1.104 1.152 2.139 1.934 1.035.781 2.002 1.25 2.9 1.406h.176c.391 0 .586-.195.586-.586 0-.078-.02-.156-.059-.234-.195-.391-.41-.986-.645-1.787-.234-.801-.352-1.475-.352-2.021v-.059c2.734-1.406 4.102-3.496 4.102-6.27.001-2.579-1.151-4.552-3.456-5.919z" fill="#000"/></svg>