<svg viewBox="0 0 32 32" enable-background="new 0 0 32 32" xmlns="http://www.w3.org/2000/svg"><title>map</title><path d="M30.121 4.984l-9.434-3.926-9.375 3.691-9.434-3.691c-.039-.039-.117-.059-.234-.059-.43 0-.645.254-.645.762v24.316c0 .234.088.469.264.703.176.234.381.391.615.469l9.492 3.75 9.316-3.809 9.434 3.691h.234c.43 0 .645-.234.645-.703v-24.023c0-.273-.088-.527-.264-.762-.176-.234-.381-.371-.615-.41zm-17.871 1.348l7.5-2.988v22.324l-7.5 2.988v-22.324zm-9.375-2.813l7.5 2.813v22.324l-7.5-3.105v-22.031zm26.25 24.961l-7.5-2.813v-22.266l7.5 3.223v21.855z"/></svg>