<svg viewBox="0 0 32 32" enable-background="new 0 0 32 32" xmlns="http://www.w3.org/2000/svg"><title>folder-alt</title><path d="M29.125 7.094h-14.063l-2.813-2.813h-9.375c-.508 0-.947.186-1.318.557-.371.371-.557.811-.557 1.318v19.688c0 .508.186.947.557 1.318.371.371.811.557 1.318.557h26.25c.508 0 .947-.186 1.318-.557.371-.371.557-.811.557-1.318v-16.875c0-.508-.186-.947-.557-1.318-.371-.371-.811-.557-1.318-.557zm-26.25-.938h8.496l2.344 2.285.586.527h14.824v1.875h-26.25v-4.688zm0 19.688v-13.125h26.25v13.125h-26.25z"/></svg>