<svg viewBox="0 0 32 32" enable-background="new 0 0 32 32" xmlns="http://www.w3.org/2000/svg"><title>symbol-male</title><path d="M31 1.645c0-.195-.059-.352-.176-.469-.156-.117-.312-.176-.469-.176h-8.966c-.195 0-.361.068-.498.205-.137.137-.205.283-.205.439v.527c.039.469.293.703.762.703h6.328l-7.5 7.441c-2.188-1.836-4.707-2.754-7.559-2.754-3.203 0-5.957 1.152-8.262 3.457-2.305 2.305-3.457 5.068-3.457 8.291 0 3.223 1.152 5.977 3.457 8.262 2.305 2.285 5.068 3.428 8.291 3.428 3.223 0 5.977-1.143 8.262-3.428s3.428-5.049 3.428-8.291c0-2.891-.937-5.43-2.813-7.617l7.5-7.5-.059 6.445c0 .156.068.312.205.469.137.156.303.215.498.176h.469c.469 0 .703-.195.703-.586v-8.672l.059-.352zm-8.379 17.666c0 2.715-.967 5.039-2.9 6.973-1.934 1.934-4.258 2.9-6.973 2.9s-5.039-.967-6.973-2.9c-1.934-1.934-2.9-4.258-2.9-6.973s.967-5.039 2.9-6.973c1.934-1.934 4.258-2.9 6.973-2.9s5.039.967 6.973 2.9c1.934 1.934 2.9 4.258 2.9 6.973z"/></svg>