<svg viewBox="0 0 32 32" enable-background="new 0 0 32 32" xmlns="http://www.w3.org/2000/svg"><title>plane</title><path d="M28.363 2.875c.273 0 .488.039.645.117.156.078.166.449.029 1.113-.137.664-.479 1.27-1.025 1.816l-6.211 6.211-.586.586.059.82c.078 1.484.234 4.023.469 7.617.195 3.125.293 4.746.293 4.863 0 .117-.039.215-.117.293-.234.313-.645.781-1.23 1.406-1.133-3.086-2.09-5.684-2.871-7.793l-.996-2.813-2.109 2.109-3.809 3.691-.527.527-.059.762v4.219h.059l.059.059c-.117-.234-.195-.371-.234-.41-1.25-1.992-1.973-3.164-2.168-3.516l-.234-.352-.41-.234c-1.328-.82-2.637-1.641-3.926-2.461l.059.059h4.982l.586-.527 3.633-3.809 2.109-2.051-2.754-1.055c-2.148-.781-4.785-1.758-7.91-2.93.664-.586 1.133-.996 1.406-1.23.078-.078.156-.117.234-.117h.059c.117 0 1.855.117 5.215.352 3.711.234 6.152.391 7.324.469l.82.059.645-.586 6.152-6.152c.742-.742 1.523-1.113 2.344-1.113zm0-1.875c-1.367 0-2.598.547-3.691 1.641l-6.152 6.152c-.938-.039-2.471-.127-4.6-.264-2.129-.137-3.975-.264-5.537-.381-1.563-.117-2.383-.176-2.461-.176h-.117c-.508 0-.977.195-1.406.586l-2.168 1.934c-.352.352-.508.742-.469 1.172.039.43.293.742.762.938 1.25.469 4.219 1.562 8.906 3.281l-3.691 3.809h-4.394c-.508 0-1.113.293-1.816.879l-.059.059c-.273.273-.43.586-.469.938 0 .352.137.625.41.82.469.391 2.148 1.445 5.039 3.164.195.313.732 1.191 1.611 2.637.879 1.445 1.338 2.187 1.377 2.227.195.313.469.469.82.469h.059c.352 0 .703-.176 1.055-.527.547-.625.82-1.23.82-1.816v-4.336l3.867-3.633c1.719 4.727 2.793 7.656 3.223 8.789.195.469.508.723.938.762h.117c.391 0 .762-.156 1.113-.469.898-.938 1.533-1.641 1.904-2.109.371-.469.557-.996.557-1.582 0-.078-.049-.898-.146-2.461-.098-1.563-.215-3.389-.352-5.479-.137-2.09-.225-3.623-.264-4.6l6.152-6.152c.703-.664 1.182-1.406 1.436-2.227.254-.82.322-1.523.205-2.109-.117-.586-.312-1.016-.586-1.289-.43-.43-1.094-.645-1.992-.645z"/></svg>