<svg viewBox="0 0 32 32" enable-background="new 0 0 32 32" xmlns="http://www.w3.org/2000/svg"><title>volume-2</title><path d="M17.436 3.113c-.332-.176-.654-.146-.967.088l-9.434 7.383h-3.105c-.82 0-1.514.244-2.08.732-.566.488-.85 1.084-.85 1.787l.059 6.211c0 .664.283 1.25.85 1.758.566.508 1.26.762 2.08.762h3.105l9.375 7.383c.156.117.332.176.527.176.156 0 .293-.039.41-.117.352-.156.527-.43.527-.82v-24.492c0-.391-.166-.674-.498-.85zm-1.377 23.584l-8.145-6.563c-.156-.117-.332-.176-.527-.176h-3.398c-.313 0-.566-.068-.762-.205-.195-.137-.293-.283-.293-.439v-6.211c0-.156.098-.303.293-.439.195-.137.43-.205.703-.205h3.398c.195 0 .371-.059.527-.176l8.203-6.562v20.977zm9.375-10.313c0-1.25-.381-2.344-1.143-3.281-.762-.938-1.729-1.504-2.9-1.699-.273-.039-.518.01-.732.146-.215.137-.342.342-.381.615-.039.273.02.508.176.703.156.195.352.312.586.352.742.156 1.348.518 1.816 1.084.469.566.703 1.26.703 2.08 0 .742-.234 1.406-.703 1.992-.469.586-1.074.957-1.816 1.113-.273.039-.479.166-.615.381-.137.215-.186.459-.146.732.117.508.43.762.938.762.078 0 .137-.02.176-.059 1.172-.195 2.139-.762 2.9-1.699.762-.938 1.143-2.012 1.143-3.223zm-1.23-8.613c-.234-.078-.469-.068-.703.029-.234.098-.4.273-.498.527-.098.254-.088.498.029.732.117.234.293.391.527.469 1.406.508 2.549 1.396 3.428 2.666s1.318 2.666 1.318 4.189c0 1.523-.439 2.91-1.318 4.16s-2.021 2.148-3.428 2.695c-.234.078-.41.234-.527.469-.117.234-.137.469-.059.703.156.43.449.645.879.645.117 0 .234-.02.352-.059 1.797-.664 3.242-1.787 4.336-3.369 1.094-1.582 1.641-3.33 1.641-5.244 0-1.914-.547-3.662-1.641-5.244-1.094-1.582-2.539-2.705-4.336-3.369z"/></svg>