<svg viewBox="0 0 32 32" enable-background="new 0 0 32 32" xmlns="http://www.w3.org/2000/svg"><title>user</title><path d="M16 2.875c1.563 0 3.047.527 4.453 1.582 1.406 1.055 2.109 2.09 2.109 3.105v4.688c0 1.094-.234 2.324-.703 3.691s-1.152 2.422-2.051 3.164c-.547.43-.781.986-.703 1.67.078.684.43 1.182 1.055 1.494l8.145 3.867h.059c.508.156.762.527.762 1.113v1.875h-26.25v-1.934c0-.469.254-.82.762-1.055l8.262-3.926c.625-.273.977-.752 1.055-1.436.078-.684-.137-1.26-.645-1.729-.898-.703-1.602-1.748-2.109-3.135-.508-1.387-.762-2.607-.762-3.662v-4.688c0-1.016.713-2.051 2.139-3.105 1.426-1.055 2.9-1.582 4.424-1.582zm-.029-1.875c-2.051 0-3.965.703-5.742 2.109-1.777 1.406-2.666 2.891-2.666 4.453v4.688c0 1.289.293 2.754.879 4.395.586 1.641 1.465 2.93 2.637 3.867l-8.203 3.926c-.156.039-.332.117-.527.234s-.469.342-.82.674c-.352.332-.527.654-.527.967v2.813c0 .508.186.947.557 1.318.371.371.811.557 1.318.557h26.25c.508 0 .947-.186 1.318-.557.371-.371.557-.811.557-1.318v-2.813c0-.352-.156-.684-.469-.996-.313-.313-.625-.527-.938-.645l-.469-.234-8.145-3.867c1.172-.938 2.041-2.217 2.607-3.838.566-1.621.85-3.115.85-4.482v-4.688c0-1.563-.898-3.047-2.695-4.453-1.797-1.406-3.721-2.109-5.771-2.109z"/></svg>