<svg viewBox="0 0 32 32" enable-background="new 0 0 32 32" xmlns="http://www.w3.org/2000/svg"><title>wallet</title><path d="M30.999 9.496c.039-1.484-.723-2.441-2.285-2.871l-20.977-4.219h-.176c-.781 0-1.445.273-1.992.82-.547.547-.82 1.211-.82 1.992v3.75h-.937c-.781 0-1.445.273-1.992.82-.547.547-.82 1.211-.82 1.992v15c0 .781.273 1.445.82 1.992.547.547 1.211.82 1.992.82h24.375c.781 0 1.445-.273 1.992-.82.547-.547.82-1.211.82-1.992v-17.285zm-24.375-4.277c0-.234.078-.449.234-.645.156-.195.352-.293.586-.293l20.684 4.16c.039.039.029.098-.029.176-.059.078-.156.156-.293.234-.137.078-.322.117-.557.117h-20.625v-3.75zm22.5 21.563c0 .273-.088.498-.264.674-.176.176-.4.264-.674.264h-24.375c-.273 0-.498-.088-.674-.264-.176-.176-.264-.4-.264-.674v-15c0-.234.088-.449.264-.645.176-.195.4-.293.674-.293h23.437c.508 0 .947-.078 1.318-.234.371-.156.557-.391.557-.703v16.875zm-22.5-9.375c-.508 0-.947.186-1.318.557-.371.371-.557.82-.557 1.348 0 .527.186.967.557 1.318.371.352.811.527 1.318.527.508 0 .947-.176 1.318-.527.371-.352.557-.791.557-1.318s-.186-.977-.557-1.348c-.371-.371-.811-.557-1.318-.557z"/></svg>