<svg viewBox="0 0 32 32" enable-background="new 0 0 32 32" xmlns="http://www.w3.org/2000/svg"><title>volume-off</title><path d="M17.377 3.113c-.332-.176-.654-.146-.967.088l-9.375 7.383h-3.164c-.781 0-1.455.244-2.021.732-.566.488-.85 1.084-.85 1.787l.059 6.211c0 .664.283 1.25.85 1.758.566.508 1.24.762 2.021.762h3.164l9.316 7.383c.156.117.332.176.527.176.156 0 .312-.039.469-.117.313-.156.469-.43.469-.82v-24.492c0-.391-.166-.674-.498-.85zm-1.377 23.584l-8.145-6.563c-.156-.117-.312-.176-.469-.176h-3.457c-.273 0-.508-.068-.703-.205-.195-.137-.293-.283-.293-.439l-.059-6.211c0-.156.098-.303.293-.439.195-.137.43-.205.703-.205h3.457c.195 0 .371-.059.527-.176l8.145-6.562v20.977zm10.723-10.488l3.047-3.105c.469-.43.479-.869.029-1.318-.449-.449-.889-.439-1.318.029l-3.047 3.047-3.105-3.047c-.43-.469-.869-.479-1.318-.029-.449.449-.439.889.029 1.318l3.047 3.105-3.047 3.105c-.43.43-.42.869.029 1.318.449.449.889.439 1.318-.029l3.047-3.047 2.988 3.047c.43.469.869.479 1.318.029.449-.449.459-.889.029-1.318l-3.047-3.105z"/></svg>