<svg viewBox="0 0 32 32" enable-background="new 0 0 32 32" xmlns="http://www.w3.org/2000/svg"><title>clock</title><path d="M16 1c-4.141 0-7.676 1.465-10.605 4.395-2.93 2.93-4.395 6.465-4.395 10.605 0 4.141 1.465 7.676 4.395 10.605 2.93 2.93 6.465 4.395 10.605 4.395 4.141 0 7.676-1.465 10.605-4.395 2.93-2.93 4.395-6.465 4.395-10.605 0-4.141-1.465-7.676-4.395-10.605-2.93-2.93-6.465-4.395-10.605-4.395zm0 28.184c-3.633 0-6.729-1.289-9.287-3.867-2.559-2.578-3.838-5.684-3.838-9.316 0-3.633 1.279-6.729 3.838-9.287 2.559-2.559 5.654-3.838 9.287-3.838 3.633 0 6.729 1.279 9.287 3.838 2.559 2.559 3.838 5.654 3.838 9.287 0 3.633-1.279 6.738-3.838 9.316-2.559 2.578-5.654 3.867-9.287 3.867zm.938-13.535v-9.023c0-.273-.088-.498-.264-.674-.176-.176-.4-.264-.674-.264-.273 0-.498.088-.674.264-.176.176-.264.4-.264.674v9.375c0 .273.098.508.293.703h.059l4.629 4.688c.43.43.879.43 1.348 0 .156-.195.234-.42.234-.674 0-.254-.078-.479-.234-.674l-4.453-4.395z"/></svg>