<svg viewBox="0 0 32 32" enable-background="new 0 0 32 32" xmlns="http://www.w3.org/2000/svg"><title>control-rewind</title><path d="M17.758 5.875l-14.824 9.199 14.824 9.199v-7.207l11.25 7.207v-18.398l-11.25 7.207v-7.441.234zm-.088-1.875c.371 0 .693.078.967.234.664.352.996.898.996 1.641v3.867l8.73-5.449c.313-.195.645-.293.996-.293.195 0 .43.078.703.234.547.313.82.859.82 1.641v18.398c0 .781-.273 1.328-.82 1.641-.273.156-.547.234-.82.234-.313 0-.625-.098-.938-.293l-8.672-5.449v3.867c0 .742-.332 1.289-.996 1.641-.273.156-.586.234-.938.234s-.684-.098-.996-.293l-14.824-9.199c-.586-.352-.879-.879-.879-1.582 0-.703.293-1.23.879-1.582l14.824-9.199c.273-.195.596-.293.967-.293z"/></svg>