<svg viewBox="0 0 32 32" enable-background="new 0 0 32 32" xmlns="http://www.w3.org/2000/svg"><title>support</title><path d="M16 1c-4.141 0-7.676 1.465-10.605 4.395-2.93 2.93-4.395 6.465-4.395 10.605 0 4.141 1.465 7.676 4.395 10.605 2.93 2.93 6.465 4.395 10.605 4.395 4.141 0 7.676-1.465 10.605-4.395 2.93-2.93 4.395-6.465 4.395-10.605 0-4.141-1.465-7.676-4.395-10.605-2.93-2.93-6.465-4.395-10.605-4.395zm3.75 2.402c2.109.664 3.945 1.777 5.508 3.34 1.563 1.563 2.656 3.398 3.281 5.508h-6.035c-.703-1.133-1.621-2.051-2.754-2.754v-6.094zm1.875 12.598c0 1.563-.547 2.891-1.641 3.984-1.094 1.094-2.422 1.641-3.984 1.641-1.563 0-2.891-.547-3.984-1.641-1.094-1.094-1.641-2.422-1.641-3.984 0-1.563.547-2.891 1.641-3.984 1.094-1.094 2.422-1.641 3.984-1.641 1.563 0 2.891.547 3.984 1.641 1.094 1.094 1.641 2.422 1.641 3.984zm-7.5-13.008c.625-.078 1.25-.117 1.875-.117s1.25.039 1.875.117v5.742c-.625-.156-1.25-.234-1.875-.234s-1.25.078-1.875.234v-5.742zm-1.875.41v6.094c-1.133.703-2.051 1.621-2.754 2.754h-6.035c.625-2.109 1.719-3.945 3.281-5.508 1.563-1.563 3.398-2.676 5.508-3.34zm-9.375 12.598c0-.586.059-1.211.176-1.875h5.684c-.156.625-.234 1.25-.234 1.875s.078 1.25.234 1.875h-5.684c-.117-.664-.176-1.289-.176-1.875zm9.375 12.598c-2.109-.625-3.945-1.729-5.508-3.311-1.563-1.582-2.656-3.428-3.281-5.537h6.035c.664 1.172 1.582 2.09 2.754 2.754v6.094zm5.625.41c-.625.078-1.25.117-1.875.117s-1.25-.039-1.875-.117v-5.742c.625.156 1.25.234 1.875.234s1.25-.078 1.875-.234v5.742zm1.875-.41v-6.094c1.172-.664 2.09-1.582 2.754-2.754h6.035c-.625 2.109-1.719 3.955-3.281 5.537-1.563 1.582-3.398 2.686-5.508 3.311zm3.516-10.723c.156-.625.234-1.25.234-1.875s-.078-1.25-.234-1.875h5.684c.117.664.176 1.289.176 1.875 0 .586-.059 1.211-.176 1.875h-5.684z"/></svg>