<svg viewBox="0 0 32 32" enable-background="new 0 0 32 32" xmlns="http://www.w3.org/2000/svg"><title>moustache</title><path d="M24.224 22.25c-.898 0-1.758-.146-2.578-.439-.82-.293-1.416-.566-1.787-.82s-.83-.596-1.377-1.025c-.273-.234-.625-.547-1.055-.938-.742-.664-1.191-1.016-1.348-1.055h-.234c-.117.039-.488.332-1.113.879-.547.469-.996.84-1.348 1.113l-.059.059c-.586.469-1.074.83-1.465 1.084-.391.254-.977.508-1.758.762s-1.602.381-2.461.381c-2.227 0-4.004-.82-5.332-2.461-1.211-1.484-1.582-3.281-1.113-5.391.039-.352.225-.586.557-.703.332-.117.635-.078.908.117.469.352 1.055.527 1.758.527.547 0 1.094-.117 1.641-.352.313-.156.596-.361.85-.615s.547-.596.879-1.025c.332-.43.557-.703.674-.82.469-.508.84-.898 1.113-1.172.273-.273.674-.547 1.201-.82.527-.273 1.084-.41 1.67-.41 1.289 0 2.461.469 3.516 1.406 1.016-.938 2.168-1.406 3.457-1.406.586 0 1.152.137 1.699.41.547.273.967.547 1.26.82.293.273.654.664 1.084 1.172.156.117.4.391.732.82.332.43.625.771.879 1.025.254.254.537.459.85.615.547.234 1.094.352 1.641.352.781 0 1.406-.176 1.875-.527.273-.195.566-.234.879-.117.313.117.508.352.586.703.391 2.109-.02 3.906-1.23 5.391-.625.781-1.426 1.387-2.402 1.816-.977.43-1.992.645-3.047.645zm-8.282-6.215h.41c.43.078 1.172.586 2.227 1.523.43.352.781.645 1.055.879.469.391.859.693 1.172.908.313.215.781.43 1.406.645.625.215 1.289.322 1.992.322 1.719 0 3.066-.586 4.043-1.758.586-.742.898-1.621.938-2.637-.508.156-1.055.234-1.641.234-.781 0-1.582-.176-2.402-.527-.391-.156-.762-.391-1.113-.703-.352-.313-.742-.742-1.172-1.289-.43-.547-.684-.859-.762-.938-.586-.625-1.064-1.074-1.436-1.348-.371-.273-.791-.41-1.26-.41-1.016 0-1.934.488-2.754 1.465-.195.234-.43.352-.703.352-.273 0-.508-.117-.703-.352-.859-.977-1.777-1.465-2.754-1.465-.469 0-.889.137-1.26.41-.371.273-.85.723-1.436 1.348-.039.078-.283.391-.732.938-.449.547-.84.967-1.172 1.26-.332.293-.693.537-1.084.732-.82.352-1.621.527-2.402.527-.547 0-1.074-.078-1.582-.234 0 1.016.312 1.895.938 2.637.938 1.172 2.227 1.758 3.867 1.758.664 0 1.299-.098 1.904-.293.605-.195 1.064-.4 1.377-.615.313-.215.723-.518 1.23-.908l.117-.059c.313-.234.723-.586 1.23-1.055.938-.781 1.602-1.211 1.992-1.289.195-.039.352-.059.469-.059z"/></svg>