<svg viewBox="0 0 32 32" enable-background="new 0 0 32 32" xmlns="http://www.w3.org/2000/svg"><title>key</title><path d="M19.875 1c-2.324 0-4.307.82-5.947 2.461-1.641 1.641-2.461 3.633-2.461 5.977 0 2.07.664 3.906 1.992 5.508-.273-.039-.508.039-.703.234l-9.434 9.551c-.43.43-.43.859 0 1.289v.059l4.629 4.688c.43.43.869.42 1.318-.029.449-.449.439-.889-.029-1.318l-3.926-4.043 2.402-2.461 3.984 4.102c.43.43.869.42 1.318-.029.449-.449.439-.889-.029-1.318l-3.984-4.043 5.098-5.098c.195-.195.273-.43.234-.703 1.602 1.367 3.457 2.051 5.566 2.051 2.344 0 4.336-.82 5.977-2.461s2.461-3.633 2.461-5.977c0-2.344-.83-4.336-2.49-5.977-1.66-1.641-3.652-2.461-5.977-2.461zm.029 15c-1.797 0-3.34-.645-4.629-1.934-1.289-1.289-1.934-2.832-1.934-4.629 0-1.797.645-3.34 1.934-4.629 1.289-1.289 2.832-1.934 4.629-1.934 1.797 0 3.34.645 4.629 1.934 1.289 1.289 1.934 2.832 1.934 4.629 0 1.797-.645 3.34-1.934 4.629-1.289 1.289-2.832 1.934-4.629 1.934z"/></svg>