<svg viewBox="0 0 32 32" enable-background="new 0 0 32 32" xmlns="http://www.w3.org/2000/svg"><title>heart</title><path d="M9.438 3.875c1.406 0 3.164 1.035 5.273 3.105l1.348 1.289 1.289-1.289c2.031-2.07 3.77-3.105 5.215-3.105 1.719 0 3.262.664 4.629 1.992 1.328 1.328 1.992 2.949 1.992 4.863 0 1.914-.684 3.535-2.051 4.863-.078.117-3.574 3.906-10.488 11.367-.195.156-.41.234-.645.234-.234 0-.43-.078-.586-.234-6.328-7.07-9.824-10.937-10.488-11.602-1.367-1.328-2.051-2.939-2.051-4.834 0-1.895.684-3.525 2.051-4.893 1.172-1.172 2.676-1.758 4.512-1.758zm0-1.875c-2.383 0-4.336.781-5.859 2.344-1.719 1.68-2.578 3.73-2.578 6.152s.859 4.492 2.578 6.211l10.488 11.543c.547.547 1.201.82 1.963.82s1.416-.273 1.963-.82c6.914-7.461 10.41-11.23 10.488-11.309 1.719-1.719 2.578-3.789 2.578-6.211s-.859-4.492-2.578-6.211c-1.68-1.68-3.652-2.52-5.918-2.52-1.953 0-4.141 1.211-6.563 3.633-2.422-2.422-4.609-3.633-6.563-3.633z"/></svg>