<svg viewBox="0 0 32 32" enable-background="new 0 0 32 32" xmlns="http://www.w3.org/2000/svg"><title>eye</title><path d="M16.088 10.746c-1.543 0-2.861.547-3.955 1.641-1.094 1.094-1.641 2.412-1.641 3.955 0 1.543.547 2.871 1.641 3.984 1.094 1.113 2.412 1.67 3.955 1.67 1.543 0 2.871-.557 3.984-1.67s1.67-2.441 1.67-3.984c0-1.543-.557-2.861-1.67-3.955-1.113-1.094-2.441-1.641-3.984-1.641zm0 9.375c-1.035 0-1.924-.381-2.666-1.143s-1.113-1.65-1.113-2.666.371-1.895 1.113-2.637 1.621-1.113 2.637-1.113 1.895.371 2.637 1.113 1.113 1.631 1.113 2.666-.361 1.924-1.084 2.666c-.723.742-1.602 1.113-2.637 1.113zm14.854-4.16v-.117c-1.367-3.086-3.389-5.498-6.064-7.236-2.676-1.738-5.615-2.607-8.818-2.607-3.203 0-6.162.869-8.877 2.607-2.715 1.738-4.756 4.131-6.123 7.178v.088l-.059.088v.762l.059.059c1.367 3.145 3.398 5.547 6.094 7.266 2.695 1.719 5.645 2.578 8.848 2.578 3.203 0 6.152-.859 8.848-2.578 2.695-1.719 4.727-4.102 6.094-7.148v-.088l.059-.088v-.645c0-.098-.02-.117-.059-.117zm-14.941 8.789c-2.773 0-5.342-.723-7.705-2.168-2.363-1.445-4.17-3.535-5.42-6.27 1.25-2.695 3.066-4.775 5.449-6.24 2.383-1.465 4.961-2.197 7.734-2.197 2.773 0 5.332.732 7.676 2.197 2.344 1.465 4.141 3.564 5.391 6.299-1.25 2.695-3.057 4.766-5.42 6.211-2.363 1.445-4.932 2.168-7.705 2.168z"/></svg>