<svg viewBox="0 0 32 32" enable-background="new 0 0 32 32" xmlns="http://www.w3.org/2000/svg"><title>cloud-download</title><path d="M23.383 8.684c-.703-1.797-1.758-3.193-3.164-4.189-1.406-.996-3.145-1.494-5.215-1.494-2.656 0-4.863.879-6.621 2.637s-2.715 3.965-2.871 6.621c-1.328.43-2.412 1.25-3.252 2.461-.84 1.211-1.26 2.559-1.26 4.043 0 1.836.625 3.428 1.875 4.775 1.25 1.348 2.734 2.021 4.453 2.021h.82c.273 0 .498-.088.674-.264.176-.176.264-.4.264-.674 0-.273-.088-.498-.264-.674-.176-.176-.4-.264-.674-.264h-.82c-1.211 0-2.266-.488-3.164-1.465-.898-.977-1.348-2.129-1.348-3.457 0-1.172.361-2.227 1.084-3.164.723-.938 1.611-1.504 2.666-1.699l.879-.117-.117-.879c0-2.305.703-4.219 2.109-5.742 1.406-1.523 3.262-2.285 5.566-2.285 3.477 0 5.742 1.66 6.797 4.98l.176.645h.703c1.758.039 3.281.684 4.57 1.934 1.289 1.25 1.934 2.754 1.934 4.512 0 1.68-.508 3.223-1.523 4.629-1.016 1.406-2.285 2.109-3.809 2.109h-.234c-.273 0-.498.088-.674.264-.176.176-.264.4-.264.674 0 .273.088.498.264.674.176.176.4.264.674.264 2.188-.078 3.965-.996 5.332-2.754s2.051-3.711 2.051-5.859-.742-4.004-2.227-5.566c-1.484-1.563-3.281-2.461-5.391-2.695zm-3.457 15.117c-.313-.352-.625-.352-.938 0l-2.051 2.285v-9.492c0-.234-.098-.449-.293-.645-.195-.195-.42-.293-.674-.293-.254 0-.469.098-.645.293-.176.195-.264.41-.264.645v9.492l-1.992-2.227c-.352-.352-.664-.371-.938-.059l-.234.117c-.352.313-.352.645 0 .996l3.34 3.75.293.234c.117.156.264.234.439.234.176 0 .342-.078.498-.234l.234-.234 3.457-3.809c.273-.313.273-.605 0-.879l-.234-.176z"/></svg>