<svg viewBox="0 0 32 32" enable-background="new 0 0 32 32" xmlns="http://www.w3.org/2000/svg"><title>reload</title><path d="M6.391 4.965c-2.656 2.656-3.984 5.859-3.984 9.609 0 3.516 1.191 6.572 3.574 9.17s5.312 4.053 8.789 4.365l-2.637 1.348c-.469.273-.586.586-.352.938l.059.234c.273.391.605.488.996.293l4.453-2.344.352-.176c.156-.078.264-.205.322-.381.059-.176.029-.342-.088-.498l-.176-.293-2.754-4.395c-.273-.391-.605-.469-.996-.234l-.234.176c-.352.195-.391.508-.117.938l1.641 2.578c-3.105-.254-5.684-1.475-7.793-3.721s-3.164-4.912-3.164-7.998c0-3.242 1.143-6.006 3.428-8.291s5.039-3.428 8.262-3.428c3.223 0 5.986 1.143 8.291 3.428 2.305 2.285 3.457 5.049 3.457 8.291 0 1.875-.41 3.623-1.23 5.244-.82 1.621-1.973 2.998-3.457 4.131-.508.391-.566.83-.176 1.318.391.488.82.557 1.289.205 1.758-1.328 3.105-2.939 4.043-4.834.938-1.895 1.406-3.916 1.406-6.064 0-3.75-1.328-6.953-3.984-9.609-2.656-2.656-5.859-3.984-9.609-3.984s-6.953 1.328-9.609 3.984z"/></svg>