<svg viewBox="0 0 32 32" enable-background="new 0 0 32 32" xmlns="http://www.w3.org/2000/svg"><title>anchor</title><path d="M30.941 22.445l-2.461-4.453-.176-.293c-.078-.195-.205-.312-.381-.352-.176-.039-.342 0-.498.117l-.293.176h-.059l-4.219 2.871c-.391.273-.469.605-.234.996l.176.176c.195.391.508.449.938.176l2.52-1.758c-.273 2.422-1.289 4.482-3.047 6.182-1.758 1.699-3.848 2.646-6.27 2.842v-18.809h3.75c.273 0 .498-.088.674-.264.176-.176.264-.391.264-.645s-.088-.479-.264-.674c-.176-.195-.4-.293-.674-.293h-3.809v-.059c.859-.195 1.562-.635 2.109-1.318.547-.684.82-1.475.82-2.373 0-1.016-.371-1.895-1.113-2.637s-1.631-1.113-2.666-1.113-1.924.371-2.666 1.113-1.113 1.621-1.113 2.637c0 .898.273 1.689.82 2.373.547.684 1.23 1.123 2.051 1.318v.059h-3.809c-.273 0-.498.098-.674.293-.176.195-.264.42-.264.674 0 .254.088.469.264.645.176.176.4.264.674.264h3.75v18.809c-2.422-.195-4.512-1.143-6.27-2.842s-2.773-3.76-3.047-6.182l2.52 1.758c.43.273.742.215.938-.176l.176-.176c.234-.391.156-.723-.234-.996l-4.219-2.871h-.059l-.293-.176c-.156-.117-.322-.156-.498-.117-.176.039-.303.156-.381.352l-.176.293-2.461 4.453c-.195.391-.117.703.234.938l.293.117c.352.234.645.137.879-.293l1.406-2.637c.43 3.008 1.797 5.508 4.102 7.5 2.305 1.992 4.98 2.988 8.027 2.988 3.047 0 5.723-.996 8.027-2.988 2.305-1.992 3.672-4.492 4.102-7.5l1.406 2.637c.234.43.527.527.879.293l.293-.117c.352-.234.43-.547.234-.938zm-16.816-17.725c0-.527.186-.977.557-1.348.371-.371.82-.557 1.348-.557.527 0 .977.186 1.348.557.371.371.557.82.557 1.348 0 .527-.186.977-.557 1.348-.371.371-.82.557-1.348.557-.527 0-.977-.186-1.348-.557-.371-.371-.557-.82-.557-1.348z"/></svg>