<svg viewBox="0 0 32 32" enable-background="new 0 0 32 32" xmlns="http://www.w3.org/2000/svg"><title>directions</title><path d="M30.824 6.449l-2.93-3.281c-.195-.195-.43-.293-.703-.293h-10.254v-.996c0-.234-.098-.439-.293-.615-.195-.176-.42-.264-.674-.264-.254 0-.469.088-.645.264-.176.176-.264.381-.264.615v.996h-7.5c-.273 0-.498.088-.674.264-.176.176-.264.4-.264.674v6.563c0 .234.088.449.264.645.176.195.4.293.674.293h7.5v1.875h-10.254c-.273 0-.508.098-.703.293l-2.93 3.34c-.352.43-.352.84 0 1.23l2.93 3.281c.195.195.43.293.703.293h10.254v8.496c0 .234.088.439.264.615.176.176.391.264.645.264s.479-.088.674-.264c.195-.176.293-.381.293-.615v-8.496h7.5c.234 0 .449-.088.645-.264.195-.176.293-.4.293-.674v-6.563c0-.273-.098-.498-.293-.674-.195-.176-.41-.264-.645-.264h-7.5v-1.875h10.254c.273 0 .508-.117.703-.352l2.93-3.281c.352-.391.352-.801 0-1.23zm-7.324 13.301h-18.281l-2.051-2.285 2.051-2.402h18.281v4.688zm3.281-10.313h-18.281v-4.688h18.281l2.051 2.344-2.051 2.344z"/></svg>