<svg viewBox="0 0 32 32" enable-background="new 0 0 32 32" xmlns="http://www.w3.org/2000/svg"><title>feed</title><path d="M3.93 10.668c-.273 0-.498.098-.674.293-.176.195-.264.42-.264.674 0 .254.088.479.264.674.176.195.4.293.674.293 4.414 0 8.086 1.465 11.016 4.395 2.93 2.93 4.395 6.621 4.395 11.074 0 .234.088.449.264.645.176.195.4.293.674.293.273 0 .498-.098.674-.293.176-.195.264-.41.264-.645 0-5-1.641-9.15-4.922-12.451-3.281-3.301-7.402-4.951-12.363-4.951zm0-9.609c-.273 0-.498.098-.674.293-.176.195-.264.42-.264.674 0 .254.088.479.264.674.176.195.4.293.674.293 4.531 0 8.711 1.113 12.539 3.34 3.828 2.227 6.855 5.264 9.082 9.111 2.227 3.848 3.34 8.018 3.34 12.51 0 .273.098.508.293.703.195.195.43.293.703.293.273 0 .498-.098.674-.293.176-.195.264-.43.264-.703 0-3.633-.713-7.109-2.139-10.43-1.426-3.32-3.34-6.182-5.742-8.584-2.402-2.402-5.264-4.316-8.584-5.742-3.32-1.426-6.797-2.139-10.43-2.139zm2.402 19.277c-1.445 0-2.686.518-3.721 1.553-1.035 1.035-1.553 2.285-1.553 3.75 0 1.465.518 2.715 1.553 3.75 1.035 1.035 2.275 1.553 3.721 1.553 1.445 0 2.686-.518 3.721-1.553 1.035-1.035 1.553-2.285 1.553-3.75 0-1.465-.518-2.715-1.553-3.75-1.035-1.035-2.275-1.553-3.721-1.553zm0 8.73c-.938 0-1.748-.332-2.432-.996-.684-.664-1.025-1.475-1.025-2.432 0-.957.342-1.777 1.025-2.461.684-.684 1.494-1.025 2.432-1.025s1.748.342 2.432 1.025c.684.684 1.025 1.504 1.025 2.461 0 .957-.342 1.768-1.025 2.432-.684.664-1.494.996-2.432.996z"/></svg>