<svg viewBox="0 0 32 32" enable-background="new 0 0 32 32" xmlns="http://www.w3.org/2000/svg"><title>action-undo</title><path d="M30.014 28.347h-.059c-.469 0-.723-.273-.762-.82-.039-.156-.078-.361-.117-.615-.039-.254-.176-.684-.41-1.289-.234-.605-.537-1.182-.908-1.729-.371-.547-.928-1.143-1.67-1.787-.742-.645-1.582-1.211-2.52-1.699s-2.148-.889-3.633-1.201c-1.484-.313-3.125-.469-4.922-.469v5.391c0 .391-.176.674-.527.85-.352.176-.684.127-.996-.146l-12.129-10.078c-.234-.156-.352-.391-.352-.703 0-.313.117-.547.352-.703l12.129-10.02c.313-.234.645-.264.996-.088.352.176.527.459.527.85v5.273c5.547.156 9.707 1.855 12.48 5.098.82.977 1.504 2.09 2.051 3.34.547 1.25.908 2.383 1.084 3.398.176 1.016.283 2.061.322 3.135.039 1.074.049 1.816.029 2.227-.02.41-.049.752-.088 1.025-.078.508-.371.762-.879.762zm-15.938-11.484h.059c2.227 0 4.209.166 5.947.498 1.738.332 3.184.82 4.336 1.465 1.152.645 2.08 1.27 2.783 1.875.703.605 1.348 1.318 1.934 2.139-.391-2.852-1.426-5.234-3.105-7.148-2.578-3.008-6.562-4.512-11.953-4.512-.234 0-.449-.088-.645-.264-.195-.176-.293-.4-.293-.674v-4.219l-9.727 8.027 9.727 8.086v-4.336c0-.273.098-.498.293-.674.195-.176.41-.264.645-.264z"/></svg>