<svg viewBox="0 0 32 32" enable-background="new 0 0 32 32" xmlns="http://www.w3.org/2000/svg"><title>shield</title><path d="M27.602 5.219c-.352-.313-.781-.469-1.289-.469h-.937c-1.367 0-2.617-.137-3.75-.41-.547-.117-1.143-.391-1.787-.82-.645-.43-1.27-.889-1.875-1.377s-.928-.752-.967-.791c-.313-.234-.654-.352-1.025-.352-.371 0-.713.117-1.025.352-.039 0-.107.049-.205.146l-.381.381c-.156.156-.342.322-.557.498-.215.176-.459.361-.732.557-.273.195-.557.391-.85.586-.293.195-.596.361-.908.498-.313.137-.625.244-.938.322-1.094.273-2.344.41-3.75.41h-.937c-.508 0-.937.156-1.289.469-.391.391-.586.859-.586 1.406v4.688c0 2.344.215 4.512.645 6.504.43 1.992.957 3.643 1.582 4.951.625 1.309 1.387 2.48 2.285 3.516.898 1.035 1.709 1.826 2.432 2.373.723.547 1.494 1.006 2.314 1.377.82.371 1.396.605 1.729.703.332.098.615.166.85.205.117.039.225.059.322.059.098 0 .205-.02.322-.059.234-.039.508-.107.82-.205.313-.098.889-.332 1.729-.703.84-.371 1.631-.83 2.373-1.377.742-.547 1.553-1.338 2.432-2.373.879-1.035 1.641-2.207 2.285-3.516.645-1.309 1.182-2.959 1.611-4.951.43-1.992.645-4.16.645-6.504v-4.688c0-.547-.195-1.016-.586-1.406zm-1.289 6.094c0 7.773-2.285 13.184-6.855 16.23-1.289.859-2.461 1.387-3.516 1.582l-.557-.176c-.254-.078-.732-.283-1.436-.615-.703-.332-1.387-.732-2.051-1.201-.664-.469-1.387-1.182-2.168-2.139-.781-.957-1.455-2.021-2.021-3.193-.566-1.172-1.045-2.676-1.436-4.512-.391-1.836-.586-3.828-.586-5.977v-4.688h.938c1.563 0 2.969-.156 4.219-.469.742-.195 1.543-.566 2.402-1.113.859-.547 1.523-1.035 1.992-1.465l.703-.703c1.797 1.758 3.555 2.852 5.273 3.281 1.25.313 2.637.469 4.16.469h.938v4.688zm-6.357-.176c-.449-.43-.889-.43-1.318 0l-2.637 2.637-2.637-2.637c-.469-.43-.918-.43-1.348 0-.43.43-.43.879 0 1.348l2.637 2.637-2.637 2.637c-.43.469-.43.918 0 1.348.43.43.879.43 1.348 0l2.637-2.637 2.637 2.637c.43.43.869.43 1.318 0 .449-.43.459-.879.029-1.348l-2.637-2.637 2.637-2.637c.43-.469.42-.918-.029-1.348z"/></svg>