<svg viewBox="0 0 32 32" enable-background="new 0 0 32 32" xmlns="http://www.w3.org/2000/svg"><title>hourglass</title><path d="M25.434 2.875h-1.934v6.328c0 3.008-1.738 5.41-5.215 7.207 1.836.898 3.174 1.953 4.014 3.164.84 1.211 1.26 2.676 1.26 4.395v5.156h1.875c.234 0 .449.088.645.264.195.176.293.391.293.645s-.098.479-.293.674c-.195.195-.41.293-.645.293h-18.867c-.234 0-.449-.098-.645-.293-.195-.195-.293-.42-.293-.674 0-.254.098-.469.293-.645.195-.176.41-.264.645-.264h1.934v-5.156c0-1.719.41-3.184 1.23-4.395.82-1.211 2.148-2.266 3.984-3.164-3.438-1.797-5.156-4.199-5.156-7.207v-6.328h-1.992c-.234 0-.449-.088-.645-.264-.195-.176-.293-.391-.293-.645s.098-.479.293-.674c.195-.195.41-.293.645-.293h18.867c.234 0 .449.098.645.293.195.195.293.42.293.674 0 .254-.098.469-.293.645-.195.176-.41.264-.645.264zm-15.059 21.094v5.156h11.309v-5.156c0-1.406-.391-2.627-1.172-3.662-.781-1.035-2.285-2.002-4.512-2.9-2.188.898-3.672 1.855-4.453 2.871-.781 1.016-1.172 2.246-1.172 3.691zm11.25-21.094h-11.191v6.328c0 1.133.371 2.217 1.113 3.252.742 1.035 2.227 2.002 4.453 2.9 2.266-.898 3.77-1.865 4.512-2.9.742-1.035 1.113-2.119 1.113-3.252v-6.328z"/></svg>