<svg viewBox="0 0 32 32" enable-background="new 0 0 32 32" xmlns="http://www.w3.org/2000/svg"><title>basket</title><path d="M30.736 9.32c-.195-.273-.449-.41-.762-.41h-19.922l-1.465-5.156c-.469-1.523-1.328-2.285-2.578-2.285h-4.043c-.234 0-.449.088-.645.264-.195.176-.293.391-.293.645s.098.479.293.674c.195.195.41.293.645.293h4.043c.313 0 .566.293.762.879l5.156 19.043c.156.469.469.703.938.703h12.656c.43 0 .723-.215.879-.645l4.453-13.125c.117-.313.078-.605-.117-.879zm-5.859 12.773h-11.309l-2.988-11.309h18.047l-3.75 11.309zm-1.875 3.75c-.664 0-1.221.225-1.67.674-.449.449-.674 1.006-.674 1.67 0 .664.225 1.221.674 1.67.449.449 1.006.674 1.67.674.664 0 1.221-.225 1.67-.674.449-.449.674-1.006.674-1.67 0-.664-.225-1.221-.674-1.67-.449-.449-1.006-.674-1.67-.674zm-8.438 0c-.664 0-1.221.225-1.67.674-.449.449-.674 1.006-.674 1.67 0 .664.225 1.221.674 1.67.449.449 1.006.674 1.67.674.664 0 1.221-.225 1.67-.674.449-.449.674-1.006.674-1.67 0-.664-.225-1.221-.674-1.67-.449-.449-1.006-.674-1.67-.674z"/></svg>