<svg viewBox="0 0 32 32" enable-background="new 0 0 32 32" xmlns="http://www.w3.org/2000/svg"><title>picture</title><path d="M29.125 3.344h-26.25c-.508 0-.947.186-1.318.557-.371.371-.557.811-.557 1.318v21.563c0 .508.186.947.557 1.318.371.371.811.557 1.318.557h26.25c.508 0 .947-.186 1.318-.557.371-.371.557-.811.557-1.318v-21.563c0-.508-.186-.947-.557-1.318-.371-.371-.811-.557-1.318-.557zm0 23.438h-26.25v-5.508l7.5-7.324 7.793 7.793c.352.391.781.391 1.289 0l3.398-3.105 6.211 6.328.059.059v1.758zm0-4.395l-5.508-5.625c-.391-.391-.801-.43-1.23-.117l-3.516 3.105-7.793-7.676c-.156-.234-.371-.352-.645-.352-.273 0-.508.078-.703.234l-6.855 6.68v-13.418h26.25v17.168zm-6.563-9.668c.508 0 .947-.186 1.318-.557.371-.371.557-.811.557-1.318 0-.508-.186-.947-.557-1.318-.371-.371-.811-.557-1.318-.557-.508 0-.947.186-1.318.557-.371.371-.557.811-.557 1.318 0 .508.186.947.557 1.318.371.371.811.557 1.318.557z"/></svg>