<svg viewBox="0 0 32 32" enable-background="new 0 0 32 32" xmlns="http://www.w3.org/2000/svg"><title>grid</title><path d="M29.125 31h-9.375c-.508 0-.947-.186-1.318-.557-.371-.371-.557-.811-.557-1.318v-9.375c0-.508.186-.947.557-1.318.371-.371.811-.557 1.318-.557h9.375c.508 0 .947.186 1.318.557.371.371.557.811.557 1.318v9.375c0 .508-.186.947-.557 1.318-.371.371-.811.557-1.318.557zm0-11.25h-9.375v9.375h9.375v-9.375zm0-5.625h-9.375c-.508 0-.947-.186-1.318-.557-.371-.371-.557-.811-.557-1.318v-9.375c0-.508.186-.947.557-1.318.371-.371.811-.557 1.318-.557h9.375c.508 0 .947.186 1.318.557.371.371.557.811.557 1.318v9.375c0 .508-.186.947-.557 1.318-.371.371-.811.557-1.318.557zm0-11.25h-9.375v9.375h9.375v-9.375zm-16.875 28.125h-9.375c-.508 0-.947-.186-1.318-.557-.371-.371-.557-.811-.557-1.318v-9.375c0-.508.186-.947.557-1.318.371-.371.811-.557 1.318-.557h9.375c.508 0 .947.186 1.318.557.371.371.557.811.557 1.318v9.375c0 .508-.186.947-.557 1.318-.371.371-.811.557-1.318.557zm0-11.25h-9.375v9.375h9.375v-9.375zm0-5.625h-9.375c-.508 0-.947-.186-1.318-.557-.371-.371-.557-.811-.557-1.318v-9.375c0-.508.186-.947.557-1.318.371-.371.811-.557 1.318-.557h9.375c.508 0 .947.186 1.318.557.371.371.557.811.557 1.318v9.375c0 .508-.186.947-.557 1.318-.371.371-.811.557-1.318.557zm0-11.25h-9.375v9.375h9.375v-9.375z"/></svg>