<svg viewBox="0 0 32 32" enable-background="new 0 0 32 32" xmlns="http://www.w3.org/2000/svg"><title>umbrella</title><path d="M31 15.941c0 .234-.088.449-.264.645-.176.195-.4.293-.674.293h-13.125v9.492c0 1.289-.459 2.383-1.377 3.281-.918.898-2.012 1.348-3.281 1.348-1.27 0-2.354-.449-3.252-1.348-.898-.898-1.348-1.992-1.348-3.281 0-.273.088-.498.264-.674.176-.176.391-.264.645-.264s.479.088.674.264c.195.176.293.4.293.674 0 .742.264 1.387.791 1.934.527.547 1.172.82 1.934.82s1.416-.273 1.963-.82c.547-.547.82-1.191.82-1.934v-9.492h-13.125c-.273 0-.498-.098-.674-.293-.176-.195-.264-.41-.264-.645 0-3.633 1.25-6.533 3.75-8.701s5.937-3.311 10.313-3.428v-1.875c0-.273.088-.498.264-.674.176-.176.391-.264.645-.264s.479.088.674.264c.195.176.293.4.293.674v1.875c4.375.117 7.812 1.26 10.313 3.428 2.5 2.168 3.75 5.068 3.75 8.701zm-1.875-.938c-.234-2.969-1.504-5.273-3.809-6.914s-5.42-2.461-9.346-2.461-7.031.82-9.316 2.461c-2.285 1.641-3.545 3.945-3.779 6.914h26.25z"/></svg>