<svg viewBox="0 0 32 32" enable-background="new 0 0 32 32" xmlns="http://www.w3.org/2000/svg"><title>social-twitter</title><path d="M21.043 5.629c1.563 0 2.871.566 3.926 1.699 1.25-.273 2.402-.703 3.457-1.289-.43 1.25-1.23 2.207-2.402 2.871 1.094-.117 2.129-.391 3.105-.82-.742 1.055-1.641 1.953-2.695 2.695v.703c0 1.758-.342 3.506-1.025 5.244-.684 1.738-1.641 3.33-2.871 4.775-1.23 1.445-2.842 2.617-4.834 3.516-1.992.898-4.18 1.348-6.563 1.348-3.008 0-5.762-.781-8.262-2.344.43.039.859.059 1.289.059 2.5 0 4.727-.742 6.68-2.227-1.172-.039-2.217-.391-3.135-1.055-.918-.664-1.553-1.523-1.904-2.578.352.039.684.059.996.059.508 0 .996-.059 1.465-.176-1.25-.234-2.285-.83-3.105-1.787-.82-.957-1.23-2.061-1.23-3.311v-.059c.742.391 1.562.605 2.461.645-1.602-1.055-2.402-2.52-2.402-4.395 0-.938.234-1.797.703-2.578 1.367 1.602 3.008 2.881 4.922 3.838 1.914.957 3.984 1.494 6.211 1.611-.117-.391-.176-.781-.176-1.172 0-1.445.527-2.686 1.582-3.721 1.055-1.035 2.324-1.553 3.809-1.553zm0-1.875c-1.836 0-3.437.596-4.805 1.787-1.367 1.191-2.168 2.666-2.402 4.424-3.125-.664-5.684-2.187-7.676-4.57-.391-.43-.879-.645-1.465-.645h-.117c-.664.039-1.152.332-1.465.879-.664 1.094-.996 2.285-.996 3.574 0 .859.137 1.68.41 2.461-.313.352-.469.781-.469 1.289v.059c0 1.836.645 3.437 1.934 4.805-.078.313-.059.645.059.996.391 1.25 1.094 2.305 2.109 3.164-.625.156-1.289.234-1.992.234-.391 0-.742-.02-1.055-.059h-.234c-.898 0-1.484.41-1.758 1.23-.156.43-.166.85-.029 1.26.137.41.4.732.791.967 2.813 1.758 5.898 2.637 9.258 2.637 2.578 0 4.961-.479 7.148-1.436 2.188-.957 3.994-2.217 5.42-3.779 1.426-1.563 2.549-3.32 3.369-5.273.82-1.953 1.23-3.965 1.23-6.035.898-.742 1.68-1.582 2.344-2.52.234-.313.352-.684.352-1.113 0-.664-.273-1.172-.82-1.523.234-.82.039-1.484-.586-1.992-.352-.273-.742-.41-1.172-.41-.352 0-.664.078-.938.234-.625.352-1.289.645-1.992.879-1.328-1.016-2.812-1.523-4.453-1.523z"/></svg>