<svg viewBox="0 0 32 32" enable-background="new 0 0 32 32" xmlns="http://www.w3.org/2000/svg"><title>bubbles</title><path d="M13.422 20.922c3.438 0 6.299-.898 8.584-2.695 2.285-1.797 3.408-4.102 3.369-6.914 0-2.539-1.182-4.697-3.545-6.475-2.363-1.777-5.225-2.666-8.584-2.666-3.398 0-6.289.889-8.672 2.666-2.383 1.777-3.574 3.936-3.574 6.475 0 1.68.41 3.262 1.23 4.746.82 1.484 2.012 2.637 3.574 3.457h-.059c0 .859-.527 2.207-1.582 4.043-.039.117-.059.215-.059.293 0 .195.068.361.205.498.137.137.303.205.498.205h.176c1.055-.195 2.305-.752 3.75-1.67 1.445-.918 2.363-1.611 2.754-2.08.391.078.84.117 1.348.117h.586zm-2.754-2.051l-1.172.996c-.508.586-1.348 1.25-2.52 1.992.156-.547.293-1.016.41-1.406.117-.391.176-.645.176-.762v-.176l.117-1.172-1.055-.527c-1.211-.625-2.139-1.543-2.783-2.754-.645-1.211-.967-2.461-.967-3.75 0-2.031 1.016-3.75 3.047-5.156 2.031-1.406 4.473-2.109 7.324-2.109 2.852 0 5.273.703 7.266 2.109 1.992 1.406 2.988 3.125 2.988 5.156 0 2.227-.947 4.072-2.842 5.537-1.895 1.465-4.287 2.197-7.178 2.197-.586.039-1.172 0-1.758-.117l-1.055-.059zm20.332 0c0-2.578-1.152-4.551-3.457-5.918-.039.586-.195 1.27-.469 2.051 1.367.938 2.051 2.227 2.051 3.867 0 1.992-1.035 3.535-3.105 4.629l-.938.469c.039 1.602.117 2.598.234 2.988-.547-.391-1.025-.791-1.436-1.201-.41-.41-.674-.732-.791-.967l-.234-.293-.996.176-1.465.059c-2.422 0-4.434-.625-6.035-1.875h-2.637c1.992 2.5 4.883 3.75 8.672 3.75h.586c.43 0 .82-.039 1.172-.117.391.508 1.104 1.152 2.139 1.934 1.035.781 2.002 1.25 2.9 1.406h.176c.391 0 .586-.195.586-.586 0-.078-.02-.156-.059-.234-.195-.391-.41-.986-.645-1.787-.234-.801-.352-1.475-.352-2.021v-.059c2.734-1.406 4.102-3.496 4.102-6.27z"/></svg>