<svg viewBox="0 0 32 32" enable-background="new 0 0 32 32" xmlns="http://www.w3.org/2000/svg"><title>emoticon-smile</title><path d="M23.91 18.783c-.234-.098-.479-.098-.732 0-.254.098-.42.264-.498.498-.078.117-.166.273-.264.469-.098.195-.352.537-.762 1.025-.41.488-.85.918-1.318 1.289-.469.371-1.094.703-1.875.996-.781.293-1.621.459-2.52.498h-.117c-.82 0-1.611-.146-2.373-.439-.762-.293-1.367-.625-1.816-.996-.449-.371-.869-.801-1.26-1.289-.391-.488-.645-.84-.762-1.055-.117-.215-.215-.381-.293-.498-.117-.234-.293-.4-.527-.498-.234-.098-.469-.098-.703 0-.234.098-.4.273-.498.527-.098.254-.088.498.029.732l.322.645c.137.273.449.713.938 1.318.488.605 1.025 1.143 1.611 1.611.586.469 1.357.889 2.314 1.26.957.371 1.963.557 3.018.557h.117c1.133-.039 2.187-.244 3.164-.615.977-.371 1.758-.791 2.344-1.26.586-.469 1.123-.996 1.611-1.582.488-.586.811-1.016.967-1.289.156-.273.273-.488.352-.645.078-.234.078-.479 0-.732-.078-.254-.234-.43-.469-.527zm-7.91-17.783c-4.141 0-7.676 1.465-10.605 4.395-2.93 2.93-4.395 6.465-4.395 10.605 0 4.141 1.465 7.676 4.395 10.605 2.93 2.93 6.465 4.395 10.605 4.395 4.141 0 7.676-1.465 10.605-4.395 2.93-2.93 4.395-6.465 4.395-10.605 0-4.141-1.465-7.676-4.395-10.605-2.93-2.93-6.465-4.395-10.605-4.395zm0 28.125c-3.633 0-6.729-1.279-9.287-3.838-2.559-2.559-3.838-5.654-3.838-9.287 0-3.633 1.279-6.729 3.838-9.287 2.559-2.559 5.654-3.838 9.287-3.838 3.633 0 6.729 1.279 9.287 3.838 2.559 2.559 3.838 5.654 3.838 9.287 0 3.633-1.279 6.729-3.838 9.287-2.559 2.559-5.654 3.838-9.287 3.838zm-4.688-14.063c.508 0 .947-.186 1.318-.557.371-.371.557-.811.557-1.318 0-.508-.186-.947-.557-1.318-.371-.371-.811-.557-1.318-.557-.508 0-.947.186-1.318.557-.371.371-.557.811-.557 1.318 0 .508.186.947.557 1.318.371.371.811.557 1.318.557zm9.375 0c.508 0 .947-.186 1.318-.557.371-.371.557-.811.557-1.318 0-.508-.186-.947-.557-1.318-.371-.371-.811-.557-1.318-.557-.508 0-.947.186-1.318.557-.371.371-.557.811-.557 1.318 0 .508.186.947.557 1.318.371.371.811.557 1.318.557z"/></svg>