<svg viewBox="0 0 32 32" enable-background="new 0 0 32 32" xmlns="http://www.w3.org/2000/svg"><title>social-dropbox</title><path d="M30.957 7.585c-.02-.313-.166-.547-.439-.703l-8.32-5.215c-.391-.234-.762-.215-1.113.059l-5.098 4.16-5.098-4.16c-.352-.273-.723-.293-1.113-.059l-8.32 5.215c-.273.156-.42.391-.439.703-.02.313.088.586.322.82l4.863 4.043-4.16 3.281c-.273.195-.4.449-.381.762.02.313.166.566.439.762l3.809 2.52c-.195.195-.293.43-.293.703v3.75c0 .352.156.625.469.82l9.434 5.332c.117.078.264.117.439.117.176 0 .342-.039.498-.117l9.316-5.332c.313-.195.469-.469.469-.82v-4.571l3.633-2.402c.273-.195.41-.449.41-.762s-.117-.566-.352-.762l-4.16-3.281 4.863-4.043c.234-.234.342-.508.322-.82zm-8.408 4.863l-6.563 4.16-6.563-4.16 6.563-4.277 6.563 4.277zm-19.043-4.688l6.738-4.16 4.16 3.398-6.68 4.336-4.219-3.574zm4.219 5.859l6.621 4.16-3.75 2.871-6.387-4.277 3.516-2.754zm-.234 7.207l2.637 1.758c.352.234.703.215 1.055-.059l3.809-2.871v8.262l-7.5-4.219v-2.871zm16.875 2.871l-7.5 4.277v-8.438l3.867 2.988c.195.156.391.234.586.234.195 0 .371-.059.527-.176l2.52-1.699v2.813zm3.398-7.324l-6.387 4.277-3.75-2.871 6.621-4.16 3.516 2.754zm-3.516-5.039l-6.68-4.336 4.16-3.398 6.738 4.16-4.219 3.574z"/></svg>