<svg viewBox="0 0 32 32" enable-background="new 0 0 32 32" xmlns="http://www.w3.org/2000/svg"><title>social-facebook</title><path d="M18.031 3.344h2.637l-.059 2.813h-2.402c-.391 0-.693.098-.908.293-.215.195-.342.391-.381.586v4.746h4.688l-.645 2.813h-4.102v14.063h-2.812v-14.063h-3.691v-2.813h3.691v-4.395c0-.859.166-1.592.498-2.197.332-.605.742-1.025 1.23-1.26.488-.234.908-.391 1.26-.469.352-.078.684-.117.996-.117zm0-1.875c-1.211 0-2.285.293-3.223.879-1.758 1.055-2.637 2.734-2.637 5.039v2.52h-1.816c-.547 0-.996.186-1.348.557-.352.371-.527.811-.527 1.318v2.813c0 .508.176.947.527 1.318.352.371.801.557 1.348.557h1.816v12.188c0 .508.186.947.557 1.318.371.371.811.557 1.318.557h2.812c.547 0 .996-.186 1.348-.557.352-.371.527-.811.527-1.318v-12.188h2.227c.43 0 .811-.127 1.143-.381.332-.254.557-.576.674-.967l.645-2.813c.195-.586.098-1.133-.293-1.641s-.898-.762-1.523-.762h-2.813v-1.875h1.816c.547 0 .996-.176 1.348-.527.352-.352.527-.801.527-1.348l.059-2.695v-.117c0-.508-.186-.947-.557-1.318-.371-.371-.811-.557-1.318-.557h-2.636z"/></svg>