<svg viewBox="0 0 32 32" enable-background="new 0 0 32 32" xmlns="http://www.w3.org/2000/svg"><title>magnifier</title><path d="M30.824 29.418l-9.082-9.199c1.797-2.188 2.695-4.687 2.695-7.5 0-3.242-1.143-6.006-3.428-8.291s-5.049-3.428-8.291-3.428-6.006 1.143-8.291 3.428-3.428 5.049-3.428 8.291 1.143 6.006 3.428 8.291 5.049 3.428 8.291 3.428c2.93 0 5.488-.957 7.676-2.871l9.141 9.141c.43.43.869.43 1.318 0 .449-.43.439-.859-.029-1.289zm-18.076-6.855c-2.715 0-5.039-.957-6.973-2.871-1.934-1.914-2.9-4.238-2.9-6.973 0-2.734.967-5.059 2.9-6.973 1.934-1.914 4.258-2.871 6.973-2.871s5.039.957 6.973 2.871c1.934 1.914 2.9 4.238 2.9 6.973 0 2.734-.967 5.059-2.9 6.973-1.934 1.914-4.258 2.871-6.973 2.871z"/></svg>