<svg viewBox="0 0 32 32" enable-background="new 0 0 32 32" xmlns="http://www.w3.org/2000/svg"><title>logout</title><path d="M4.398 16.938h16.289c.234 0 .449-.098.645-.293.195-.195.293-.42.293-.674 0-.254-.098-.469-.293-.645-.195-.176-.41-.264-.645-.264h-16.23l3.398-3.398c.469-.43.479-.869.029-1.318-.449-.449-.889-.459-1.318-.029l-5.566 5.684 5.566 5.684c.156.195.371.293.645.293.273 0 .488-.098.645-.293.469-.43.469-.859 0-1.289l-3.457-3.457zm24.727-15.938h-15.938c-.508 0-.947.186-1.318.557-.371.371-.557.811-.557 1.318v8.438h1.875v-7.266c0-.352.107-.635.322-.85.215-.215.479-.322.791-.322h13.652c.313 0 .576.107.791.322.215.215.322.498.322.85l.059 23.965c0 .313-.117.576-.352.791-.234.215-.508.322-.82.322h-13.652c-.313 0-.576-.107-.791-.322-.215-.215-.322-.479-.322-.791v-7.383l-1.875.059v8.438c0 .508.186.947.557 1.318.371.371.811.557 1.318.557h15.938c.508 0 .947-.186 1.318-.557.371-.371.557-.811.557-1.318v-26.25c0-.508-.186-.947-.557-1.318-.371-.371-.811-.557-1.318-.557z"/></svg>