<svg viewBox="0 0 32 32" enable-background="new 0 0 32 32" xmlns="http://www.w3.org/2000/svg"><title>arrow-down</title><path d="M1 16c0 4.141 1.465 7.676 4.395 10.605 2.93 2.93 6.465 4.395 10.605 4.395 4.141 0 7.676-1.465 10.605-4.395 2.93-2.93 4.395-6.465 4.395-10.605 0-4.141-1.465-7.676-4.395-10.605-2.93-2.93-6.465-4.395-10.605-4.395-4.141 0-7.676 1.465-10.605 4.395-2.93 2.93-4.395 6.465-4.395 10.605zm28.184 0c0 3.633-1.289 6.729-3.867 9.287-2.578 2.559-5.684 3.838-9.316 3.838-3.633 0-6.729-1.279-9.287-3.838-2.559-2.559-3.838-5.654-3.838-9.287 0-3.633 1.279-6.729 3.838-9.287 2.559-2.559 5.654-3.838 9.287-3.838 3.633 0 6.738 1.279 9.316 3.838 2.578 2.559 3.867 5.654 3.867 9.287zm-14.121-6.563v10.547l-3.398-3.398c-.43-.43-.869-.43-1.318 0-.449.43-.459.879-.029 1.348l5.684 5.508 5.684-5.508c.195-.195.293-.42.293-.674 0-.254-.098-.479-.293-.674-.43-.43-.859-.43-1.289 0l-3.457 3.457v-10.605c0-.273-.098-.498-.293-.674-.195-.176-.42-.264-.674-.264-.254 0-.469.088-.645.264-.176.176-.264.4-.264.674z"/></svg>