<svg viewBox="0 0 32 32" enable-background="new 0 0 32 32" xmlns="http://www.w3.org/2000/svg"><title>question</title><path d="M16 1c-4.141 0-7.676 1.465-10.605 4.395-2.93 2.93-4.395 6.465-4.395 10.605 0 4.141 1.465 7.676 4.395 10.605 2.93 2.93 6.465 4.395 10.605 4.395 4.141 0 7.676-1.465 10.605-4.395 2.93-2.93 4.395-6.465 4.395-10.605 0-4.141-1.465-7.676-4.395-10.605-2.93-2.93-6.465-4.395-10.605-4.395zm0 28.184c-3.633 0-6.729-1.289-9.287-3.867-2.559-2.578-3.838-5.684-3.838-9.316 0-3.633 1.279-6.729 3.838-9.287 2.559-2.559 5.654-3.838 9.287-3.838 3.633 0 6.729 1.279 9.287 3.838 2.559 2.559 3.838 5.654 3.838 9.287 0 3.633-1.279 6.738-3.838 9.316-2.559 2.578-5.654 3.867-9.287 3.867zm-1.406-4.746h2.402v-2.344h-2.402v2.344zm1.406-16.875c-1.406 0-2.549.371-3.428 1.113s-1.318 1.895-1.318 3.457l.059.059h2.168c0-1.055.244-1.777.732-2.168.488-.391 1.084-.586 1.787-.586.781 0 1.387.215 1.816.645.43.43.645 1.055.645 1.875 0 .703-.156 1.289-.469 1.758-.313.469-.859 1.152-1.641 2.051-.781.703-1.26 1.27-1.436 1.699-.176.43-.264 1.191-.264 2.285h2.227c0-.703.049-1.211.146-1.523.098-.313.342-.684.732-1.113.898-.859 1.621-1.699 2.168-2.52.547-.82.82-1.719.82-2.695 0-1.367-.42-2.432-1.26-3.193-.84-.762-2.002-1.143-3.486-1.143z"/></svg>