<svg viewBox="0 0 32 32" enable-background="new 0 0 32 32" xmlns="http://www.w3.org/2000/svg"><title>like</title><path d="M18.813 31c-2.734 0-4.766-.049-6.094-.146-1.328-.098-2.139-.205-2.432-.322-.293-.117-.654-.352-1.084-.703-.586-.43-2.422-.742-5.508-.938-.313-.039-.547-.156-.703-.352-.117-.156-.303-.469-.557-.938-.254-.469-.557-1.328-.908-2.578-.352-1.25-.527-2.559-.527-3.926 0-2.813.469-4.98 1.406-6.504.195-.313.469-.469.82-.469 1.641 0 3.447-.996 5.42-2.988 1.973-1.992 3.662-4.687 5.068-8.086l.176-.439c.078-.215.137-.352.176-.41l.176-.322c.078-.156.146-.264.205-.322l.264-.234c.117-.098.244-.156.381-.176l.498-.088c.195-.039.41-.059.645-.059.508 0 1.035.166 1.582.498.547.332.957.752 1.23 1.26.391.625.615 1.494.674 2.607.059 1.113.02 2.168-.117 3.164s-.303 1.943-.498 2.842c3.477-.039 5.84-.059 7.09-.059 1.133 0 2.061.312 2.783.938.723.625 1.084 1.445 1.084 2.461.039.859-.039 1.504-.234 1.934.781.781 1.172 1.543 1.172 2.285.039.898-.391 1.836-1.289 2.813.234.703.332 1.191.293 1.465-.039 1.055-.645 1.992-1.816 2.813.078.664.059 1.25-.059 1.758-.469 2.148-3.574 3.223-9.316 3.223zm-14.59-4.043c3.203.273 5.234.742 6.094 1.406.313.234.586.391.82.469.234.078.937.146 2.109.205s3.027.088 5.566.088c4.727 0 7.227-.586 7.5-1.758.078-.43-.098-.859-.527-1.289h-.059c-.078-.234-.068-.479.029-.732.098-.254.264-.42.498-.498 1.25-.469 1.875-1.055 1.875-1.758.039-.391-.098-.742-.41-1.055-.352-.547-.273-.977.234-1.289.82-.664 1.211-1.25 1.172-1.758 0-.508-.371-.977-1.113-1.406-.234-.117-.381-.322-.439-.615-.059-.293.01-.537.205-.732l.117-.264.205-.527c.098-.254.127-.479.088-.674 0-1.055-.664-1.582-1.992-1.582h-8.438c-.352 0-.625-.137-.82-.41-.156-.234-.176-.527-.059-.879.508-1.406.83-2.92.967-4.541.137-1.621.01-2.842-.381-3.662-.039 0-.088-.068-.146-.205-.059-.137-.107-.225-.146-.264l-.176-.176c-.078-.078-.186-.127-.322-.146-.137-.02-.283-.029-.439-.029-.273 0-.527.293-.762.879-1.523 3.633-3.35 6.523-5.479 8.672-2.129 2.148-4.189 3.34-6.182 3.574-.625 1.445-.938 3.145-.938 5.098 0 2.422.449 4.375 1.348 5.859z"/></svg>