<svg viewBox="0 0 32 32" enable-background="new 0 0 32 32" xmlns="http://www.w3.org/2000/svg"><title>eyeglasses</title><path d="M31.059 20.102c0-.039-.605-3.633-1.816-10.781 0-.078-.02-.234-.059-.469-.078-.508-.166-.928-.264-1.26-.098-.332-.293-.752-.586-1.26s-.781-.898-1.465-1.172c-.684-.273-1.533-.41-2.549-.41-.234 0-.449.088-.645.264-.195.176-.293.4-.293.674 0 .273.098.498.293.674.195.176.41.264.645.264.664 0 1.191.059 1.582.176.391.117.684.312.879.586.195.273.322.518.381.732.059.215.107.537.146.967.039.234.078.41.117.527 0 .039.127.771.381 2.197.254 1.426.459 2.666.615 3.721-1.172-.898-2.48-1.348-3.926-1.348-1.172 0-2.266.283-3.281.85-1.016.566-1.816 1.338-2.402 2.314-.859-.313-1.797-.469-2.813-.469-1.016 0-1.934.176-2.754.527-.586-.977-1.377-1.758-2.373-2.344-.996-.586-2.08-.879-3.252-.879-1.563 0-2.949.488-4.16 1.465.156-1.055.371-2.314.645-3.779.273-1.465.41-2.217.41-2.256 0-.117.02-.293.059-.527.078-.43.146-.752.205-.967.059-.215.176-.459.352-.732.176-.273.469-.469.879-.586.41-.117.928-.176 1.553-.176.273 0 .498-.088.674-.264.176-.176.264-.4.264-.674 0-.273-.088-.498-.264-.674-.176-.176-.4-.264-.674-.264-1.016 0-1.855.137-2.52.41-.664.273-1.152.664-1.465 1.172-.313.508-.518.928-.615 1.26-.098.332-.186.752-.264 1.26 0 .234-.02.391-.059.469-1.094 6.523-1.66 10.098-1.699 10.723 0 .078.02.156.059.234l-.059.41c0 1.797.654 3.34 1.963 4.629 1.309 1.289 2.871 1.934 4.688 1.934 1.816 0 3.359-.635 4.629-1.904 1.27-1.27 1.904-2.822 1.904-4.658 0-.508-.059-1.035-.176-1.582.586-.234 1.27-.352 2.051-.352.742 0 1.426.117 2.051.352-.156.547-.234 1.074-.234 1.582 0 1.797.654 3.34 1.963 4.629 1.309 1.289 2.871 1.934 4.688 1.934 1.816 0 3.359-.635 4.629-1.904 1.27-1.27 1.904-2.822 1.904-4.658v-.292c.039-.117.059-.215.059-.293zm-23.438 5.273c-1.289 0-2.412-.459-3.369-1.377-.957-.918-1.436-2.012-1.436-3.281 0-1.27.479-2.363 1.436-3.281.957-.918 2.08-1.377 3.369-1.377 1.289 0 2.383.449 3.281 1.348.898.898 1.348 1.992 1.348 3.281 0 1.289-.449 2.393-1.348 3.311-.898.918-1.992 1.377-3.281 1.377zm16.875 0c-1.289 0-2.412-.459-3.369-1.377-.957-.918-1.436-2.012-1.436-3.281 0-1.27.479-2.363 1.436-3.281.957-.918 2.08-1.377 3.369-1.377 1.094 0 2.061.342 2.9 1.025.84.684 1.377 1.553 1.611 2.607.039.195.059.371.059.527 0 .078.02.156.059.234v.234c0 1.289-.449 2.393-1.348 3.311-.898.918-1.992 1.377-3.281 1.377z"/></svg>