<svg viewBox="0 0 32 32" enable-background="new 0 0 32 32" xmlns="http://www.w3.org/2000/svg"><title>calculator</title><path d="M29.125 1h-26.25c-.508 0-.947.186-1.318.557-.371.371-.557.811-.557 1.318v26.25c0 .508.186.947.557 1.318.371.371.811.557 1.318.557h26.25c.508 0 .947-.186 1.318-.557.371-.371.557-.811.557-1.318v-26.25c0-.508-.186-.947-.557-1.318-.371-.371-.811-.557-1.318-.557zm0 28.125h-26.25v-26.25h26.25v26.25zm-21.563-17.813h1.875v1.875c0 .273.088.498.264.674.176.176.4.264.674.264.273 0 .498-.088.674-.264.176-.176.264-.4.264-.674v-1.875h1.875c.273 0 .498-.088.674-.264.176-.176.264-.391.264-.645s-.088-.479-.264-.674c-.176-.195-.4-.293-.674-.293h-1.875v-1.875c0-.234-.088-.449-.264-.645-.176-.195-.4-.293-.674-.293-.273 0-.498.098-.674.293-.176.195-.264.41-.264.645v1.875h-1.875c-.273 0-.498.098-.674.293-.176.195-.264.42-.264.674 0 .254.088.469.264.645.176.176.4.264.674.264zm6.123 7.002c-.449-.449-.889-.439-1.318.029l-1.992 1.992-1.992-1.992c-.43-.469-.869-.479-1.318-.029-.449.449-.459.889-.029 1.318l1.992 1.992-1.992 1.992c-.43.43-.42.869.029 1.318.449.449.889.459 1.318.029l1.992-1.992 1.992 1.992c.43.43.869.42 1.318-.029.449-.449.459-.889.029-1.318l-1.992-1.992 1.992-1.992c.43-.43.42-.869-.029-1.318zm5.127-7.002h5.625c.273 0 .498-.088.674-.264.176-.176.264-.391.264-.645s-.088-.479-.264-.674c-.176-.195-.4-.293-.674-.293h-5.625c-.273 0-.498.098-.674.293-.176.195-.264.42-.264.674 0 .254.088.469.264.645.176.176.4.264.674.264zm0 9.375h5.625c.273 0 .498-.088.674-.264.176-.176.264-.391.264-.645s-.088-.479-.264-.674c-.176-.195-.4-.293-.674-.293h-5.625c-.273 0-.498.098-.674.293-.176.195-.264.42-.264.674 0 .254.088.469.264.645.176.176.4.264.674.264zm0 3.75h5.625c.273 0 .498-.088.674-.264.176-.176.264-.391.264-.645s-.088-.479-.264-.674c-.176-.195-.4-.293-.674-.293h-5.625c-.273 0-.498.098-.674.293-.176.195-.264.42-.264.674 0 .254.088.469.264.645.176.176.4.264.674.264z"/></svg>