<svg viewBox="0 0 32 32" enable-background="new 0 0 32 32" xmlns="http://www.w3.org/2000/svg"><title>tag</title><path d="M31 13.188v-9.902c0-.625-.225-1.162-.674-1.611-.449-.449-.986-.674-1.611-.674h-10.137c-1.055 0-1.797.215-2.227.645l-14.824 14.824c-.352.352-.527.791-.527 1.318s.176.967.527 1.318l11.367 11.367c.352.352.791.527 1.318.527s.967-.176 1.318-.527l14.824-14.824c.43-.43.645-1.25.645-2.461zm-1.934 1.113l-14.883 14.824-11.309-11.367 14.824-14.766c.078-.078.371-.117.879-.117h10.137c.273 0 .41.137.41.41v9.902c0 .625-.02.996-.059 1.113zm-5.537-9.551c-1.035 0-1.924.361-2.666 1.084-.742.723-1.113 1.611-1.113 2.666s.371 1.943 1.113 2.666c.742.723 1.631 1.084 2.666 1.084s1.914-.361 2.637-1.084c.723-.723 1.084-1.611 1.084-2.666s-.361-1.943-1.084-2.666c-.723-.723-1.602-1.084-2.637-1.084zm-.029 5.625c-.508 0-.947-.186-1.318-.557-.371-.371-.557-.811-.557-1.318 0-.508.186-.947.557-1.318.371-.371.811-.557 1.318-.557.508 0 .947.186 1.318.557.371.371.557.811.557 1.318 0 .508-.186.947-.557 1.318-.371.371-.811.557-1.318.557z"/></svg>