<svg viewBox="0 0 32 32" enable-background="new 0 0 32 32" xmlns="http://www.w3.org/2000/svg"><title>volume-1</title><path d="M20.377 3.113c-.332-.176-.654-.146-.967.088l-9.434 7.383h-3.105c-.781 0-1.455.244-2.021.732-.566.488-.85 1.084-.85 1.787v6.211c0 .664.283 1.25.85 1.758.566.508 1.26.762 2.08.762h3.105l9.375 7.383c.156.117.332.176.527.176.156 0 .293-.039.41-.117.352-.156.527-.43.527-.82v-24.492c0-.391-.166-.674-.498-.85zm-1.377 23.584l-8.145-6.563c-.156-.117-.332-.176-.527-.176h-3.398c-.273 0-.518-.068-.732-.205-.215-.137-.322-.283-.322-.439v-6.211c0-.156.098-.303.293-.439.195-.137.43-.205.703-.205h3.398c.195 0 .371-.059.527-.176l8.203-6.562v20.977zm5.332-15.293c-.273-.039-.508.01-.703.146-.195.137-.322.342-.381.615-.059.273-.01.508.146.703.156.195.371.312.645.352.742.156 1.338.518 1.787 1.084.449.566.674 1.26.674 2.08 0 .742-.234 1.406-.703 1.992-.469.586-1.074.957-1.816 1.113-.234.039-.43.166-.586.381-.156.215-.195.459-.117.732.078.508.371.762.879.762.078 0 .137-.02.176-.059 1.172-.195 2.139-.762 2.9-1.699.762-.938 1.143-2.012 1.143-3.223 0-1.25-.381-2.344-1.143-3.281-.762-.938-1.729-1.504-2.9-1.699z"/></svg>