<svg viewBox="0 0 32 32" enable-background="new 0 0 32 32" xmlns="http://www.w3.org/2000/svg"><title>playlist</title><path d="M1.963 2.875h13.125c.273 0 .498-.088.674-.264.176-.176.264-.4.264-.674 0-.273-.088-.498-.264-.674-.176-.176-.4-.264-.674-.264h-13.125c-.273 0-.498.088-.674.264-.176.176-.264.4-.264.674 0 .273.088.498.264.674.176.176.4.264.674.264zm0 5.625h13.125c.273 0 .498-.088.674-.264.176-.176.264-.4.264-.674 0-.273-.088-.498-.264-.674-.176-.176-.4-.264-.674-.264h-13.125c-.273 0-.498.088-.674.264-.176.176-.264.4-.264.674 0 .273.088.498.264.674.176.176.4.264.674.264zm14.063 4.688c0-.273-.088-.498-.264-.674-.176-.176-.4-.264-.674-.264h-13.125c-.273 0-.498.088-.674.264-.176.176-.264.4-.264.674 0 .273.088.498.264.674.176.176.4.264.674.264h13.125c.273 0 .498-.088.674-.264.176-.176.264-.4.264-.674zm14.59-2.695l-9.141-9.141c-.313-.313-.664-.371-1.055-.176-.43.156-.645.449-.645.879v20.742c-1.055-.781-2.305-1.172-3.75-1.172-1.563 0-2.891.459-3.984 1.377-1.094.918-1.641 2.021-1.641 3.311 0 1.289.547 2.393 1.641 3.311 1.094.918 2.422 1.377 3.984 1.377 1.563 0 2.891-.459 3.984-1.377 1.094-.918 1.641-2.021 1.641-3.311v-22.149l7.676 7.676c.43.43.869.43 1.318 0 .449-.43.439-.879-.029-1.348zm-10.84 15.938c-.039.664-.42 1.279-1.143 1.846-.723.566-1.592.85-2.607.85-1.055 0-1.943-.293-2.666-.879-.723-.586-1.084-1.23-1.084-1.934 0-.703.361-1.348 1.084-1.934.723-.586 1.611-.879 2.666-.879 1.016 0 1.885.283 2.607.85.723.566 1.104 1.182 1.143 1.846v.234z"/></svg>