<svg viewBox="0 0 32 32" enable-background="new 0 0 32 32" xmlns="http://www.w3.org/2000/svg"><title>control-end</title><path d="M28.656 1c-.273 0-.498.088-.674.264-.176.176-.264.4-.264.674v13.77c-.078-.547-.371-.977-.879-1.289l-21.563-13.066c-.273-.195-.586-.293-.938-.293s-.664.078-.938.234c-.625.352-.938.898-.938 1.641l-.059 26.133c0 .742.312 1.289.938 1.641.313.156.625.234.938.234.352 0 .684-.098.996-.293l21.563-13.066c.508-.313.801-.742.879-1.289v13.77c0 .273.088.498.264.674.176.176.4.264.674.264.273 0 .498-.088.674-.264.176-.176.264-.4.264-.674v-28.125c0-.273-.088-.498-.264-.674-.176-.176-.4-.264-.674-.264zm-24.375 28.066l.059-26.133 21.504 13.066-21.563 13.066z"/></svg>