<svg viewBox="0 0 32 32" enable-background="new 0 0 32 32" xmlns="http://www.w3.org/2000/svg"><title>phone-vertical</title><path d="M22.063 1h-11.25c-.781 0-1.445.273-1.992.82-.547.547-.82 1.211-.82 1.992v24.375c0 .781.273 1.445.82 1.992.547.547 1.211.82 1.992.82h11.25c.781 0 1.445-.273 1.992-.82.547-.547.82-1.211.82-1.992v-24.375c0-.781-.273-1.445-.82-1.992-.547-.547-1.211-.82-1.992-.82zm.938 27.188c0 .273-.088.498-.264.674-.176.176-.4.264-.674.264h-11.25c-.273 0-.498-.088-.674-.264-.176-.176-.264-.4-.264-.674v-24.375c0-.273.088-.498.264-.674.176-.176.4-.264.674-.264h11.25c.273 0 .498.088.674.264.176.176.264.4.264.674v24.375zm-6.563-3.75c-.508 0-.947.186-1.318.557-.371.371-.557.811-.557 1.318 0 .508.186.947.557 1.318.371.371.811.557 1.318.557.508 0 .947-.186 1.318-.557.371-.371.557-.811.557-1.318 0-.508-.186-.947-.557-1.318-.371-.371-.811-.557-1.318-.557zm1.875-20.625h-3.75c-.273 0-.498.088-.674.264-.176.176-.264.4-.264.674 0 .273.088.498.264.674.176.176.4.264.674.264h3.75c.273 0 .498-.088.674-.264.176-.176.264-.4.264-.674 0-.273-.088-.498-.264-.674-.176-.176-.4-.264-.674-.264z"/></svg>