<svg viewBox="0 0 32 32" enable-background="new 0 0 32 32" xmlns="http://www.w3.org/2000/svg"><title>bubble</title><path d="M16 4.875c3.633 0 6.729.918 9.287 2.754 2.559 1.836 3.838 4.043 3.838 6.621 0 2.578-1.279 4.785-3.838 6.621-2.559 1.836-5.654 2.754-9.287 2.754h-.762c-.508 0-.977-.039-1.406-.117l-1.055-.117-.645.82c-.195.234-.654.615-1.377 1.143-.723.527-1.475.986-2.256 1.377.391-1.094.605-2.09.645-2.988v-1.348l-1.055-.527c-1.641-.859-2.92-1.953-3.838-3.281-.918-1.328-1.377-2.773-1.377-4.336 0-2.578 1.279-4.785 3.838-6.621 2.559-1.836 5.654-2.754 9.287-2.754zm0-1.875c-4.141 0-7.676 1.094-10.605 3.281-2.93 2.188-4.395 4.844-4.395 7.969 0 1.914.547 3.682 1.641 5.303 1.094 1.621 2.637 2.939 4.629 3.955v.059c0 1.289-.508 2.793-1.523 4.512-.039.117-.059.234-.059.352 0 .234.078.43.234.586.156.156.371.234.645.234h.235c1.25-.234 2.568-.791 3.955-1.67 1.387-.879 2.314-1.611 2.783-2.197.508.078 1.074.117 1.699.117h.762c4.141 0 7.676-1.094 10.605-3.281 2.93-2.188 4.395-4.844 4.395-7.969s-1.465-5.781-4.395-7.969c-2.93-2.188-6.465-3.281-10.605-3.281z"/></svg>