<svg viewBox="0 0 32 32" enable-background="new 0 0 32 32" xmlns="http://www.w3.org/2000/svg"><title>briefcase</title><path d="M29.125 6.629h-7.5v-1.816c0-.781-.273-1.445-.82-1.992-.547-.547-1.211-.82-1.992-.82h-5.625c-.781 0-1.445.273-1.992.82-.547.547-.82 1.211-.82 1.992v1.816h-7.5c-.508 0-.947.186-1.318.557-.371.371-.557.811-.557 1.318v19.628c0 .508.186.947.557 1.318.371.371.811.557 1.318.557h26.25c.508 0 .947-.186 1.318-.557.371-.371.557-.811.557-1.318v-19.629c0-.508-.186-.947-.557-1.318-.371-.371-.811-.557-1.318-.557zm-16.875-1.816c0-.273.088-.498.264-.674.176-.176.4-.264.674-.264h5.625c.273 0 .498.088.674.264.176.176.264.4.264.674v1.816h-7.5v-1.816zm-9.375 3.691h26.25v6.562h-10.313v-.996c0-.508-.186-.947-.557-1.318-.371-.371-.811-.557-1.318-.557h-1.875c-.508 0-.947.186-1.318.557-.371.371-.557.811-.557 1.318v.996h-10.313v-6.562zm14.063 10.312h-1.875v-4.746h1.875v4.746zm-14.063 9.316v-11.191h10.313v1.875c0 .508.186.947.557 1.318.371.371.811.557 1.318.557h1.875c.508 0 .947-.186 1.318-.557.371-.371.557-.811.557-1.318v-1.875h10.313v11.191h-26.25z"/></svg>