<svg viewBox="0 0 32 32" enable-background="new 0 0 32 32" xmlns="http://www.w3.org/2000/svg"><title>user-female</title><path d="M29.125 24.496l-8.145-3.867c.273-.117.879-.254 1.816-.41.938-.156 1.787-.332 2.549-.527s1.201-.43 1.318-.703c-1.133-1.719-1.836-3.691-2.109-5.918 0-.234-.088-.967-.264-2.197-.176-1.23-.322-2.314-.439-3.252-.195-1.953-1.035-3.545-2.52-4.775-1.484-1.23-3.262-1.846-5.332-1.846s-3.848.615-5.332 1.846c-1.484 1.23-2.324 2.822-2.52 4.775-.117.938-.264 2.021-.439 3.252-.176 1.23-.264 1.943-.264 2.139-.117 1.016-.352 2.012-.703 2.988-.352.977-.684 1.719-.996 2.227l-.41.762c.117.273.557.508 1.318.703.762.195 1.611.371 2.549.527.938.156 1.543.293 1.816.41l-8.145 3.867-.527.264c-.195.098-.469.332-.82.703-.352.371-.527.791-.527 1.26v2.461c0 .508.186.937.557 1.289.371.352.811.527 1.318.527h26.25c.508 0 .947-.176 1.318-.527.371-.352.557-.781.557-1.289v-2.461c0-.469-.156-.889-.469-1.26-.313-.371-.625-.615-.938-.732l-.469-.234zm-26.25 4.629v-2.402c0-.117.215-.273.645-.469l.176-.059 8.145-3.867c.703-.313 1.055-.859 1.055-1.641 0-.781-.332-1.348-.996-1.699-.469-.234-1.406-.469-2.813-.703-.43-.078-.82-.156-1.172-.234.742-1.602 1.211-3.203 1.406-4.805.039-.313.098-.84.176-1.582l.527-3.809c.156-1.445.791-2.637 1.904-3.574 1.113-.938 2.471-1.406 4.072-1.406 1.602 0 2.959.469 4.072 1.406 1.113.938 1.748 2.129 1.904 3.574l.527 3.809c.078.742.137 1.27.176 1.582.195 1.602.664 3.203 1.406 4.805-.352.078-.742.156-1.172.234-1.406.234-2.344.469-2.813.703-.664.352-.996.918-.996 1.699s.352 1.328 1.055 1.641l8.145 3.867.176.059c.352.156.566.312.645.469v2.402h-26.25z"/></svg>