<svg xmlns="http://www.w3.org/2000/svg" viewBox="0 0 12 12" enable-background="new 0 0 12 12"><path d="M10.7.3c.2.2.3.5.3.8v9.8c0 .3-.1.6-.3.8s-.4.3-.7.3h-7.5c-.2 0-.4-.1-.5-.2s-.2-.3-.2-.6v-1.5h-.5c-.1 0-.2 0-.2-.1s-.1-.1-.1-.2 0-.2.1-.3.1-.1.2-.1h.4v-1.5h-.4c-.1 0-.2 0-.2-.1s-.1-.2-.1-.3 0-.2.1-.3l.2-.1h.4v-1.5h-.4c-.1 0-.2 0-.3-.1v-.2s0-.2.1-.3.2-.1.3-.1h.4v-1.5h-.5c-.1 0-.2 0-.3-.1s-.1-.2-.1-.3l.1-.2s.2-.1.3-.1h.4v-1.5c0-.2.1-.4.2-.5s.3-.3.6-.3h7.5c.3 0 .5.1.7.3zm-2.2 10.9v-10.4h-6v1.5h.4c.1 0 .2 0 .3.1s.1.2.1.3 0 .2-.1.3h-.7v1.5h.4c.1 0 .2 0 .2.1s.1.2.1.3 0 .2-.1.3h-.6000000000000001v1.5h.4c.1 0 .2 0 .3.1v.3s0 .2-.1.3-.2.1-.3.1h-.3v1.5h.4s.1 0 .2.1.1.2.1.3 0 .2-.1.3h-.6v1.5h6zm1.8-10.1c0-.1 0-.2-.1-.3h-1v10.5h.8c.1 0 .2 0 .3-.1s.1-.2.1-.3v-9.8z"/></svg>