<svg viewBox="0 0 32 32" enable-background="new 0 0 32 32" xmlns="http://www.w3.org/2000/svg"><title>lock-open</title><path d="M24.625 12.342h-13.359l-.527-2.227c-.43-1.563-.283-3.018.439-4.365.723-1.348 1.885-2.236 3.486-2.666 1.602-.43 3.057-.244 4.365.557 1.309.801 2.178 2.002 2.607 3.604l.352 1.582c.078.234.234.42.469.557.234.137.469.166.703.088.234-.078.42-.225.557-.439.137-.215.166-.459.088-.732l-.352-1.582c-.586-2.07-1.748-3.633-3.486-4.688-1.738-1.055-3.662-1.299-5.771-.732-2.109.566-3.652 1.738-4.629 3.516-.977 1.777-1.191 3.721-.645 5.83l.41 1.699h-1.582c-1.016 0-1.895.361-2.637 1.084-.742.723-1.113 1.611-1.113 2.666v11.25c0 1.016.371 1.895 1.113 2.637s1.621 1.113 2.637 1.113h16.875c1.016 0 1.895-.371 2.637-1.113s1.113-1.621 1.113-2.637v-11.25c0-1.055-.371-1.943-1.113-2.666-.742-.723-1.621-1.084-2.637-1.084zm1.875 15c0 .508-.186.947-.557 1.318-.371.371-.811.557-1.318.557h-16.875c-.508 0-.947-.186-1.318-.557-.371-.371-.557-.811-.557-1.318v-11.25c0-.547.186-.996.557-1.348.371-.352.811-.527 1.318-.527h16.875c.508 0 .947.176 1.318.527.371.352.557.801.557 1.348v11.25zm-10.313-9.375c-.508 0-.947.176-1.318.527-.371.352-.557.801-.557 1.348 0 .703.312 1.23.938 1.582v3.105c0 .234.088.449.264.645.176.195.4.293.674.293.273 0 .498-.098.674-.293.176-.195.264-.41.264-.645v-3.105c.625-.352.938-.879.938-1.582 0-.547-.186-.996-.557-1.348-.371-.352-.811-.527-1.318-.527z"/></svg>