<svg viewBox="0 0 32 32" enable-background="new 0 0 32 32" xmlns="http://www.w3.org/2000/svg"><title>printer</title><path d="M28.891 8.441h-3.516v-7.441h-18.75v7.441h-3.516c-.586 0-1.084.205-1.494.615-.41.41-.615.908-.615 1.494v12.715c0 .586.205 1.084.615 1.494.41.41.908.615 1.494.615h3.516v5.625h18.75v-5.625h3.516c.586 0 1.084-.205 1.494-.615.41-.41.615-.908.615-1.494v-12.715c0-.586-.205-1.084-.615-1.494-.41-.41-.908-.615-1.494-.615zm-20.391-5.566h15v5.566h-15v-5.566zm15 26.25h-15v-10.313h15v10.313zm5.625-5.859c0 .156-.078.234-.234.234h-3.516v-6.563h-18.75v6.563h-3.516c-.156 0-.234-.078-.234-.234v-12.715c0-.156.078-.234.234-.234h25.781c.156 0 .234.078.234.234v12.715zm-3.75-11.016h-.938c-.273 0-.498.088-.674.264-.176.176-.264.391-.264.645s.088.479.264.674c.176.195.4.293.674.293h.938c.273 0 .498-.098.674-.293.176-.195.264-.42.264-.674 0-.254-.088-.469-.264-.645-.176-.176-.4-.264-.674-.264z"/></svg>