<svg viewBox="0 0 32 32" enable-background="new 0 0 32 32" xmlns="http://www.w3.org/2000/svg"><title>link</title><path d="M9.672 22.475c.195.176.42.264.674.264.254 0 .459-.098.615-.293l11.367-11.426c.469-.43.479-.869.029-1.318-.449-.449-.889-.459-1.318-.029l-11.367 11.484c-.195.156-.293.371-.293.645 0 .273.098.498.293.674zm5.273-2.021c.313 1.445-.039 2.695-1.055 3.75l-3.809 3.691c-.82.82-1.816 1.23-2.988 1.23s-2.168-.41-2.988-1.23c-.82-.82-1.23-1.816-1.23-2.988s.41-2.168 1.23-2.988l3.691-3.809c.82-.82 1.816-1.23 2.988-1.23.352 0 .723.059 1.113.176l1.465-1.465c-.82-.391-1.68-.586-2.578-.586-1.68 0-3.125.605-4.336 1.816l-3.691 3.809c-1.172 1.172-1.758 2.598-1.758 4.277 0 1.68.596 3.115 1.787 4.307 1.191 1.191 2.627 1.787 4.307 1.787 1.68 0 3.125-.586 4.336-1.758l3.75-3.691c.898-.898 1.455-1.943 1.67-3.135.215-1.191.068-2.334-.439-3.428l-1.465 1.465zm14.268-17.666c-1.191-1.191-2.627-1.787-4.307-1.787-1.68 0-3.125.586-4.336 1.758l-3.75 3.691c-.938.938-1.504 2.051-1.699 3.34-.195 1.289-.02 2.5.527 3.633l1.465-1.465c-.469-1.602-.137-2.988.996-4.16l3.809-3.691c.82-.82 1.816-1.23 2.988-1.23s2.168.41 2.988 1.23c.82.82 1.23 1.816 1.23 2.988s-.41 2.168-1.23 2.988l-3.809 3.75c-.82.82-1.797 1.23-2.93 1.23h-.82l-1.523 1.465c.664.273 1.445.41 2.344.41 1.68 0 3.105-.586 4.277-1.758l3.809-3.809c1.172-1.172 1.758-2.598 1.758-4.277 0-1.68-.596-3.115-1.787-4.307z"/></svg>