<svg viewBox="0 0 32 32" enable-background="new 0 0 32 32" xmlns="http://www.w3.org/2000/svg"><title>handbag</title><path d="M30.923 28.598l-2.402-14.766c-.117-.938-.557-1.748-1.318-2.432-.762-.684-1.631-1.025-2.607-1.025h-2.051v-2.461c0-1.953-.615-3.594-1.846-4.922-1.23-1.328-2.793-1.992-4.688-1.992-1.895 0-3.467.664-4.717 1.992-1.25 1.328-1.875 2.969-1.875 4.922v2.461h-2.227c-.977 0-1.846.342-2.607 1.025-.762.684-1.201 1.494-1.318 2.432l-2.227 14.766c-.078.781.059 1.387.41 1.816.391.391.918.586 1.582.586h25.605c.781 0 1.387-.234 1.816-.703.391-.43.547-.996.469-1.699zm-19.629-20.684c0-1.445.439-2.646 1.318-3.604.879-.957 2.002-1.436 3.369-1.436 1.367 0 2.49.479 3.369 1.436s1.318 2.158 1.318 3.604v2.461h-9.375v-2.461zm17.461 21.211h-25.605c-.195 0-.293-.098-.293-.293l2.285-14.766c.078-.469.312-.889.703-1.26.391-.371.84-.557 1.348-.557h2.227v2.168c-.625.352-.938.879-.938 1.582 0 .547.186.996.557 1.348.371.352.811.527 1.318.527.508 0 .947-.176 1.318-.527.371-.352.557-.801.557-1.348 0-.703-.312-1.23-.938-1.582v-2.168h9.375v2.168c-.625.352-.938.879-.938 1.582 0 .547.186.996.557 1.348.371.352.811.527 1.318.527.508 0 .947-.176 1.318-.527.371-.352.557-.801.557-1.348 0-.703-.312-1.23-.938-1.582v-2.168h2.051c.508 0 .957.186 1.348.557.391.371.625.811.703 1.318l2.461 14.766c0 .156-.117.234-.352.234z"/></svg>