<svg viewBox="0 0 32 32" enable-background="new 0 0 32 32" xmlns="http://www.w3.org/2000/svg"><title>login</title><path d="M16.586 20.395c-.43.43-.43.859 0 1.289.195.195.42.293.674.293.254 0 .479-.098.674-.293l5.508-5.684-5.508-5.684c-.43-.43-.869-.42-1.318.029-.449.449-.459.889-.029 1.318l3.398 3.398h-18.047c-.273 0-.498.088-.674.264-.176.176-.264.391-.264.645s.088.479.264.674c.176.195.4.293.674.293h18.105l-3.457 3.457zm12.539-19.395h-16.875c-.508 0-.947.186-1.318.557-.371.371-.557.811-.557 1.318v8.438h1.875v-7.266c0-.352.117-.635.352-.85.234-.215.508-.322.82-.322h14.531c.313 0 .576.107.791.322.215.215.322.498.322.85l.059 23.965c0 .313-.107.576-.322.791-.215.215-.479.322-.791.322h-14.59c-.313 0-.586-.107-.82-.322-.234-.215-.352-.479-.352-.791v-7.383l-1.875.059v8.438c0 .508.186.947.557 1.318.371.371.811.557 1.318.557h16.875c.508 0 .947-.186 1.318-.557.371-.371.557-.811.557-1.318v-26.25c0-.508-.186-.947-.557-1.318-.371-.371-.811-.557-1.318-.557z"/></svg>