<svg viewBox="0 0 32 32" enable-background="new 0 0 32 32" xmlns="http://www.w3.org/2000/svg"><title>layers</title><path d="M1.645 9.848l13.887 7.559c.156.078.312.117.469.117.156 0 .312-.039.469-.117l14.063-7.559c.313-.195.469-.479.469-.85s-.176-.635-.527-.791l-13.887-7.09c-.273-.156-.566-.156-.879 0l-14.062 7.09c-.313.156-.479.42-.498.791-.02.371.146.654.498.85zm14.531-6.855l11.895 6.035-12.07 6.504-11.895-6.504 12.07-6.035zm14.18 12.07l-2.813-1.406-1.992 1.113 2.344 1.172-12.07 6.504-11.895-6.504 2.52-1.23-1.992-1.113-2.93 1.465c-.352.156-.527.43-.527.82 0 .391.156.664.469.82l13.945 7.617c.117.078.254.117.41.117.156 0 .312-.039.469-.117l14.063-7.617c.352-.156.518-.42.498-.791-.02-.371-.186-.654-.498-.85zm0 6.563l-2.637-1.289-2.051 1.113 2.227 1.055-12.07 6.504-11.895-6.504 2.344-1.055-1.992-1.113-2.754 1.289c-.352.156-.527.43-.527.82 0 .391.156.664.469.82l13.945 7.617c.117.078.254.117.41.117.156 0 .312-.039.469-.117l14.063-7.559c.352-.195.518-.479.498-.85-.02-.371-.186-.654-.498-.85z"/></svg>