<svg viewBox="0 0 32 32" enable-background="new 0 0 32 32" xmlns="http://www.w3.org/2000/svg"><title>envelope</title><path d="M31.01 8.109c0-.195-.039-.371-.117-.527-.234-1.055-.977-1.582-2.227-1.582h-24.375c-1.328 0-2.305.41-2.93 1.23l-.117.117c-.195.234-.273.488-.234.762v15.234c0 .781.352 1.523 1.055 2.227.703.703 1.445 1.055 2.227 1.055h24.375c.742 0 1.318-.332 1.729-.996.41-.664.615-1.426.615-2.285v-15.235zm-26.719-.234h24.375l-12.656 10.078-12.598-10.02c.117-.039.41-.059.879-.059zm24.375 16.875h-24.375c-.273 0-.576-.166-.908-.498-.332-.332-.498-.635-.498-.908v-13.418l12.539 10.02c.156.117.352.176.586.176.234 0 .43-.059.586-.176l12.539-10.02v13.418c0 .938-.156 1.406-.469 1.406z"/></svg>