<svg viewBox="0 0 32 32" enable-background="new 0 0 32 32" xmlns="http://www.w3.org/2000/svg"><title>note</title><path d="M24.436 29.125h-21.563v-23.438h13.125l1.934-1.816-.059-.059h-15c-.547 0-.996.186-1.348.557-.352.371-.527.811-.527 1.318v23.438c0 .508.176.947.527 1.318.352.371.801.557 1.348.557h21.563c.508 0 .947-.186 1.318-.557.371-.371.557-.811.557-1.318v-13.711l-1.875 1.758v11.953zm5.098-26.895c-.859-.82-1.777-1.23-2.754-1.23-1.133 0-2.148.43-3.047 1.289-.117.156-1.25 1.299-3.398 3.428s-4.258 4.229-6.328 6.299l-3.105 3.105c-.117.117-.195.254-.234.41-.273 1.055-.937 3.32-1.992 6.797-.117.313-.059.586.176.82.156.156.332.234.527.234.117 0 .215-.02.293-.059 2.539-.859 4.766-1.582 6.68-2.168.117-.039.215-.098.293-.176 8.359-8.242 12.676-12.5 12.949-12.773.977-1.016 1.445-2.031 1.406-3.047 0-1.055-.488-2.031-1.465-2.93zm-1.289 4.688c-.508.508-4.551 4.492-12.129 11.953l-.586.586c-.703.234-2.207.723-4.512 1.465.703-2.344 1.172-3.887 1.406-4.629l12.656-12.656c.508-.508 1.074-.762 1.699-.762.469 0 .957.234 1.465.703.586.547.879 1.074.879 1.582.039.547-.254 1.133-.879 1.758z"/></svg>