<svg viewBox="0 0 32 32" enable-background="new 0 0 32 32" xmlns="http://www.w3.org/2000/svg"><title>rocket</title><path d="M7.158 26.892c-.273.508-.498.869-.674 1.084-.176.215-.557.439-1.143.674-.586.234-1.406.352-2.461.352.078-1.445.244-2.402.498-2.871.254-.469.732-.879 1.436-1.23.742-.352 1.348-.703 1.816-1.055l-1.113-1.465c-.313.234-.82.527-1.523.879-1.133.547-1.914 1.25-2.344 2.109-.43.859-.645 2.383-.645 4.57v.938h.938c1.602 0 2.871-.127 3.809-.381.938-.254 1.592-.576 1.963-.967s.732-.957 1.084-1.699c.273-.625.488-1.055.645-1.289l-1.406-1.23c-.273.352-.566.879-.879 1.582zm14.502-20.391c-1.035 0-1.924.371-2.666 1.113s-1.113 1.631-1.113 2.666.371 1.924 1.113 2.666 1.631 1.113 2.666 1.113 1.924-.371 2.666-1.113 1.113-1.631 1.113-2.666-.371-1.924-1.113-2.666-1.631-1.113-2.666-1.113zm0 5.684c-.527 0-.977-.186-1.348-.557-.371-.371-.557-.82-.557-1.348 0-.527.186-.977.557-1.348.371-.371.82-.557 1.348-.557.527 0 .977.186 1.348.557.371.371.557.82.557 1.348 0 .527-.186.977-.557 1.348-.371.371-.82.557-1.348.557zm8.467-11.191c-.64-.029-3.584.01-5.361.264-1.777.254-3.428.654-4.951 1.201-1.797.703-3.379 1.855-4.746 3.457-.664.781-1.797 2.754-3.398 5.918-.508 1.055-.879 1.777-1.113 2.168h-5.215c-.273 0-.508.098-.703.293l-3.457 3.75c-.234.273-.293.576-.176.908.117.332.352.537.703.615l5.566 1.289c.273.313.957 1.074 2.051 2.285l2.109 2.344 1.172 4.863c.078.313.273.527.586.645.117.039.215.059.293.059.234 0 .449-.078.645-.234l3.457-3.457c.234-.195.352-.43.352-.703v-4.863c.117-.078.801-.469 2.051-1.172.352-.195 4.229-2.207 4.951-2.637.723-.43 1.279-.82 1.67-1.172 1.445-1.289 2.5-2.832 3.164-4.629.469-1.25.811-2.754 1.025-4.512.215-1.758.166-5.488.205-5.801-.039-.547-.332-.84-.879-.879zm-2.109 10.547c-.547 1.484-1.445 2.773-2.695 3.867-.313.313-.83.674-1.553 1.084-.723.41-1.602.879-2.637 1.406-1.035.527-1.729.889-2.08 1.084-1.563.898-2.461 1.445-2.695 1.641-.195.156-.293.391-.293.703v4.922l-1.992 2.168-.879-3.574c-.039-.156-.098-.293-.176-.41-2.852-3.164-4.375-4.844-4.57-5.039-.117-.156-.273-.254-.469-.293l-4.336-.996 2.109-2.227h5.332c.352 0 .625-.156.82-.469.273-.43.762-1.328 1.465-2.695 1.523-3.047 2.559-4.902 3.105-5.566 1.172-1.367 2.52-2.344 4.043-2.93 2.578-.938 5.449-1.406 8.613-1.406.078 3.594-.293 6.504-1.113 8.73z"/></svg>