<svg viewBox="0 0 32 32" enable-background="new 0 0 32 32" xmlns="http://www.w3.org/2000/svg"><title>disc</title><path d="M16 1c-4.141 0-7.676 1.465-10.605 4.395-2.93 2.93-4.395 6.465-4.395 10.605 0 4.141 1.465 7.676 4.395 10.605 2.93 2.93 6.465 4.395 10.605 4.395 4.141 0 7.676-1.465 10.605-4.395 2.93-2.93 4.395-6.465 4.395-10.605 0-4.141-1.465-7.676-4.395-10.605-2.93-2.93-6.465-4.395-10.605-4.395zm13.125 15c0 1.914-.391 3.73-1.172 5.449l-8.32-4.453c.117-.313.176-.645.176-.996 0-1.055-.371-1.953-1.113-2.695-.742-.742-1.641-1.113-2.695-1.113-.43 0-.84.078-1.23.234l-4.98-7.969c1.953-1.055 4.023-1.582 6.211-1.582 3.633 0 6.729 1.279 9.287 3.838 2.559 2.559 3.838 5.654 3.838 9.287zm-13.125-1.875c.508 0 .957.186 1.348.557.391.371.586.811.586 1.318 0 .508-.195.957-.586 1.348-.391.391-.84.586-1.348.586-.508 0-.947-.195-1.318-.586-.371-.391-.557-.84-.557-1.348 0-.508.186-.947.557-1.318.371-.371.811-.557 1.318-.557zm-7.793-8.672l4.98 8.027-.059.059-8.262-4.453c.898-1.445 2.012-2.656 3.34-3.633zm-5.332 10.547c0-1.836.371-3.594 1.113-5.273l8.32 4.453c-.078.273-.117.547-.117.82 0 1.055.371 1.953 1.113 2.695.742.742 1.641 1.113 2.695 1.113.352 0 .703-.059 1.055-.176l4.98 8.027c-1.875.977-3.887 1.465-6.035 1.465-3.633 0-6.729-1.279-9.287-3.838-2.559-2.559-3.838-5.654-3.838-9.287zm20.742 10.664l-4.98-7.969.059-.059 8.32 4.453c-.898 1.406-2.031 2.598-3.398 3.574z"/></svg>