<svg viewBox="0 0 32 32" enable-background="new 0 0 32 32" xmlns="http://www.w3.org/2000/svg"><title>camcorder</title><path d="M19.691 7.875l.059.059v3.75c0 .742.332 1.289.996 1.641.273.156.566.234.879.234.43 0 .801-.117 1.113-.352l6.387-3.574v13.359l-6.387-3.516c-.352-.234-.723-.352-1.113-.352-.313 0-.605.078-.879.234-.664.352-.996.898-.996 1.641v3.691l-.059.059h-16.758l-.059-.059v-16.758l.059-.059h16.758zm10.313-.938c-.352 0-.625.098-.82.293l-7.559 4.453v-3.75c0-.547-.186-1.006-.557-1.377-.371-.371-.83-.557-1.377-.557h-16.758c-.547 0-1.006.186-1.377.557-.371.371-.557.83-.557 1.377v16.758c0 .547.186 1.006.557 1.377.371.371.83.557 1.377.557h16.758c.547 0 1.006-.186 1.377-.557.371-.371.557-.83.557-1.377v-3.691l7.734 4.512c.117.117.332.176.645.176.156 0 .293-.02.41-.059.391-.156.586-.449.586-.879v-16.875c0-.43-.195-.723-.586-.879-.117-.039-.254-.059-.41-.059z"/></svg>