<svg viewBox="0 0 32 32" enable-background="new 0 0 32 32" xmlns="http://www.w3.org/2000/svg"><title>list</title><path d="M3.813 14.125h-1.875c-.273 0-.498.088-.674.264-.176.176-.264.4-.264.674v1.875c0 .273.088.498.264.674.176.176.4.264.674.264h1.875c.273 0 .498-.088.674-.264.176-.176.264-.4.264-.674v-1.875c0-.273-.088-.498-.264-.674-.176-.176-.4-.264-.674-.264zm26.25.938h-19.688c-.273 0-.498.088-.674.264-.176.176-.264.4-.264.674 0 .273.088.498.264.674.176.176.4.264.674.264h19.688c.273 0 .498-.088.674-.264.176-.176.264-.4.264-.674 0-.273-.088-.498-.264-.674-.176-.176-.4-.264-.674-.264zm-26.25 6.563h-1.875c-.273 0-.498.088-.674.264-.176.176-.264.4-.264.674v1.875c0 .273.088.498.264.674.176.176.4.264.674.264h1.875c.273 0 .498-.088.674-.264.176-.176.264-.4.264-.674v-1.875c0-.273-.088-.498-.264-.674-.176-.176-.4-.264-.674-.264zm26.25.938h-19.688c-.273 0-.498.088-.674.264-.176.176-.264.4-.264.674 0 .273.088.498.264.674.176.176.4.264.674.264h19.688c.273 0 .498-.088.674-.264.176-.176.264-.4.264-.674 0-.273-.088-.498-.264-.674-.176-.176-.4-.264-.674-.264zm-26.25-15.938h-1.875c-.273 0-.498.088-.674.264-.176.176-.264.4-.264.674v1.875c0 .273.088.498.264.674.176.176.4.264.674.264h1.875c.273 0 .498-.088.674-.264.176-.176.264-.4.264-.674v-1.875c0-.273-.088-.498-.264-.674-.176-.176-.4-.264-.674-.264zm6.563 2.813h19.688c.273 0 .498-.088.674-.264.176-.176.264-.4.264-.674 0-.273-.088-.498-.264-.674-.176-.176-.4-.264-.674-.264h-19.688c-.273 0-.498.088-.674.264-.176.176-.264.4-.264.674 0 .273.088.498.264.674.176.176.4.264.674.264z"/></svg>