<svg viewBox="0 0 32 32" enable-background="new 0 0 32 32" xmlns="http://www.w3.org/2000/svg"><title>ghost</title><path d="M16 .99c-3.359 0-6.23 1.279-8.613 3.838-2.383 2.559-3.574 5.635-3.574 9.229v15.996c0 .43.195.723.586.879.117.039.234.059.352.059.273 0 .508-.098.703-.293l3.516-3.926 2.813 3.809c.156.273.4.41.732.41.332 0 .576-.117.732-.352l2.813-3.75 2.695 3.75c.195.234.449.352.762.352s.566-.117.762-.352l2.813-3.867 3.457 3.926c.273.313.615.391 1.025.234.41-.156.615-.449.615-.879v-15.996c0-3.594-1.191-6.67-3.574-9.229-2.383-2.559-5.254-3.838-8.613-3.838zm10.313 26.602l-2.578-2.93c-.234-.234-.498-.342-.791-.322-.293.02-.518.146-.674.381l-2.754 3.75-2.695-3.691c-.195-.273-.449-.41-.762-.41s-.566.117-.762.352l-2.754 3.75-2.695-3.75c-.195-.234-.43-.352-.703-.352h-.059c-.273 0-.508.098-.703.293l-2.695 2.988v-13.594c0-3.086 1.006-5.723 3.018-7.91 2.012-2.188 4.443-3.281 7.295-3.281 2.852 0 5.283 1.094 7.295 3.281 2.012 2.188 3.018 4.824 3.018 7.91v13.535zm-5.625-16.289c-.508 0-.947.186-1.318.557-.371.371-.557.811-.557 1.318 0 .508.186.947.557 1.318.371.371.811.557 1.318.557.508 0 .947-.186 1.318-.557.371-.371.557-.811.557-1.318 0-.508-.186-.947-.557-1.318-.371-.371-.811-.557-1.318-.557zm-9.375 0c-.508 0-.947.186-1.318.557-.371.371-.557.811-.557 1.318 0 .508.186.947.557 1.318.371.371.811.557 1.318.557.508 0 .947-.186 1.318-.557.371-.371.557-.811.557-1.318 0-.508-.186-.947-.557-1.318-.371-.371-.811-.557-1.318-.557z"/></svg>