<svg viewBox="0 0 32 32" enable-background="new 0 0 32 32" xmlns="http://www.w3.org/2000/svg"><title>social-tumblr</title><path d="M16.469 2.875v6.563h6.563v2.813h-6.504l-.059 8.145c0 1.523.078 2.5.234 2.93.156.391.479.742.967 1.055.488.313 1.123.469 1.904.469 1.719 0 3.184-.449 4.395-1.348v4.336c-.664.313-1.68.645-3.047.996-.859.195-1.816.293-2.871.293-3.008 0-4.961-1.172-5.859-3.516-.273-.625-.41-1.543-.41-2.754v-10.605h-3.75v-2.871c.43 0 .879-.078 1.348-.234.469-.156 1.006-.439 1.611-.85.605-.41 1.104-1.084 1.494-2.021.391-.938.586-2.07.586-3.398h3.398zm0-1.875h-3.398c-.547 0-.996.186-1.348.557-.352.371-.527.811-.527 1.318 0 .977-.127 1.807-.381 2.49-.254.684-.576 1.162-.967 1.436-.391.273-.723.459-.996.557-.273.098-.547.146-.82.146-.508 0-.947.176-1.318.527-.371.352-.557.801-.557 1.348v2.871c0 .508.186.947.557 1.318.371.371.811.557 1.318.557h1.875v8.73c0 1.445.176 2.598.527 3.457 1.211 3.125 3.75 4.688 7.617 4.688 1.172 0 2.285-.117 3.34-.352l.176-.059c1.367-.313 2.441-.664 3.223-1.055.703-.313 1.055-.879 1.055-1.699v-4.336c0-.781-.352-1.348-1.055-1.699-.234-.117-.508-.176-.82-.176-.43 0-.801.117-1.113.352-.898.664-1.992.996-3.281.996-.547 0-.918-.098-1.113-.293-.078-.391-.117-1.152-.117-2.285v-6.27h4.688c.508 0 .947-.186 1.318-.557.371-.371.557-.811.557-1.318v-2.813c0-.508-.186-.947-.557-1.318-.371-.371-.811-.557-1.318-.557h-4.688v-4.688c0-.508-.186-.947-.557-1.318-.371-.371-.811-.557-1.318-.557z"/></svg>