<svg viewBox="0 0 32 32" enable-background="new 0 0 32 32" xmlns="http://www.w3.org/2000/svg"><title>envelope-open</title><path d="M31 14.887c-.039-.352-.156-.664-.352-.938h-.059c-.078-.117-.176-.234-.293-.352l-12.246-11.777c-.547-.547-1.211-.82-1.992-.82-.781 0-1.445.273-1.992.82l-12.246 11.719c-.547.508-.82 1.016-.82 1.523v14.063c0 .508.186.947.557 1.318.371.371.811.557 1.318.557h26.25c.508 0 .947-.186 1.318-.557.371-.371.557-.811.557-1.318v-14.238zm-22.09 7.383l-6.035 5.566v-10.898l6.035 5.332zm1.934.762l.176-.117v-.059l4.16-3.809c.234-.156.469-.234.703-.234.313 0 .566.078.762.234l11.25 10.078h-23.672l6.621-6.094zm12.363-.645l5.918-5.273v10.605l-5.918-5.332zm-19.16-8.438l11.367-10.84c.156-.195.371-.293.645-.293.273 0 .488.098.645.293l10.605 10.078h-.059l1.641 1.641-7.09 6.328-3.984-3.574c-.547-.43-1.182-.645-1.904-.645-.723 0-1.377.234-1.963.703l-3.633 3.34-7.09-6.211.762-.82h.059z"/></svg>