<svg viewBox="0 0 32 32" enable-background="new 0 0 32 32" xmlns="http://www.w3.org/2000/svg"><title>refresh</title><path d="M13.148 23.077c-.234-.352-.547-.43-.938-.234l-.234.117c-.352.195-.41.527-.176.996 0 0 1.827 2.721 1.758 2.637l-.469-.059c-1.484-.391-2.842-1.084-4.072-2.08s-2.197-2.178-2.9-3.545c-1.406-2.734-1.66-5.547-.762-8.437.938-2.891 2.793-5.039 5.566-6.445.547-.313.684-.723.41-1.23-.117-.234-.303-.391-.557-.469-.254-.078-.479-.059-.674.059-3.242 1.68-5.391 4.199-6.445 7.559-1.094 3.359-.82 6.621.82 9.785.82 1.641 1.943 3.027 3.369 4.16 1.426 1.133 3.037 1.934 4.834 2.402.048.013-2.285 1.23-2.285 1.23-.391.195-.469.488-.234.879l.125.24c.234.352.461.424.813.229l4.688-2.402c.156-.078.254-.205.293-.381.039-.176.02-.342-.059-.498l-2.871-4.512zm11.514-16.816c-1.387-1.133-2.959-1.934-4.717-2.402-.156-.039-.923-.176-.762-.176l2.344-1.172c.43-.234.604-.54.369-.891l-.135-.281c-.234-.352-.547-.43-.938-.234l-4.688 2.402c-.156.078-.254.205-.293.381-.039.176-.02.342.059.498l2.871 4.512c.234.391.547.488.938.293l.234-.176c.352-.195.391-.508.117-.938l-1.699-2.695c-.119-.123.801.156 1.113.234 3.125.82 5.43 2.695 6.914 5.625 1.406 2.695 1.65 5.498.732 8.408-.918 2.91-2.725 5.068-5.42 6.475-.547.273-.684.684-.41 1.23.156.313.43.469.82.469.117 0 .254-.02.41-.059 3.164-1.641 5.283-4.16 6.357-7.559 1.074-3.398.791-6.68-.85-9.844-.859-1.602-1.982-2.969-3.369-4.102z"/></svg>