<svg viewBox="0 0 32 32" enable-background="new 0 0 32 32" xmlns="http://www.w3.org/2000/svg"><title>paper-clip</title><path d="M6.038 30.522c-1.289 0-2.441-.508-3.457-1.523-1.055-1.055-1.582-2.354-1.582-3.896 0-1.543.527-2.861 1.582-3.955l16.816-17.871c1.328-1.289 2.891-1.885 4.688-1.787 1.797.098 3.437.889 4.922 2.373 1.367 1.367 2.031 3.105 1.992 5.215 0 2.07-.703 3.789-2.109 5.156l-12.715 13.535c-.43.469-.869.488-1.318.059-.449-.43-.459-.879-.029-1.348l12.715-13.535c1.055-1.055 1.592-2.363 1.611-3.926.02-1.563-.479-2.852-1.494-3.867-.625-.625-1.318-1.104-2.08-1.436-.762-.332-1.582-.439-2.461-.322-.879.117-1.67.527-2.373 1.23l-16.816 17.871c-.703.703-1.055 1.562-1.055 2.578 0 1.016.352 1.895 1.055 2.637.664.664 1.426.967 2.285.908.859-.059 1.68-.459 2.461-1.201l13.359-14.238c1.055-1.055 1.211-1.953.469-2.695-.352-.352-.703-.527-1.055-.527-.391.039-.82.293-1.289.762l-10.078 10.723c-.43.469-.869.488-1.318.059-.449-.43-.459-.879-.029-1.348l10.078-10.723c.781-.82 1.602-1.27 2.461-1.348.938-.078 1.797.293 2.578 1.113.703.703 1.016 1.543.938 2.52-.078.977-.547 1.895-1.406 2.754l-13.359 14.238c-1.094 1.133-2.324 1.738-3.691 1.816h-.293z"/></svg>