<svg viewBox="0 0 32 32" enable-background="new 0 0 32 32" xmlns="http://www.w3.org/2000/svg"><title>puzzle</title><path d="M16 31c-.625 0-1.152-.215-1.582-.645l-12.773-12.773c-.43-.43-.645-.957-.645-1.582 0-.625.215-1.152.645-1.582l4.688-4.688c.313-.313.674-.361 1.084-.146.41.215.576.537.498.967-.039.273-.059.508-.059.703 0 1.016.361 1.895 1.084 2.637.723.742 1.592 1.113 2.607 1.113 1.016 0 1.865-.371 2.549-1.113.684-.742 1.025-1.631 1.025-2.666s-.342-1.914-1.025-2.637c-.684-.723-1.533-1.084-2.549-1.084-.195 0-.41.02-.645.059-.469.078-.811-.078-1.025-.469-.215-.391-.146-.762.205-1.113l4.336-4.336c.43-.43.957-.645 1.582-.645.625 0 1.152.215 1.582.645l3.164 3.164c.352-1.055.977-1.914 1.875-2.578.898-.664 1.914-.996 3.047-.996 1.445 0 2.666.508 3.662 1.523.996 1.016 1.494 2.227 1.494 3.633 0 1.133-.332 2.148-.996 3.047-.664.898-1.523 1.523-2.578 1.875l3.105 3.105c.43.43.645.957.645 1.582 0 .625-.215 1.152-.645 1.582l-12.773 12.773c-.43.43-.957.645-1.582.645zm-9.902-18.398l-3.164 3.164c-.156.156-.137.312.059.469l12.773 12.773c.156.195.312.195.469 0l12.773-12.773c.195-.156.195-.312 0-.469l-4.453-4.512c-.352-.313-.43-.674-.234-1.084.195-.41.527-.596.996-.557l.117.059h.234c.898 0 1.67-.322 2.314-.967.645-.645.967-1.416.967-2.314 0-.898-.322-1.67-.967-2.314-.645-.645-1.416-.967-2.314-.967-.898 0-1.67.322-2.314.967-.645.645-.967 1.416-.967 2.314l.059.234v.176c.039.43-.137.742-.527.938-.391.195-.742.137-1.055-.176l-4.629-4.629c-.156-.156-.312-.156-.469 0l-2.871 2.871c1.211.313 2.197.967 2.959 1.963.762.996 1.143 2.158 1.143 3.486 0 1.563-.527 2.891-1.582 3.984-1.055 1.094-2.344 1.641-3.867 1.641-1.289 0-2.441-.41-3.457-1.23-1.016-.82-1.68-1.836-1.992-3.047z"/></svg>