<svg viewBox="0 0 32 32" enable-background="new 0 0 32 32" xmlns="http://www.w3.org/2000/svg"><title>bell</title><path d="M27.543 21.859c-1.719-2.109-2.578-3.828-2.578-5.156v-6.094c0-2.656-.879-4.912-2.637-6.768-1.758-1.855-3.887-2.783-6.387-2.783-2.5 0-4.619.928-6.357 2.783-1.738 1.855-2.607 4.111-2.607 6.768v6.094c0 .352-.049.713-.146 1.084-.098.371-.264.762-.498 1.172-.234.41-.42.723-.557.938-.137.215-.4.566-.791 1.055-.391.488-.605.771-.645.85l-.527.703c-.117.156-.254.371-.41.645-.156.273-.254.498-.293.674-.039.176-.059.371-.059.586 0 .215.039.4.117.557.352.664 1.172.996 2.461.996h5.332c0 1.367.488 2.539 1.465 3.516.977.977 2.158 1.465 3.545 1.465s2.568-.488 3.545-1.465c.977-.977 1.465-2.148 1.465-3.516h5.508c1.25 0 2.031-.312 2.344-.938.078-.195.117-.4.117-.615 0-.215-.02-.4-.059-.557-.039-.156-.146-.371-.322-.645-.176-.273-.322-.488-.439-.645-.117-.156-.312-.391-.586-.703zm-11.572 7.148c-.84 0-1.553-.293-2.139-.879-.586-.586-.879-1.309-.879-2.168h6.035c0 .859-.293 1.582-.879 2.168-.586.586-1.299.879-2.139.879zm10.518-5.039h-21.269c.156-.195.391-.527.703-.996.039-.039.244-.303.615-.791l.732-.967c.117-.156.322-.469.615-.938s.498-.859.615-1.172c.117-.313.225-.684.322-1.113.098-.43.146-.859.146-1.289v-6.094c0-2.109.674-3.896 2.021-5.361 1.348-1.465 2.998-2.197 4.951-2.197 1.953 0 3.613.732 4.98 2.197 1.367 1.465 2.051 3.252 2.051 5.361v6.094c0 1.797.996 3.945 2.988 6.445.352.352.586.625.703.82h-.176z"/></svg>