<svg viewBox="0 0 32 32" enable-background="new 0 0 32 32" xmlns="http://www.w3.org/2000/svg"><title>fire</title><path d="M15.883 30.985c-3.516 0-6.406-1.104-8.672-3.311-2.266-2.207-3.398-4.99-3.398-8.35 0-1.094.195-2.295.586-3.604.391-1.309.723-2.227.996-2.754.273-.527.488-.947.645-1.26.195-.352.508-.508.938-.469.43.039.703.273.82.703.352 1.406.801 2.539 1.348 3.398.508.781 1.035 1.367 1.582 1.758-.547-2.422-.605-4.746-.176-6.973.234-1.367.654-2.607 1.26-3.721.605-1.113 1.211-1.982 1.816-2.607.605-.625 1.27-1.162 1.992-1.611.723-.449 1.23-.742 1.523-.879.293-.137.537-.225.732-.264.352-.078.654 0 .908.234s.342.508.264.82c-.078.43-.146.967-.205 1.611-.059.645-.01 1.797.146 3.457s.527 3.135 1.113 4.424c.156.391.391.84.703 1.348.078-.703.215-1.348.41-1.934.195-.781.537-1.465 1.025-2.051.488-.586.85-.957 1.084-1.113.234-.156.43-.273.586-.352.352-.156.674-.117.967.117.293.234.42.527.381.879-.195 1.211.195 2.656 1.172 4.336.703 1.133 1.172 2.148 1.406 3.047.234.898.352 2.051.352 3.457 0 3.359-1.162 6.143-3.486 8.35-2.324 2.207-5.264 3.311-8.818 3.311zm-9.141-16.289c-.703 1.758-1.055 3.301-1.055 4.629 0 2.813.957 5.146 2.871 7.002 1.914 1.855 4.355 2.783 7.324 2.783 3.008 0 5.498-.928 7.471-2.783 1.973-1.855 2.959-4.189 2.959-7.002 0-1.25-.098-2.246-.293-2.988-.195-.742-.586-1.602-1.172-2.578-.664-1.094-1.113-2.227-1.348-3.398-.195.352-.352.723-.469 1.113-.43 1.406-.586 2.871-.469 4.395.039.469-.166.781-.615.937-.449.156-.811.039-1.084-.352-1.172-1.641-1.992-2.988-2.461-4.043-1.172-2.5-1.621-5.469-1.348-8.906-2.5 1.445-4.062 3.77-4.688 6.973-.273 1.133-.313 2.412-.117 3.838.195 1.426.361 2.412.498 2.959.137.547.264.957.381 1.23.117.352.049.664-.205.938-.254.273-.557.371-.908.293l-.879-.293c-.352-.117-.908-.469-1.67-1.055-.762-.586-1.396-1.27-1.904-2.051-.273-.43-.547-.977-.82-1.641z"/></svg>