<svg viewBox="0 0 32 32" enable-background="new 0 0 32 32" xmlns="http://www.w3.org/2000/svg"><title>calendar</title><path d="M29.125 3.813h-7.5v-1.875c0-.273-.088-.498-.264-.674-.176-.176-.4-.264-.674-.264-.273 0-.498.088-.674.264-.176.176-.264.4-.264.674v1.875h-7.5v-1.875c0-.273-.088-.498-.264-.674-.176-.176-.4-.264-.674-.264-.273 0-.498.088-.674.264-.176.176-.264.4-.264.674v1.875h-7.5c-.508 0-.947.186-1.318.557-.371.371-.557.811-.557 1.318v23.438c0 .508.186.947.557 1.318.371.371.811.557 1.318.557h26.25c.508 0 .947-.186 1.318-.557.371-.371.557-.811.557-1.318v-23.438c0-.508-.186-.947-.557-1.318-.371-.371-.811-.557-1.318-.557zm0 25.313h-26.25v-23.438h7.5v.938c0 .273.088.498.264.674.176.176.4.264.674.264.273 0 .498-.088.674-.264.176-.176.264-.4.264-.674v-.938h7.5v.938c0 .273.088.498.264.674.176.176.4.264.674.264.273 0 .498-.088.674-.264.176-.176.264-.4.264-.674v-.938h7.5v23.438zm-6.563-13.125h1.875c.273 0 .498-.088.674-.264.176-.176.264-.4.264-.674v-1.875c0-.273-.088-.498-.264-.674-.176-.176-.4-.264-.674-.264h-1.875c-.273 0-.498.088-.674.264-.176.176-.264.4-.264.674v1.875c0 .273.088.498.264.674.176.176.4.264.674.264zm0 7.5h1.875c.273 0 .498-.088.674-.264.176-.176.264-.4.264-.674v-1.875c0-.273-.088-.498-.264-.674-.176-.176-.4-.264-.674-.264h-1.875c-.273 0-.498.088-.674.264-.176.176-.264.4-.264.674v1.875c0 .273.088.498.264.674.176.176.4.264.674.264zm-5.625-3.75h-1.875c-.273 0-.498.088-.674.264-.176.176-.264.4-.264.674v1.875c0 .273.088.498.264.674.176.176.4.264.674.264h1.875c.273 0 .498-.088.674-.264.176-.176.264-.4.264-.674v-1.875c0-.273-.088-.498-.264-.674-.176-.176-.4-.264-.674-.264zm0-7.5h-1.875c-.273 0-.498.088-.674.264-.176.176-.264.4-.264.674v1.875c0 .273.088.498.264.674.176.176.4.264.674.264h1.875c.273 0 .498-.088.674-.264.176-.176.264-.4.264-.674v-1.875c0-.273-.088-.498-.264-.674-.176-.176-.4-.264-.674-.264zm-7.5 0h-1.875c-.273 0-.498.088-.674.264-.176.176-.264.4-.264.674v1.875c0 .273.088.498.264.674.176.176.4.264.674.264h1.875c.273 0 .498-.088.674-.264.176-.176.264-.4.264-.674v-1.875c0-.273-.088-.498-.264-.674-.176-.176-.4-.264-.674-.264zm0 7.5h-1.875c-.273 0-.498.088-.674.264-.176.176-.264.4-.264.674v1.875c0 .273.088.498.264.674.176.176.4.264.674.264h1.875c.273 0 .498-.088.674-.264.176-.176.264-.4.264-.674v-1.875c0-.273-.088-.498-.264-.674-.176-.176-.4-.264-.674-.264z"/></svg>