<svg viewBox="0 0 32 32" enable-background="new 0 0 32 32" xmlns="http://www.w3.org/2000/svg"><title>wrench</title><path d="M30.473 7.328c-.352-.156-.664-.117-.938.117l-4.746 4.277-4.277-4.395 4.277-4.863c.234-.273.273-.586.117-.938-.156-.352-.43-.527-.82-.527h-.234c-4.609 0-7.656.742-9.141 2.227l-.41.41c-1.055 1.094-1.699 2.451-1.934 4.072-.234 1.621-.059 3.115.527 4.482l-10.781 11.016c-.742.742-1.113 1.641-1.113 2.695 0 1.055.371 1.934 1.113 2.637l1.289 1.348c.742.742 1.631 1.113 2.666 1.113s1.904-.371 2.607-1.113l11.016-11.074c1.133.625 2.344.938 3.633.938 1.992 0 3.691-.723 5.098-2.168l.41-.41c1.445-1.445 2.168-4.453 2.168-9.023 0-.391-.176-.664-.527-.82zm-2.93 8.613l-.352.352c-1.055 1.055-2.344 1.582-3.867 1.582-.898 0-1.68-.137-2.344-.41-.586-.234-1.113-.566-1.582-.996l-12.012 12.07c-.391.391-.84.586-1.348.586-.508 0-.937-.195-1.289-.586l-1.348-1.289c-.352-.391-.527-.85-.527-1.377s.176-.967.527-1.318l11.777-12.012c-.391-.547-.664-1.152-.82-1.816-.273-.859-.313-1.875-.117-3.047.195-1.172.645-2.09 1.348-2.754l.352-.41c.938-.938 2.988-1.504 6.152-1.699l-3.457 3.984c-.352.391-.332.801.059 1.23l5.449 5.566c.391.391.781.391 1.172 0l3.867-3.398c-.195 2.891-.742 4.805-1.641 5.742z"/></svg>