<svg viewBox="0 0 32 32" enable-background="new 0 0 32 32" xmlns="http://www.w3.org/2000/svg"><title>book-open</title><path d="M28.891 1.075l-12.363 3.34c-.156.039-.381.059-.674.059-.293 0-.518-.02-.674-.059l-12.07-3.34c-.547-.156-1.035-.068-1.465.264-.43.332-.645.771-.645 1.318v22.793c0 .469.156.908.469 1.318.313.41.684.674 1.113.791l12.129 3.34c.313.078.703.117 1.172.117.43 0 .801-.039 1.113-.117l12.363-3.34c.469-.117.859-.381 1.172-.791.313-.41.469-.85.469-1.318v-22.793c0-.547-.215-.986-.645-1.318-.43-.332-.918-.42-1.465-.264zm-13.828 27.949l-11.953-3.281c-.156-.039-.234-.137-.234-.293v-22.5l11.836 3.281c.078.039.195.059.352.059v22.734zm14.063-3.574c0 .156-.078.254-.234.293l-11.953 3.223v-22.734h.059l12.129-3.281v22.5zm-9.316-13.711h.234l6.563-1.875c.273-.078.469-.225.586-.439.117-.215.146-.449.088-.703-.059-.254-.205-.449-.439-.586-.234-.137-.469-.166-.703-.088l-6.563 1.875c-.273.078-.469.225-.586.439-.117.215-.137.439-.059.674.117.469.41.703.879.703zm0 5.625h.234l6.563-1.875c.273-.078.469-.225.586-.439.117-.215.146-.449.088-.703-.059-.254-.205-.449-.439-.586-.234-.137-.469-.166-.703-.088l-6.563 1.875c-.273.078-.469.225-.586.439-.117.215-.137.439-.059.674.117.469.41.703.879.703zm0 5.625h.234l6.563-1.875c.273-.078.469-.225.586-.439.117-.215.146-.449.088-.703-.059-.254-.205-.449-.439-.586-.234-.137-.469-.166-.703-.088l-6.563 1.875c-.273.078-.469.225-.586.439-.117.215-.137.439-.059.674.117.469.41.703.879.703zm-7.266-13.066l-6.563-1.875c-.234-.078-.469-.049-.703.088-.234.137-.381.332-.439.586-.059.254-.029.488.088.703.117.215.312.361.586.439l6.563 1.875h.234c.469 0 .762-.234.879-.703.078-.234.059-.459-.059-.674-.117-.215-.312-.361-.586-.439zm0 5.625l-6.563-1.875c-.234-.078-.469-.049-.703.088-.234.137-.381.332-.439.586-.059.254-.029.488.088.703.117.215.312.361.586.439l6.563 1.875h.234c.469 0 .762-.234.879-.703.078-.234.059-.459-.059-.674-.117-.215-.312-.361-.586-.439zm0 5.625l-6.563-1.875c-.234-.078-.469-.049-.703.088-.234.137-.381.332-.439.586-.059.254-.029.488.088.703.117.215.312.361.586.439l6.563 1.875h.234c.469 0 .762-.234.879-.703.078-.234.059-.459-.059-.674-.117-.215-.312-.361-.586-.439z"/></svg>