<svg xmlns="http://www.w3.org/2000/svg" viewBox="0 0 12 12" enable-background="new 0 0 12 12"><path d="M9 .3c.2.2.3.5.3.8v9.8c0 .3-.1.6-.3.8s-.4.3-.8.3h-4.4c-.3 0-.6-.1-.8-.3s-.3-.5-.3-.8v-9.8c0-.3.1-.6.3-.8s.4-.3.8-.3h4.5c.3 0 .5.1.7.3zm-.4.8c0-.1 0-.2-.1-.3h-4.7c-.1 0-.2 0-.3.1s-.1.1-.1.2v9.8c0 .1 0 .2.1.3s.2.1.3.1h4.5c.1 0 .2 0 .3-.1s.1-.2.1-.3v-9.8zm-1.6.1c.1.1.1.2.1.3s0 .2-.1.3-.1.1-.2.1h-1.6c-.1 0-.2 0-.3-.1v-.3s0-.2.1-.3.2-.1.3-.1h1.5l.2.1zm-.2 8.9c0 .2-.1.4-.2.5s-.4.3-.6.3-.4-.1-.5-.2-.2-.3-.2-.5.1-.4.2-.5.3-.3.5-.3.4.1.5.2.3.3.3.5z"/></svg>