<svg viewBox="0 0 32 32" enable-background="new 0 0 32 32" xmlns="http://www.w3.org/2000/svg"><title>globe-alt</title><path d="M26.4 6.244c-1.23-2.129-2.939-3.838-5.127-5.127-.234-.117-.479-.146-.732-.088-.254.059-.439.205-.557.439-.117.234-.146.479-.088.732.059.254.205.439.439.557 1.875 1.133 3.35 2.617 4.424 4.453 1.074 1.836 1.611 3.809 1.611 5.918 0 3.555-1.162 6.484-3.486 8.789-2.324 2.305-5.244 3.457-8.76 3.457-1.602 0-3.145-.293-4.629-.879-.234-.078-.469-.068-.703.029-.234.098-.4.264-.498.498-.098.234-.098.469 0 .703.098.234.264.41.498.527 1.719.664 3.496.996 5.332.996v1.875h-2.754c-.273 0-.498.088-.674.264-.176.176-.264.391-.264.645s.088.479.264.674c.176.195.4.293.674.293h7.441c.273 0 .508-.098.703-.293.195-.195.293-.42.293-.674 0-.254-.098-.469-.293-.645-.195-.176-.43-.264-.703-.264h-2.813v-1.992c3.594-.391 6.533-1.885 8.818-4.482 2.285-2.598 3.428-5.771 3.428-9.521 0-2.461-.615-4.756-1.846-6.885zm-1.963 7.002c0-2.852-1.016-5.293-3.047-7.324-2.031-2.031-4.463-3.047-7.295-3.047s-5.264 1.016-7.295 3.047c-2.031 2.031-3.047 4.473-3.047 7.324 0 2.852 1.006 5.273 3.018 7.266 2.012 1.992 4.453 2.988 7.324 2.988 2.871 0 5.312-.996 7.324-2.988 2.012-1.992 3.018-4.414 3.018-7.266zm-18.809-.029c0-2.324.83-4.316 2.49-5.977 1.66-1.66 3.652-2.49 5.977-2.49 2.324 0 4.316.83 5.977 2.49 1.66 1.66 2.49 3.652 2.49 5.977 0 2.324-.83 4.307-2.49 5.947-1.66 1.641-3.652 2.461-5.977 2.461-2.324 0-4.316-.82-5.977-2.461-1.66-1.641-2.49-3.623-2.49-5.947z"/></svg>