<svg viewBox="0 0 32 32" enable-background="new 0 0 32 32" xmlns="http://www.w3.org/2000/svg"><title>arrow-left</title><path d="M16 1c-4.141 0-7.676 1.465-10.605 4.395-2.93 2.93-4.395 6.465-4.395 10.605 0 4.141 1.465 7.676 4.395 10.605 2.93 2.93 6.465 4.395 10.605 4.395 4.141 0 7.676-1.465 10.605-4.395 2.93-2.93 4.395-6.465 4.395-10.605 0-4.141-1.465-7.676-4.395-10.605-2.93-2.93-6.465-4.395-10.605-4.395zm0 28.184c-3.633 0-6.729-1.289-9.287-3.867-2.559-2.578-3.838-5.684-3.838-9.316 0-3.633 1.279-6.729 3.838-9.287 2.559-2.559 5.654-3.838 9.287-3.838 3.633 0 6.729 1.279 9.287 3.838 2.559 2.559 3.838 5.654 3.838 9.287 0 3.633-1.279 6.738-3.838 9.316-2.559 2.578-5.654 3.867-9.287 3.867zm6.563-14.121h-10.547l3.398-3.398c.43-.43.42-.869-.029-1.318-.449-.449-.889-.459-1.318-.029l-5.508 5.684 5.508 5.684c.195.195.42.293.674.293.254 0 .479-.098.674-.293.43-.43.43-.859 0-1.289l-3.457-3.457h10.605c.273 0 .498-.098.674-.293.176-.195.264-.42.264-.674 0-.254-.088-.469-.264-.645-.176-.176-.4-.264-.674-.264z"/></svg>