<svg viewBox="0 0 32 32" enable-background="new 0 0 32 32" xmlns="http://www.w3.org/2000/svg"><title>drop</title><path d="M15.941 30.941c-2.813 0-5.225-.986-7.236-2.959-2.012-1.973-3.018-4.365-3.018-7.178 0-1.484.449-3.33 1.348-5.537.898-2.207 2.021-4.395 3.369-6.562 1.348-2.168 2.363-3.77 3.047-4.805.684-1.035 1.26-1.865 1.729-2.49.195-.234.449-.352.762-.352s.566.117.762.352c.469.625 1.055 1.445 1.758 2.461.703 1.016 1.738 2.598 3.105 4.746 1.367 2.148 2.5 4.336 3.398 6.563.898 2.227 1.348 4.102 1.348 5.625 0 2.813-1.016 5.205-3.047 7.178-2.031 1.973-4.473 2.959-7.324 2.959zm0-27.363c-1.094 1.563-2.168 3.174-3.223 4.834-1.055 1.66-2.178 3.77-3.369 6.328-1.191 2.559-1.787 4.58-1.787 6.064 0 2.305.82 4.258 2.461 5.859 1.641 1.602 3.613 2.402 5.918 2.402 2.344 0 4.346-.801 6.006-2.402 1.66-1.602 2.49-3.555 2.49-5.859 0-1.523-.596-3.564-1.787-6.123-1.191-2.559-2.324-4.668-3.398-6.328-1.074-1.66-2.178-3.252-3.311-4.775z"/></svg>