<svg viewBox="0 0 32 32" enable-background="new 0 0 32 32" xmlns="http://www.w3.org/2000/svg"><title>trash</title><path d="M20.688 5.688v-2.578c0-.586-.215-1.084-.645-1.494-.43-.41-.937-.615-1.523-.615h-5.039c-.586 0-1.094.205-1.523.615-.43.41-.645.908-.645 1.494v2.578h-6.563c-.273 0-.498.088-.674.264-.176.176-.264.391-.264.645s.088.479.264.674c.176.195.4.293.674.293h1.289l2.168 21.621c.039.508.244.937.615 1.289.371.352.811.527 1.318.527h11.719c.508 0 .947-.166 1.318-.498.371-.332.576-.752.615-1.26l2.168-21.68h1.289c.273 0 .498-.098.674-.293.176-.195.264-.42.264-.674 0-.254-.088-.469-.264-.645-.176-.176-.4-.264-.674-.264h-6.563zm-7.5-2.578c0-.195.098-.293.293-.293h5.039c.195 0 .293.098.293.293v2.578h-5.625v-2.578zm8.73 25.957l-.059.059h-11.719c-.039 0-.059-.039-.059-.117l-2.168-21.445h16.172l-2.168 21.504z"/></svg>