<svg viewBox="0 0 32 32" enable-background="new 0 0 32 32" xmlns="http://www.w3.org/2000/svg"><title>energy</title><path d="M18.461 2.875l-2.109 11.133h7.617l-10.43 15.117 2.109-12.246-7.617-.059 10.43-13.945zm0-1.875h-.176c-.273.039-.547.156-.82.352-.117.078-.234.195-.352.352l-.117.117-10.488 13.887c-.469.625-.527 1.279-.176 1.963.352.684.898 1.025 1.641 1.025l5.449.059-1.699 10.02c-.078.43-.02.84.176 1.23.195.391.508.664.938.82.234.117.469.176.703.176.586 0 1.074-.273 1.465-.82l10.488-15.059c.469-.625.527-1.27.176-1.934-.352-.664-.898-1.016-1.641-1.055h-5.449l1.699-8.789c.039-.156.059-.312.059-.469 0-.508-.176-.937-.527-1.289-.352-.352-.781-.547-1.289-.586h-.059z"/></svg>