<svg viewBox="0 0 32 32" enable-background="new 0 0 32 32" xmlns="http://www.w3.org/2000/svg"><title>target</title><path d="M30.063 15.063h-2.871c-.195-2.734-1.27-5.068-3.223-7.002-1.953-1.934-4.297-3.018-7.031-3.252v-2.871c0-.273-.088-.498-.264-.674-.176-.176-.4-.264-.674-.264-.273 0-.498.088-.674.264-.176.176-.264.4-.264.674v2.871c-2.734.234-5.078 1.318-7.031 3.252-1.953 1.934-3.027 4.268-3.223 7.002h-2.871c-.273 0-.498.088-.674.264-.176.176-.264.4-.264.674 0 .273.088.498.264.674.176.176.4.264.674.264h2.871c.195 2.734 1.27 5.068 3.223 7.002 1.953 1.934 4.297 3.018 7.031 3.252v2.871c0 .273.088.498.264.674.176.176.4.264.674.264.273 0 .498-.088.674-.264.176-.176.264-.4.264-.674v-2.871c2.734-.234 5.078-1.318 7.031-3.252 1.953-1.934 3.027-4.268 3.223-7.002h2.871c.273 0 .498-.088.674-.264.176-.176.264-.4.264-.674 0-.273-.088-.498-.264-.674-.176-.176-.4-.264-.674-.264zm-15-8.379v8.379h-8.379c.195-2.227 1.084-4.131 2.666-5.713 1.582-1.582 3.486-2.471 5.713-2.666zm-8.379 10.254h8.379v8.379c-2.227-.195-4.131-1.084-5.713-2.666-1.582-1.582-2.471-3.486-2.666-5.713zm10.254 8.379v-8.379h8.379c-.195 2.227-1.084 4.131-2.666 5.713-1.582 1.582-3.486 2.471-5.713 2.666zm0-10.254v-8.379c2.227.195 4.131 1.084 5.713 2.666 1.582 1.582 2.471 3.486 2.666 5.713h-8.379z"/></svg>