<svg viewBox="0 0 32 32" enable-background="new 0 0 32 32" xmlns="http://www.w3.org/2000/svg"><title>magnet</title><path d="M29.125 2.758v-.82c0-.273-.088-.498-.264-.674-.176-.176-.4-.264-.674-.264h-6.563c-.273 0-.498.088-.674.264-.176.176-.264.4-.264.674v15.469c0 1.445-.4 2.656-1.201 3.633-.801.977-1.865 1.465-3.193 1.465-1.406 0-2.588-.498-3.545-1.494-.957-.996-1.436-2.197-1.436-3.604v-15.468c0-.273-.088-.498-.264-.674-.176-.176-.4-.264-.674-.264h-6.563c-.273 0-.498.088-.674.264-.176.176-.264.4-.264.674v15.88c0 3.672 1.279 6.787 3.838 9.346s5.654 3.838 9.287 3.838c3.633 0 6.729-1.279 9.287-3.838 2.559-2.559 3.838-5.674 3.838-9.346v-15.059zm-1.875.117v3.75h-4.688v-3.75h4.688zm-17.813 0v3.75h-4.688v-3.75h4.688zm6.563 26.25c-3.125 0-5.781-1.104-7.969-3.311-2.188-2.207-3.281-4.873-3.281-7.998v-9.316h4.688v8.906c0 1.914.654 3.555 1.963 4.922 1.309 1.367 2.939 2.051 4.893 2.051 1.875 0 3.389-.664 4.541-1.992 1.152-1.328 1.729-2.988 1.729-4.98v-8.906h4.688v9.316c0 3.125-1.094 5.791-3.281 7.998-2.188 2.207-4.844 3.311-7.969 3.311z"/></svg>