<svg viewBox="0 0 32 32" enable-background="new 0 0 32 32" xmlns="http://www.w3.org/2000/svg"><title>social-dribbble</title><path d="M16 1c-1.992 0-3.926.391-5.801 1.172l-.176.059c-2.695 1.172-4.873 2.998-6.533 5.479-1.66 2.48-2.49 5.244-2.49 8.291 0 4.141 1.465 7.676 4.395 10.605 2.93 2.93 6.465 4.395 10.605 4.395 4.141 0 7.676-1.465 10.605-4.395 2.93-2.93 4.395-6.465 4.395-10.605 0-4.141-1.465-7.676-4.395-10.605-2.93-2.93-6.465-4.395-10.605-4.395zm13.125 15v.293c-3.047-.781-6.25-.82-9.609-.117-.391-.938-.82-1.855-1.289-2.754l-.088-.117-.029-.117c3.789-1.445 6.348-3.418 7.676-5.918 2.227 2.5 3.34 5.41 3.34 8.73zm-4.746-10.078c-.234.469-.537.967-.908 1.494s-1.123 1.201-2.256 2.021c-1.133.82-2.48 1.523-4.043 2.109-1.797-3.359-3.496-6.055-5.098-8.086 1.289-.391 2.598-.586 3.926-.586 3.164 0 5.957 1.016 8.379 3.047zm-14.121-1.699c1.563 1.875 3.281 4.512 5.156 7.91-4.297 1.289-8.398 1.758-12.305 1.406.391-2.031 1.221-3.867 2.49-5.508 1.27-1.641 2.822-2.91 4.658-3.809zm-7.383 11.777v-.586c.82.078 1.699.117 2.637.117 3.555 0 7.148-.566 10.781-1.699l.234.469c.43.781.82 1.582 1.172 2.402-.859.273-1.68.586-2.461.938-3.984 1.797-6.895 4.258-8.73 7.383-2.422-2.539-3.633-5.547-3.633-9.023zm5.039 10.313c.195-.352.449-.742.762-1.172.313-.43.781-.996 1.406-1.699.625-.703 1.455-1.416 2.49-2.139 1.035-.723 2.178-1.377 3.428-1.963.781-.352 1.582-.645 2.402-.879 1.328 3.32 2.207 6.543 2.637 9.668-1.602.664-3.281.996-5.039.996-3.008 0-5.703-.937-8.086-2.813zm14.883.938c-.469-3.047-1.309-6.133-2.52-9.258 3.086-.625 5.977-.547 8.672.234-.352 1.875-1.064 3.594-2.139 5.156-1.074 1.563-2.412 2.852-4.014 3.867z"/></svg>