<svg viewBox="0 0 32 32" enable-background="new 0 0 32 32" xmlns="http://www.w3.org/2000/svg"><title>drawer</title><path d="M30.951 15.707l-3.398-11.953c-.156-.43-.469-.645-.938-.645h-21.504c-.508 0-.82.234-.938.703l-3.164 11.309c-.039.195-.02.41.059.645-.039.156-.059.332-.059.527v10.254c0 .547.186.996.557 1.348.371.352.811.527 1.318.527h26.25c.508 0 .947-.176 1.318-.527.371-.352.557-.801.557-1.348v-10.43c0-.156-.02-.293-.059-.41zm-25.137-10.723h20.098l2.754 9.434h-8.73c-.039 1.094-.42 1.992-1.143 2.695-.723.703-1.65 1.055-2.783 1.055s-2.051-.352-2.754-1.055c-.703-.703-1.074-1.602-1.113-2.695h-8.965l2.637-9.434zm23.32 21.563h-26.25v-10.254h7.734c.391 1.172 1.064 2.09 2.021 2.754.957.664 2.08.996 3.369.996 1.289 0 2.412-.332 3.369-.996.957-.664 1.65-1.582 2.08-2.754h7.676v10.254z"/></svg>