<svg viewBox="0 0 32 32" enable-background="new 0 0 32 32" xmlns="http://www.w3.org/2000/svg"><title>pencil</title><path d="M29.239 2.465c-1.016-.977-2.129-1.465-3.34-1.465-1.367 0-2.578.527-3.633 1.582l-18.574 18.516c-.117.117-.195.273-.234.469-.078.273-.898 3.008-2.461 8.203-.117.391-.039.723.234.996.195.156.43.234.703.234h.293c4.063-1.367 6.758-2.246 8.086-2.637.117-.039.234-.117.352-.234 11.523-11.367 17.734-17.52 18.633-18.457 1.172-1.211 1.758-2.441 1.758-3.691-.039-1.25-.645-2.422-1.816-3.516zm-7.266 3.105c.977.234 1.895.781 2.754 1.641.82.82 1.328 1.758 1.523 2.813-2.656 2.656-7.832 7.793-15.527 15.41-.391-.938-.918-1.738-1.582-2.402-.82-.82-1.738-1.445-2.754-1.875l4.453-4.453 6.475-6.475 4.658-4.658zm-16.875 17.168c.977.234 1.875.781 2.695 1.641.664.664 1.133 1.445 1.406 2.344-.391.117-1.318.43-2.783.938-1.465.508-2.529.859-3.193 1.055.195-.586.518-1.602.967-3.047.449-1.445.752-2.422.908-2.93zm22.852-14.414l-.176.176c-.391-1.016-.957-1.895-1.699-2.637-.781-.781-1.641-1.387-2.578-1.816l.059-.059.059-.059c.703-.703 1.465-1.055 2.285-1.055.703 0 1.387.332 2.051.996.781.742 1.172 1.465 1.172 2.168 0 .703-.391 1.465-1.172 2.285z"/></svg>