<svg viewBox="0 0 32 32" enable-background="new 0 0 32 32" xmlns="http://www.w3.org/2000/svg"><title>share-alt</title><path d="M27.338 28.847h-24.375v-18.75h7.559l1.875-1.816-.059-.059h-9.375c-.508 0-.947.176-1.318.527-.371.352-.557.801-.557 1.348v18.75c0 .508.186.947.557 1.318.371.371.811.557 1.318.557h24.375c.508 0 .947-.186 1.318-.557.371-.371.557-.811.557-1.318v-14.707l-1.875 1.816v12.891zm-18.516-7.5h1.875c.664-3.789 2.471-6.924 5.42-9.404 2.949-2.48 6.357-3.721 10.225-3.721h.996l-3.457 3.398c-.43.469-.43.918 0 1.348.195.195.42.293.674.293.254 0 .479-.098.674-.293l5.508-5.684-5.508-5.684c-.469-.43-.918-.43-1.348 0-.43.43-.43.879 0 1.348l3.398 3.398h-.879c-4.414 0-8.281 1.426-11.602 4.277-3.32 2.852-5.312 6.426-5.977 10.723z"/></svg>