<svg viewBox="0 0 32 32" enable-background="new 0 0 32 32" xmlns="http://www.w3.org/2000/svg"><title>present</title><path d="M31 10.375c0-.508-.186-.947-.557-1.318-.371-.371-.811-.557-1.318-.557h-3.223c.938-.898 1.406-1.953 1.406-3.164 0-.938-.293-1.738-.879-2.402-.586-.664-1.484-.996-2.695-.996-2.617 0-5.176 1.895-7.676 5.684-.938-1.445-2.09-2.754-3.457-3.926-1.367-1.172-2.812-1.758-4.336-1.758-1.211 0-2.1.332-2.666.996-.566.664-.85 1.465-.85 2.402 0 1.211.469 2.266 1.406 3.164h-3.281c-.508 0-.947.186-1.318.557-.371.371-.557.811-.557 1.318v5.625h1.875v12.188c0 .547.186.996.557 1.348.371.352.811.527 1.318.527h22.5c.508 0 .947-.176 1.318-.527.371-.352.557-.801.557-1.348v-12.188h1.875v-5.625zm-7.266-6.563c1.133 0 1.699.508 1.699 1.523 0 .977-.459 1.748-1.377 2.314-.918.566-1.963.85-3.135.85h-3.223c2.148-3.125 4.16-4.688 6.035-4.688zm-15.469 0c1.055 0 2.129.479 3.223 1.436 1.094.957 2.07 2.041 2.93 3.252h-3.223c-1.172 0-2.227-.293-3.164-.879-.938-.586-1.406-1.367-1.406-2.344 0-.977.547-1.465 1.641-1.465zm20.859 10.313h-12.188v-3.75h12.188v3.75zm-26.25-3.75h12.188v3.75h-12.188v-3.75zm1.875 5.625h10.313v12.188h-10.313v-12.188zm22.5 12.188h-10.313v-12.188h10.313v12.188z"/></svg>