<svg viewBox="0 0 32 32" enable-background="new 0 0 32 32" xmlns="http://www.w3.org/2000/svg"><title>music-tone</title><path d="M25.928 10.519l-9.141-9.199c-.313-.313-.664-.371-1.055-.176-.43.156-.645.449-.645.879v20.742c-1.094-.781-2.344-1.172-3.75-1.172-1.563 0-2.891.459-3.984 1.377-1.094.918-1.641 2.031-1.641 3.34 0 1.309.547 2.412 1.641 3.311 1.094.898 2.422 1.348 3.984 1.348 1.563 0 2.891-.449 3.984-1.348 1.094-.898 1.641-2.012 1.641-3.34v-22.148l7.676 7.676c.43.469.869.479 1.318.029.449-.449.439-.889-.029-1.318zm-14.59 18.574c-1.055 0-1.943-.293-2.666-.879-.723-.586-1.084-1.23-1.084-1.934 0-.703.361-1.348 1.084-1.934.723-.586 1.611-.879 2.666-.879 1.016 0 1.885.283 2.607.85.723.566 1.104 1.201 1.143 1.904v.176c-.039.664-.42 1.279-1.143 1.846-.723.566-1.592.85-2.607.85z"/></svg>