<svg viewBox="0 0 32 32" enable-background="new 0 0 32 32" xmlns="http://www.w3.org/2000/svg"><title>compass</title><path d="M22.504 9.203l-9.199 3.926c-.156.117-.293.254-.41.41l-4.16 8.496c-.195.352-.156.684.117.996.195.195.41.293.645.293.156 0 .293-.039.41-.117l8.965-3.691c.156-.117.273-.254.352-.41l4.453-8.672c.195-.391.146-.742-.146-1.055-.293-.313-.635-.371-1.025-.176zm-11.016 11.25l2.52-5.156 2.578 3.223-5.098 1.934zm6.621-3.047l-2.578-3.281 5.156-2.051-2.578 5.332zm-2.109-16.406c-4.141 0-7.676 1.465-10.605 4.395-2.93 2.93-4.395 6.465-4.395 10.605 0 4.141 1.465 7.676 4.395 10.605 2.93 2.93 6.465 4.395 10.605 4.395 4.141 0 7.676-1.465 10.605-4.395 2.93-2.93 4.395-6.465 4.395-10.605 0-4.141-1.465-7.676-4.395-10.605-2.93-2.93-6.465-4.395-10.605-4.395zm0 28.184c-3.633 0-6.729-1.289-9.287-3.867-2.559-2.578-3.838-5.684-3.838-9.316 0-3.633 1.279-6.729 3.838-9.287 2.559-2.559 5.654-3.838 9.287-3.838 3.633 0 6.729 1.279 9.287 3.838 2.559 2.559 3.838 5.654 3.838 9.287 0 3.633-1.279 6.738-3.838 9.316-2.559 2.578-5.654 3.867-9.287 3.867z"/></svg>