<svg viewBox="0 0 32 32" enable-background="new 0 0 32 32" xmlns="http://www.w3.org/2000/svg"><title>frame</title><path d="M7.563 4.281h-5.625c-.273 0-.498.088-.674.264-.176.176-.264.4-.264.674v5.625c0 .273.088.498.264.674.176.176.4.264.674.264.273 0 .498-.088.674-.264.176-.176.264-.4.264-.674v-4.688h4.688c.273 0 .498-.088.674-.264.176-.176.264-.4.264-.674 0-.273-.088-.498-.264-.674-.176-.176-.4-.264-.674-.264zm22.5 15.938c-.273 0-.498.088-.674.264-.176.176-.264.4-.264.674v4.688h-4.688c-.273 0-.498.088-.674.264-.176.176-.264.4-.264.674 0 .273.088.498.264.674.176.176.4.264.674.264h5.625c.273 0 .498-.088.674-.264.176-.176.264-.4.264-.674v-5.625c0-.273-.088-.498-.264-.674-.176-.176-.4-.264-.674-.264zm-22.5 5.625h-4.688v-4.688c0-.273-.088-.498-.264-.674-.176-.176-.4-.264-.674-.264-.273 0-.498.088-.674.264-.176.176-.264.4-.264.674v5.625c0 .273.088.498.264.674.176.176.4.264.674.264h5.625c.273 0 .498-.088.674-.264.176-.176.264-.4.264-.674 0-.273-.088-.498-.264-.674-.176-.176-.4-.264-.674-.264zm22.5-21.563h-5.625c-.273 0-.498.088-.674.264-.176.176-.264.4-.264.674 0 .273.088.498.264.674.176.176.4.264.674.264h4.688v4.688c0 .273.088.498.264.674.176.176.4.264.674.264.273 0 .498-.088.674-.264.176-.176.264-.4.264-.674v-5.625c0-.273-.088-.498-.264-.674-.176-.176-.4-.264-.674-.264z"/></svg>