<svg viewBox="0 0 32 32" enable-background="new 0 0 32 32" xmlns="http://www.w3.org/2000/svg"><title>music-tone-alt</title><path d="M29.594 21.684v-19.922c-.117-.508-.43-.762-.938-.762-.156 0-.312.039-.469.117l-17.52 4.57c-.313.078-.527.273-.645.586-.078.156-.117.312-.117.469v16.758c-.938-.625-2.031-.938-3.281-.938-1.445 0-2.666.41-3.662 1.23-.996.82-1.494 1.816-1.494 2.988s.498 2.168 1.494 2.988c.996.82 2.217 1.23 3.662 1.23 1.445 0 2.666-.41 3.662-1.23.996-.82 1.494-1.816 1.494-2.988v-19.454l15.938-4.16v15.645c-.938-.625-2.031-.938-3.281-.938-1.445 0-2.666.41-3.662 1.23-.996.82-1.494 1.816-1.494 2.988s.498 2.168 1.494 2.988c.996.82 2.217 1.23 3.662 1.23 1.445 0 2.666-.41 3.662-1.23.996-.82 1.494-1.816 1.494-2.988v-.41zm-22.969 7.441c-.938 0-1.719-.244-2.344-.732-.625-.488-.938-1.025-.938-1.611 0-.586.312-1.123.938-1.611.625-.488 1.406-.732 2.344-.732.859 0 1.582.195 2.168.586.586.391.957.859 1.113 1.406 0 .078.02.156.059.234v.117c0 .586-.322 1.123-.967 1.611s-1.436.732-2.373.732zm17.813-4.688c-.938 0-1.719-.244-2.344-.732-.625-.488-.938-1.025-.938-1.611 0-.586.312-1.123.938-1.611.625-.488 1.406-.732 2.344-.732s1.719.244 2.344.732c.625.488.938 1.025.938 1.611 0 .586-.312 1.123-.938 1.611-.625.488-1.406.732-2.344.732z"/></svg>