<svg viewBox="0 0 32 32" enable-background="new 0 0 32 32" xmlns="http://www.w3.org/2000/svg"><title>call-in</title><path d="M30.316 23.617c-2.266-1.602-4.297-2.949-6.094-4.043-.273-.156-.586-.234-.938-.234-.469 0-.957.117-1.465.352-.391.234-1.289.742-2.695 1.523-1.172-.859-2.637-2.168-4.395-3.926-1.797-1.758-3.105-3.242-3.926-4.453l1.465-2.637c.508-.977.566-1.797.176-2.461-1.758-2.773-3.105-4.805-4.043-6.094-.352-.43-.859-.645-1.523-.645-.547 0-1.035.156-1.465.469-.313.195-.732.498-1.26.908-.527.41-1.191 1.064-1.992 1.963-.801.898-1.201 1.621-1.201 2.168.156 4.102 3.252 9.18 9.287 15.234 6.035 6.055 11.123 9.141 15.264 9.258h.059c.547 0 1.25-.391 2.109-1.172.859-.781 1.504-1.436 1.934-1.963.43-.527.742-.947.938-1.26.391-.586.547-1.162.469-1.729-.078-.566-.312-.986-.703-1.26zm-1.289 1.934c-.586.82-1.24 1.592-1.963 2.314-.723.723-1.24 1.143-1.553 1.26-3.633-.156-8.271-3.057-13.916-8.701-5.645-5.645-8.545-10.283-8.701-13.916.117-.313.537-.83 1.26-1.553s1.494-1.377 2.314-1.963c.117-.078.254-.117.41-.117h.059c1.172 1.68 2.461 3.633 3.867 5.859 0 .156-.059.352-.176.586-.195.352-.684 1.211-1.465 2.578l-.586 1.055.703.996c.898 1.289 2.266 2.852 4.102 4.688 1.836 1.836 3.398 3.203 4.687 4.102l.996.703.996-.586c1.406-.82 2.285-1.309 2.637-1.465.234-.117.43-.176.586-.176 1.602.977 3.555 2.266 5.859 3.867.039.117 0 .273-.117.469zm-9.141-13.535c.117.156.273.234.469.234l.352-.059 6.738.059c.195 0 .361-.068.498-.205.137-.137.205-.303.205-.498v-.469c-.078-.508-.332-.742-.762-.703h-4.453l7.676-7.676c.43-.469.42-.918-.029-1.348-.449-.43-.889-.43-1.318 0l-7.676 7.676v-4.512c0-.195-.059-.361-.176-.498-.117-.137-.273-.205-.469-.205h-.469c-.469 0-.703.195-.703.586l-.059 6.797h.059l-.059.352c0 .195.059.352.176.469z"/></svg>