<svg viewBox="0 0 32 32" enable-background="new 0 0 32 32" xmlns="http://www.w3.org/2000/svg"><title>chemistry</title><path d="M24.73 29.418l-4.98-5.859v-10.371h.645c.234 0 .449-.098.645-.293.195-.195.293-.42.293-.674 0-.254-.098-.469-.293-.645-.195-.176-.41-.264-.645-.264h-1.582c-.273 0-.498.088-.674.264-.176.176-.264.4-.264.674v11.66c0 .234.078.43.234.586l3.809 4.629h-11.836l3.809-4.629c.156-.156.234-.352.234-.586v-11.66c0-.273-.088-.498-.264-.674-.176-.176-.4-.264-.674-.264h-1.582c-.234 0-.449.088-.645.264-.195.176-.293.391-.293.645s.098.479.293.674c.195.195.41.293.645.293h.645v10.371l-4.98 5.859c-.273.313-.332.654-.176 1.025.156.371.449.557.879.557h16.055c.43 0 .723-.186.879-.557.156-.371.098-.713-.176-1.025zm-9.668-19.043c.508 0 .947-.186 1.318-.557.371-.371.557-.811.557-1.318 0-.508-.186-.947-.557-1.318-.371-.371-.811-.557-1.318-.557-.508 0-.947.186-1.318.557-.371.371-.557.811-.557 1.318 0 .508.186.947.557 1.318.371.371.811.557 1.318.557zm6.123-2.813c.918 0 1.699-.322 2.344-.967.645-.645.967-1.416.967-2.314 0-.898-.322-1.67-.967-2.314-.645-.645-1.426-.967-2.344-.967-.918 0-1.699.322-2.344.967-.645.645-.967 1.416-.967 2.314 0 .898.322 1.67.967 2.314.645.645 1.426.967 2.344.967zm-.029-4.688c.391 0 .723.137.996.41.273.273.41.605.41.996s-.137.723-.41.996c-.273.273-.605.41-.996.41s-.723-.137-.996-.41c-.273-.273-.41-.605-.41-.996s.137-.723.41-.996c.273-.273.605-.41.996-.41z"/></svg>