<svg viewBox="0 0 32 32" enable-background="new 0 0 32 32" xmlns="http://www.w3.org/2000/svg"><title>call-end</title><path d="M29.184 6.868v.059c-1.68 1.172-3.633 2.461-5.859 3.867-.156 0-.352-.059-.586-.176l-2.637-1.465-1.055-.586-.938.703c-1.289.898-2.852 2.266-4.688 4.102-1.875 1.836-3.262 3.398-4.16 4.688l-.645.996.586.996 1.465 2.637c.117.234.176.43.176.586-.977 1.563-2.285 3.516-3.926 5.859-.117.039-.254 0-.41-.117-.82-.586-1.602-1.24-2.344-1.963-.742-.723-1.172-1.24-1.289-1.553.195-3.633 3.105-8.271 8.73-13.916s10.254-8.545 13.887-8.701c.352.117.889.537 1.611 1.26.723.723 1.377 1.494 1.963 2.314.078.117.117.254.117.41zm1.816 0c0-.547-.156-1.035-.469-1.465-.234-.352-.547-.781-.938-1.289-.391-.508-1.025-1.162-1.904-1.963-.879-.801-1.592-1.201-2.139-1.201-4.141.156-9.228 3.252-15.264 9.287-6.035 6.035-9.131 11.123-9.287 15.264v.059c0 .547.4 1.25 1.201 2.109s1.465 1.504 1.992 1.934c.527.43.928.742 1.201.938.625.391 1.211.557 1.758.498.547-.059.977-.303 1.289-.732 1.602-2.266 2.949-4.297 4.043-6.094.156-.273.234-.586.234-.938 0-.469-.137-.957-.41-1.465-.195-.391-.703-1.289-1.523-2.695.859-1.172 2.168-2.637 3.926-4.395 1.758-1.758 3.242-3.066 4.453-3.926 1.406.781 2.305 1.27 2.695 1.465.938.508 1.738.566 2.402.176 2.461-1.563 4.473-2.91 6.035-4.043.469-.352.703-.859.703-1.523z"/></svg>