<svg viewBox="0 0 32 32" enable-background="new 0 0 32 32" xmlns="http://www.w3.org/2000/svg"><title>bag</title><path d="M26.313 5.629h-5.625v-1.758c0-.781-.273-1.445-.82-1.992-.547-.547-1.211-.82-1.992-.82h-3.691c-.781 0-1.445.273-1.992.82-.547.547-.82 1.211-.82 1.992v1.758h-5.684c-.508 0-.947.186-1.318.557-.371.371-.557.811-.557 1.318v21.562c0 .547.186.996.557 1.348.371.352.811.527 1.318.527h20.625c.508 0 .947-.176 1.318-.527.371-.352.557-.801.557-1.348v-21.562c0-.508-.186-.947-.557-1.318-.371-.371-.811-.557-1.318-.557zm-13.066-1.758c0-.273.088-.498.264-.674.176-.176.4-.264.674-.264h3.691c.273 0 .498.088.674.264.176.176.264.4.264.674v1.758h-5.566v-1.758zm13.066 25.195h-20.625v-21.562h5.684v1.934c-.039.625.254.938.879.938.313 0 .557-.078.732-.234.176-.156.264-.312.264-.469v-2.168h5.566v1.934c-.039.625.273.938.938.938.273 0 .488-.078.645-.234.156-.156.254-.312.293-.469v-2.168h5.625v21.562z"/></svg>