<svg viewBox="0 0 32 32" enable-background="new 0 0 32 32" xmlns="http://www.w3.org/2000/svg"><title>size-actual</title><path d="M12.254 11.137l-.059-6.738c0-.391-.234-.605-.703-.645h-.469c-.195 0-.352.068-.469.205-.117.137-.176.303-.176.498v4.57l-7.793-7.734c-.195-.195-.42-.293-.674-.293-.254 0-.479.098-.674.293-.43.43-.43.879 0 1.348l7.793 7.676h-4.453c-.469 0-.723.234-.762.703v.469c0 .195.068.361.205.498.137.137.303.205.498.205h7.09c.195 0 .352-.059.469-.176.117-.117.176-.273.176-.469l-.059-.352.059-.059zm7.676.879c.117.117.273.176.469.176h7.09c.195 0 .361-.068.498-.205.137-.137.205-.303.205-.498v-.469c-.039-.469-.293-.703-.762-.703h-4.453l7.793-7.676c.43-.469.42-.918-.029-1.348-.449-.43-.889-.43-1.318 0l-7.793 7.734v-4.57c0-.195-.059-.361-.176-.498-.117-.137-.273-.205-.469-.205h-.469c-.469.039-.703.254-.703.645l-.059 6.738.059.059-.059.352c0 .195.059.352.176.469zm-7.852 7.969c-.117-.156-.273-.234-.469-.234l-.352.059-6.738-.059c-.195 0-.361.068-.498.205-.137.137-.205.303-.205.498v.469c.039.508.293.742.762.703h4.453l-7.793 7.734c-.156.195-.234.42-.234.674 0 .254.088.479.264.674.176.195.391.293.645.293s.479-.098.674-.293l7.793-7.734v4.57c0 .195.059.361.176.498.117.137.273.205.469.205h.469c.469-.039.703-.254.703-.645l.059-6.738-.059-.059.059-.352c0-.195-.059-.352-.176-.469zm10.898 1.641h4.453c.469.039.723-.195.762-.703v-.469c0-.195-.068-.361-.205-.498-.137-.137-.303-.205-.498-.205h-7.148c-.156 0-.312.078-.469.234-.117.117-.176.273-.176.469l.059.352-.059.059.059 6.738c0 .391.234.605.703.645h.469c.195 0 .361-.068.498-.205.137-.137.205-.303.205-.498l-.059-4.57 7.852 7.734c.43.43.869.43 1.318 0 .449-.43.459-.879.029-1.348l-7.793-7.734z"/></svg>