<svg viewBox="0 0 32 32" enable-background="new 0 0 32 32" xmlns="http://www.w3.org/2000/svg"><title>speech</title><path d="M29.125 2.875h-26.25c-.508 0-.947.186-1.318.557-.371.371-.557.811-.557 1.318v16.934c0 .508.186.947.557 1.318.371.371.811.557 1.318.557h3.75v4.629c0 .43.195.723.586.879.117.039.234.059.352.059.234 0 .449-.078.645-.234l5.391-5.332h15.527c.508 0 .947-.186 1.318-.557.371-.371.557-.811.557-1.318v-16.934c0-.508-.186-.947-.557-1.318-.371-.371-.811-.557-1.318-.557zm0 18.809h-16.289l-4.336 4.277v-4.277h-5.625v-16.934h26.25v16.934zm-21.563-7.5h16.875c.273 0 .498-.098.674-.293.176-.195.264-.42.264-.674 0-.254-.088-.469-.264-.645-.176-.176-.4-.264-.674-.264h-16.875c-.273 0-.498.088-.674.264-.176.176-.264.391-.264.645s.088.479.264.674c.176.195.4.293.674.293zm0-3.75h16.875c.273 0 .498-.098.674-.293.176-.195.264-.42.264-.674 0-.254-.088-.469-.264-.645-.176-.176-.4-.264-.674-.264h-16.875c-.273 0-.498.088-.674.264-.176.176-.264.391-.264.645s.088.479.264.674c.176.195.4.293.674.293zm0 7.5h11.25c.273 0 .498-.098.674-.293.176-.195.264-.42.264-.674 0-.254-.088-.469-.264-.645-.176-.176-.4-.264-.674-.264h-11.25c-.273 0-.498.088-.674.264-.176.176-.264.391-.264.645s.088.479.264.674c.176.195.4.293.674.293z"/></svg>