<svg viewBox="0 0 32 32" enable-background="new 0 0 32 32" xmlns="http://www.w3.org/2000/svg"><title>symbol-female</title><path d="M19.347 1c-3.242 0-6.006 1.143-8.291 3.428s-3.428 5.049-3.428 8.291c0 2.852.918 5.371 2.754 7.559l-3.691 3.75-3.984-3.984c-.43-.43-.869-.43-1.318 0-.449.43-.459.859-.029 1.289l3.984 4.043-3.984 3.984c-.469.469-.479.918-.029 1.348.449.43.889.43 1.318 0l4.043-3.984 3.984 3.984c.43.469.859.469 1.289 0 .195-.156.293-.371.293-.645 0-.273-.098-.488-.293-.645l-3.984-4.043 3.75-3.75c2.188 1.875 4.727 2.813 7.617 2.813 3.242 0 6.006-1.143 8.291-3.428s3.428-5.049 3.428-8.291-1.143-6.006-3.428-8.291-5.049-3.428-8.291-3.428zm0 21.563c-2.734 0-5.059-.957-6.973-2.871-1.914-1.914-2.871-4.238-2.871-6.973 0-2.734.957-5.059 2.871-6.973 1.914-1.914 4.238-2.871 6.973-2.871 2.734 0 5.059.957 6.973 2.871 1.914 1.914 2.871 4.238 2.871 6.973 0 2.734-.957 5.059-2.871 6.973-1.914 1.914-4.238 2.871-6.973 2.871z"/></svg>