<svg viewBox="0 0 32 32" enable-background="new 0 0 32 32" xmlns="http://www.w3.org/2000/svg"><title>control-start</title><path d="M29.535 2.934c0-.742-.312-1.289-.938-1.641-.273-.156-.586-.234-.938-.234s-.664.098-.938.293l-21.562 13.066c-.508.313-.801.742-.879 1.289v-13.77c0-.273-.088-.498-.264-.674-.176-.176-.4-.264-.674-.264-.273 0-.498.088-.674.264-.176.176-.264.4-.264.674v28.125c0 .273.088.498.264.674.176.176.4.264.674.264.273 0 .498-.088.674-.264.176-.176.264-.4.264-.674v-13.77c.078.547.371.977.879 1.289l21.562 13.066c.313.195.645.293.996.293.313 0 .625-.078.938-.234.625-.352.938-.898.938-1.641l-.059-26.133zm-23.379 13.066l21.504-13.066.059 26.133-21.563-13.066z"/></svg>